<svg id="ChartJs" xmlns="http://www.w3.org/2000/svg" viewBox="0 0 337.43 389.58"><defs><style>.cls-1{fill:#479fd8;}.cls-2{fill:#ffce58;}.cls-3{fill:#f06184;isolation:isolate;opacity:0.8;}.cls-4{fill:#e8e9ed;}</style></defs><path class="cls-1" d="M365.91,209.14c-54.47,1.07-43.12,35.55-81.51,44.27-39,8.86-45.14-95.23-84.12-95.23S152.65,259.29,103.83,328.7l-1.39,2L207.1,391.08l158.81-91.67Z" transform="translate(-38.26 -13)"/><path class="cls-2" d="M365.91,206c-18.24-23.4-30.6-50.3-57.21-50.3-47.08,0-34.69,76.8-86.73,76.8s-57.51-82.61-116.46-4.95C86.72,252.3,71.6,279.9,59.72,306L207.1,391.09l158.81-91.68Z" transform="translate(-38.26 -13)"/><path class="cls-3" d="M48.3,237.82c17.86-49.48,25.58-89.55,59.69-89.55,52,0,64.42,146.19,109,131.31s39.64-94.15,109-94.15c13.21,0,26.69,8.09,39.86,21.18v92.8l-158.8,91.67L48.3,299.41V237.82Z" transform="translate(-38.26 -13)"/><path class="cls-4" d="M207,402.58,38.26,305.19V110.39L207,13,375.7,110.39V305.18ZM58.09,293.74,207,379.7l148.9-86V121.84L207,35.89l-148.89,86Z" transform="translate(-38.26 -13)"/></svg>