<svg id="Git" xmlns="http://www.w3.org/2000/svg" viewBox="0 0 336.26 336.25"><defs><style>.cls-1{fill:#f0512b;}</style></defs><path class="cls-1" d="M371.79,195,225,48.21a21.66,21.66,0,0,0-30.62,0L163.86,78.7l38.67,38.68a25.71,25.71,0,0,1,32.57,32.78l37.27,37.27A25.76,25.76,0,1,1,262.55,230h0a25.74,25.74,0,0,1-5.61-28L222.18,167.2v91.48a25.66,25.66,0,1,1-21.19-.76V165.6a25.38,25.38,0,0,1-8.43-5.62A25.75,25.75,0,0,1,187,131.81L148.88,93.68,48.21,194.34a21.69,21.69,0,0,0,0,30.64L195,371.79a21.67,21.67,0,0,0,30.63,0L371.79,225.66A21.69,21.69,0,0,0,371.79,195Z" transform="translate(-41.87 -41.87)"/></svg>