<?xml version="1.0" encoding="utf-8"?>
<!-- Generator: Adobe Illustrator 26.0.2, SVG Export Plug-In . SVG Version: 6.00 Build 0)  -->
<svg version="1.1" xmlns="http://www.w3.org/2000/svg" xmlns:xlink="http://www.w3.org/1999/xlink" x="0px" y="0px"
	 viewBox="0 0 420 420" style="enable-background:new 0 0 420 420;" xml:space="preserve">
<style type="text/css">
	.st0{display:none;}
	.st1{display:inline;fill:#479FD8;}
	.st2{display:inline;fill:#FFCE58;}
	.st3{display:inline;opacity:0.8;fill:#F06184;enable-background:new    ;}
	.st4{display:inline;fill:#E8E9ED;}
	.st5{display:inline;fill:#435BA9;}
	.st6{display:inline;fill:#4767B0;}
	.st7{display:inline;fill:#EBEBEB;}
	.st8{display:inline;fill:#FFFFFF;}
	.st9{display:inline;fill:#010101;}
	.st10{display:inline;fill:#F0512B;}
	.st11{fill:#E44F26;}
	.st12{fill:#F1672A;}
	.st13{fill:#EBEBEB;}
	.st14{fill:#FFFFFF;}
	.st15{display:inline;fill:#F1DC4F;}
	.st16{display:inline;fill:#333431;}
	.st17{display:inline;}
	.st18{fill:#C54027;}
	.st19{fill:#7BC144;}
	.st20{fill:#FAA642;}
	.st21{fill:#EF4525;}
	.st22{fill:#5191CD;}
	.st23{display:inline;fill:#08202A;}
	.st24{display:inline;fill:#10182B;}
	.st25{display:inline;fill:#64BD57;}
	.st26{display:inline;fill:url(#SVGID_1_);}
	.st27{display:inline;fill:url(#SVGID_00000109015415986176160720000007490817013982240919_);}
	.st28{clip-path:url(#SVGID_00000089562083627570620100000006999347243447050679_);fill:#10182B;}
	.st29{clip-path:url(#SVGID_00000021838246757469987740000002579534983538657957_);fill:#60A04E;}
	.st30{clip-path:url(#SVGID_00000005975892556050974310000007532715094638547872_);fill:#60A04E;}
	.st31{clip-path:url(#SVGID_00000013905753009581072500000014402585386943084959_);fill:#60A04E;}
	
		.st32{clip-path:url(#SVGID_00000149366589014200171410000008260880910460182424_);fill-rule:evenodd;clip-rule:evenodd;fill:#FFFFFF;}
	
		.st33{clip-path:url(#SVGID_00000145056259165071051880000015781995307978028441_);fill-rule:evenodd;clip-rule:evenodd;fill:#FFFFFF;}
	
		.st34{clip-path:url(#SVGID_00000007386154167598831140000000829080961183318700_);fill-rule:evenodd;clip-rule:evenodd;fill:#FFFFFF;}
	
		.st35{clip-path:url(#SVGID_00000116217426108401643100000018443620951898645893_);fill-rule:evenodd;clip-rule:evenodd;fill:#60A04E;}
	
		.st36{clip-path:url(#SVGID_00000128476375782947409340000017754018307759043759_);fill:url(#SVGID_00000152244909708329823950000005826214613003091901_);}
	
		.st37{clip-path:url(#SVGID_00000006665806313034791300000012721657935686193298_);fill:url(#SVGID_00000035518126446166115610000002976999891005428917_);}
	
		.st38{clip-path:url(#SVGID_00000060752856088414245040000005500398761486292149_);fill:url(#SVGID_00000166667552623904314250000006932656655566134685_);}
	.st39{fill:#2E4652;}
	.st40{fill:#E2584D;}
	.st41{fill:#32AD4A;}
	.st42{fill:#D65348;}
	.st43{fill:#248E44;}
	.st44{fill:#C14C42;}
	.st45{fill:#F7AD1A;}
	.st46{fill:#4F4F4F;}
	.st47{display:inline;fill:#CC3937;}
	.st48{display:inline;fill:#2C8FBC;}
	.st49{display:inline;fill:#70CFF0;}
	.st50{fill:none;stroke:#70CFF0;}
	.st51{display:inline;fill:#010101;fill-opacity:0;}
	.st52{display:inline;fill:#CE6899;}
	.st53{clip-path:url(#SVGID_00000040547281837968623530000004823310231466022566_);}
	.st54{clip-path:url(#SVGID_00000127004597810687489490000005799068521090553743_);}
	.st55{fill-rule:evenodd;clip-rule:evenodd;fill:#717874;}
	.st56{clip-path:url(#SVGID_00000134948253999169312970000017623645480808280975_);}
	.st57{clip-path:url(#SVGID_00000043435347749389302900000014704722204663593891_);}
	.st58{fill-rule:evenodd;clip-rule:evenodd;fill:#41464E;}
	.st59{fill:url(#path122_00000055709471385499329810000016650522898740430269_);}
	.st60{fill-rule:evenodd;clip-rule:evenodd;fill:#FDD700;}
	.st61{fill:#EF4A85;}
	.st62{filter:url(#Adobe_OpacityMaskFilter);}
	.st63{mask:url(#mask-2_00000018204161066850842800000012786896588179254185_);fill:#FFFFFF;}
	.st64{clip-path:url(#SVGID_00000165926860536672209650000004391833608194507928_);}
	.st65{fill-rule:evenodd;clip-rule:evenodd;fill:#4CBBEB;}
	.st66{display:inline;fill:#3978BD;}
	.st67{display:inline;fill-rule:evenodd;clip-rule:evenodd;fill:#FFFFFF;}
	.st68{display:inline;fill:#1F1E20;}
	.st69{clip-path:url(#SVGID_00000023961986341940686530000010108547864538364849_);}
	.st70{fill:#FDC82C;}
	.st71{fill:#719C3F;}
	.st72{fill:#719C3F;fill-opacity:0.5;}
	
		.st73{display:inline;fill-rule:evenodd;clip-rule:evenodd;fill:#FFFFFF;filter:url(#Adobe_OpacityMaskFilter_00000101073039281836954940000016837475639397215909_);}
	.st74{display:inline;mask:url(#mask0_00000163769701357681723190000012671538621496403627_);}
	.st75{fill:#0265A9;}
	.st76{fill:#2479BF;}
	.st77{fill:#4497D2;}
	.st78{opacity:0.25;}
	.st79{fill-rule:evenodd;clip-rule:evenodd;fill:url(#SVGID_00000173873078270300164420000016735005094253366678_);}
	.st80{display:inline;fill:#7D57A4;}
</style>
<g id="ChartJs" class="st0">
	<path class="st1" d="M365.91,209.14c-54.46,1.07-43.12,35.55-81.5,44.27c-38.99,8.86-45.15-95.23-84.13-95.23
		c-38.99,0-47.62,101.11-96.44,170.52l-1.39,1.96l104.66,60.42l158.8-91.68V209.14z"/>
	<path class="st2" d="M365.91,206.01c-18.23-23.4-30.6-50.3-57.2-50.3c-47.08,0-34.69,76.81-86.73,76.81
		c-52.04,0-57.51-82.62-116.46-4.95C86.72,252.3,71.6,279.9,59.72,306.01l147.38,85.08l158.8-91.68V206.01z"/>
	<path class="st3" d="M48.3,237.82c17.87-49.48,25.58-89.55,59.69-89.55c52.04,0,64.42,146.19,109.03,131.32
		c44.6-14.86,39.64-94.15,109.03-94.15c13.21,0,26.69,8.09,39.86,21.18v92.8l-158.8,91.68L48.3,299.41L48.3,237.82L48.3,237.82z"/>
	<path class="st4" d="M206.98,402.58L38.26,305.19V110.39L206.98,13l168.72,97.39v194.79L206.98,402.58z M58.09,293.74l148.89,85.95
		l148.89-85.95v-171.9L206.98,35.89L58.09,121.84V293.74z"/>
</g>
<g id="CSS3" class="st0">
	<polygon id="polygon2989" class="st5" points="355.09,45.45 328.66,341.61 209.82,374.55 91.32,341.65 64.91,45.45 	"/>
	<polygon id="polygon2991" class="st6" points="306.02,322.75 328.62,69.67 210,69.67 210,349.37 	"/>
	<polygon id="polygon2993" class="st7" points="125.45,179.53 128.7,215.85 210,215.85 210,179.53 	"/>
	<polygon id="polygon2995" class="st7" points="210,106 209.87,106 118.91,106 122.21,142.32 210,142.32 	"/>
	<polygon id="polygon2997" class="st7" points="210,311.67 210,273.87 209.84,273.92 169.38,262.99 166.8,234.02 147.14,234.02 
		130.33,234.02 135.42,291.06 209.83,311.72 	"/>
	<polygon id="polygon3005" class="st8" points="254.61,215.85 250.39,262.97 209.87,273.9 209.87,311.7 284.35,291.06 284.9,284.92 
		293.43,189.28 294.32,179.53 300.88,106 209.87,106 209.87,142.32 261.06,142.32 257.76,179.53 209.87,179.53 209.87,215.85 	"/>
</g>
<g id="Express" class="st0">
	<path class="st8" d="M54.81,175.71h325.87c6.43,0,11.64,5.18,11.64,11.56v63.58c0,6.38-5.21,11.56-11.64,11.56H54.81
		c-6.43,0-11.64-5.18-11.64-11.56v-63.58C43.17,180.88,48.38,175.71,54.81,175.71z"/>
	<path class="st9" d="M148.68,262.51v-73.2h3.97v11.51c0.47-0.51,0.9-1.05,1.3-1.62c3.32-6.88,10.31-11.22,17.95-11.14
		c9.05-0.27,16.41,3.08,20.73,11.14c5.58,10.15,5.9,22.38,0.86,32.82c-4.03,9.03-13.98,13.52-24.63,11.87
		c-6.73-0.57-12.72-4.52-15.89-10.49v29.11L148.68,262.51z M152.65,215.21l0.89,8.6c1.57,9.78,7.35,15.56,16.43,16.65
		c8.79,1.45,17.38-3.52,20.52-11.87c3.53-8.42,3.27-17.95-0.7-26.17c-3.33-7.45-11.19-11.8-19.27-10.65
		c-7.57,0.55-13.96,5.83-15.92,13.16C153.75,208.31,153.1,211.74,152.65,215.21L152.65,215.21z M278.11,225.15
		c-1.25,10.66-10.19,18.75-20.92,18.92c-16.65,0.84-24.46-10.22-25.71-22.98c-0.86-6.93,0.26-13.96,3.24-20.28
		c4.26-8.89,13.78-13.99,23.54-12.62c9.27,0.79,17,7.42,19.19,16.46c0.85,4.02,1.47,8.08,1.86,12.17H235.6
		c-0.81,11.57,5.41,20.87,14.22,23.11c10.97,2.7,20.35-2.06,23.76-12.49c0.76-2.68,2.13-3.06,4.57-2.3H278.11z M235.57,213.13h39.11
		c-0.24-12.32-7.92-21.28-18.33-21.38C244.6,191.55,236.08,200.15,235.57,213.13z M286.2,225.42h3.83
		c0.29,5.76,3.77,10.87,9.03,13.25c6.56,2.95,14.1,2.75,20.49-0.54c3.52-1.59,5.68-5.2,5.41-9.06c0.2-3.73-2.09-7.14-5.62-8.35
		c-4.22-1.57-8.7-2.43-13-3.81c-4.47-1.27-8.85-2.87-13.08-4.78c-6.92-3.38-7.35-16.54,0.49-20.71c8.16-4.6,18.09-4.76,26.38-0.41
		c5.06,2.8,7.86,8.44,7.03,14.17h-3.29c0-0.16-0.3-0.3-0.3-0.46c-0.41-10.48-9.22-13.76-18.68-12.84c-2.86,0.32-5.57,1.18-8.11,2.46
		c-3.13,1.43-5.02,4.68-4.7,8.11c0.01,3.43,2.17,6.48,5.41,7.62c4.13,1.52,8.51,2.49,12.79,3.68l10.32,2.7
		c4.8,1.58,8.14,5.95,8.38,11c0.83,5.54-2,10.99-7,13.52c-9.03,5.11-23.9,3.76-30.52-2.7C288.06,234.85,286.17,230.22,286.2,225.42
		L286.2,225.42z M377.62,205.18h-3.6c0-0.49-0.19-0.95-0.24-1.32c-0.12-5.55-4.11-10.27-9.57-11.3c-5-1.43-10.33-1.18-15.16,0.73
		c-3.93,1.12-6.65,4.7-6.68,8.79c-0.14,4.03,2.57,7.6,6.49,8.54l16.43,4.22c1.78,0.43,3.53,0.96,5.24,1.59
		c5.24,1.91,8.8,6.77,8.96,12.33c0.16,5.57-3.12,10.67-8.26,12.83c-7.71,3.5-16.55,3.59-24.33,0.24
		c-6.48-2.8-10.54-9.33-10.16-16.38h3.51c1.32,6.37,5.7,11.67,11.7,14.18c6,2.51,12.85,1.89,18.31-1.64
		c3.34-1.74,5.37-5.26,5.19-9.03c0.17-3.73-2.16-7.12-5.7-8.3c-4.22-1.57-8.7-2.4-13-3.81c-4.5-1.25-8.9-2.83-13.16-4.73
		c-6.76-3.33-7.3-16.38,0.41-20.55c8.27-4.8,18.44-4.91,26.82-0.3c4.81,2.87,7.47,8.31,6.78,13.87L377.62,205.18z M142.15,242.76
		c-2.93,1.11-6.22-0.15-7.68-2.92l-13.98-19.33l-2.03-2.7l-16.22,22.06c-1.37,2.65-4.49,3.88-7.3,2.87l20.89-28.03L96.4,189.37
		c2.88-1.04,6.1,0.09,7.7,2.7l14.48,19.57l14.57-19.49c1.38-2.61,4.49-3.77,7.25-2.7l-7.54,10.01l-10.22,13.3
		c-1.11,0.99-1.21,2.7-0.22,3.81c0.07,0.08,0.14,0.15,0.22,0.22l19.46,25.98L142.15,242.76z M230.86,189.1v3.81
		c-10.8-0.71-20.13,7.47-20.84,18.27c-0.04,0.66-0.05,1.32-0.03,1.97c0,8.9,0,17.8,0,26.71v3.03h-3.87v-53.55h3.81v10.97
		c4.68-8,11.89-10.97,20.95-11.19L230.86,189.1z M44.92,214.35l1.7-8.41c4.68-16.63,23.73-23.54,36.85-13.25
		c7.68,6.03,9.59,14.57,9.22,24.19H49.43c-0.7,17.19,11.71,27.57,27.57,22.27c5.23-1.91,9.16-6.25,10.46-11.65
		c0.84-2.7,2.22-3.16,4.76-2.38c-0.86,6.67-4.72,12.58-10.49,16.03c-9.65,5.28-21.59,3.75-29.6-3.78
		c-3.86-4.34-6.19-9.83-6.65-15.63c0-0.95-0.32-1.84-0.54-2.7C44.92,217.45,44.91,215.88,44.92,214.35L44.92,214.35z M49.49,213.19
		H88.6c-0.24-12.46-8.11-21.3-18.6-21.38c-11.68-0.16-20.03,8.49-20.55,21.33L49.49,213.19z"/>
</g>
<g id="Git" class="st0">
	<path class="st10" d="M371.79,195.02L224.97,48.21c-8.45-8.45-22.16-8.45-30.62,0L163.86,78.7l38.67,38.67
		c8.99-3.03,19.29-1,26.46,6.16c7.2,7.21,9.22,17.6,6.11,26.62l37.27,37.27c9.02-3.11,19.42-1.1,26.62,6.11
		c10.07,10.06,10.07,26.37,0,36.44c-10.06,10.06-26.37,10.07-36.44,0.01c0,0-0.01-0.01-0.01-0.01c-7.35-7.36-9.56-18.41-5.61-28.03
		l-34.76-34.76l-0.01,91.48c2.52,1.24,4.82,2.89,6.82,4.87c10.06,10.06,10.06,26.37,0,36.45c-10.07,10.06-26.38,10.06-36.44,0
		c-10.06-10.08-10.06-26.38,0-36.45c2.41-2.41,5.28-4.33,8.44-5.62V165.6c-3.16-1.29-6.03-3.2-8.44-5.62
		c-7.62-7.62-9.46-18.81-5.55-28.17l-38.13-38.13L48.21,194.34c-8.46,8.46-8.46,22.17,0,30.63l146.82,146.81
		c8.45,8.45,22.16,8.45,30.63,0l146.13-146.13C380.24,217.2,380.24,203.48,371.79,195.02z"/>
</g>
<g id="HTML5">
	<path class="st11" d="M83.61,350.28L55.5,34.8h309l-28.11,315.3L209.74,385.2"/>
	<path class="st12" d="M210,358.37V60.7h126.31l-24.1,269.14"/>
	<path class="st13" d="M112.91,99.28H210v38.67h-54.68l3.58,39.6H210v38.58h-86.53 M125.17,235.55h38.84l2.73,30.92L210,278.05
		v40.37l-79.38-22.14"/>
	<path class="st14" d="M306.75,99.28h-96.92v38.67h93.35 M299.68,177.55h-89.85v38.67h47.7l-4.51,50.25l-43.18,11.58v40.2
		l79.21-21.97"/>
</g>
<g id="Javascript" class="st0">
	<path class="st15" d="M40.17,40.17h339.66v339.66H40.17V40.17z"/>
	<path class="st16" d="M352.03,298.82c-2.49-15.5-12.59-28.51-42.52-40.65c-10.4-4.78-21.99-8.2-25.44-16.08
		c-1.23-4.58-1.39-7.17-0.61-9.94c2.23-9.01,12.98-11.82,21.5-9.23c5.49,1.84,10.69,6.07,13.82,12.82
		c14.66-9.49,14.63-9.43,24.86-15.95c-3.75-5.81-5.75-8.49-8.2-10.98c-8.81-9.85-20.83-14.92-40.04-14.53
		c-3.33,0.42-6.68,0.87-10.01,1.29c-9.59,2.42-18.73,7.46-24.09,14.21c-16.08,18.24-11.49,50.17,8.07,63.32
		c19.28,14.46,47.59,17.76,51.21,31.29c3.52,16.56-12.17,21.92-27.77,20.02c-11.49-2.39-17.89-8.23-24.8-18.86
		c-12.72,7.36-12.72,7.36-25.8,14.88c3.1,6.78,6.36,9.85,11.56,15.72c24.6,24.96,86.17,23.73,97.22-14.04
		C351.45,320.81,354.42,312.16,352.03,298.82z M224.82,196.28h-31.77c0,27.44-0.13,54.69-0.13,82.14c0,17.47,0.9,33.48-1.94,38.39
		c-4.65,9.65-16.69,8.46-22.18,6.59c-5.59-2.74-8.43-6.65-11.72-12.17c-0.9-1.58-1.58-2.81-1.81-2.91
		c-8.62,5.26-17.21,10.56-25.83,15.82c4.29,8.81,10.62,16.47,18.73,21.44c12.11,7.26,28.38,9.49,45.4,5.59
		c11.07-3.23,20.63-9.91,25.64-20.08c7.23-13.33,5.68-29.48,5.62-47.33C224.98,254.62,224.82,225.5,224.82,196.28L224.82,196.28z"/>
</g>
<g id="Jest" class="st0">
	<g class="st17">
		<path class="st18" d="M336.63,200.14c0-17.12-13.88-31-31-31c-1.1,0-2.19,0.06-3.26,0.17l42.57-125.57H164.03l42.51,125.46
			c-0.62-0.04-1.25-0.06-1.88-0.06c-17.12,0-31,13.88-31,31c0,13.84,9.07,25.55,21.59,29.54c-6.61,11.45-14.93,21.76-24.37,30.67
			c-12.84,12.12-27.54,21.3-43.43,26.96c-18.93-9.72-27.86-31.35-19.8-50.3c0.91-2.14,1.84-4.31,2.73-6.47
			c13.71-3.2,23.93-15.49,23.93-30.18c0-17.12-13.88-31-31-31c-17.12,0-31,13.88-31,31c0,10.5,5.22,19.77,13.21,25.38
			c-7.67,17.47-18.95,35.75-22.46,56.94c-4.21,25.39-0.01,52.35,21.95,67.57c51.15,35.45,106.67-21.98,165.21-36.41
			c21.21-5.23,44.5-4.39,63.19-15.21c14.04-8.13,23.29-21.6,25.92-36.73c2.59-14.94-1.19-29.82-9.89-41.88
			C333.92,214.63,336.63,207.71,336.63,200.14L336.63,200.14z M235.65,200.25c0-0.04,0-0.07,0-0.11c0-11.24-5.99-21.09-14.94-26.52
			l33.84-68.42l33.9,69.15c-8.32,5.56-13.81,15.03-13.81,25.79c0,0.23,0.01,0.45,0.02,0.67L235.65,200.25L235.65,200.25z"/>
		<path class="st14" d="M344.2,200.14c0-18.83-13.57-34.54-31.43-37.89l42.74-126.07H153.47l42.81,126.32
			c-17.25,3.84-30.19,19.25-30.19,37.64c0,13.81,7.3,25.94,18.23,32.75c-5.26,7.84-11.5,15.21-18.65,21.95
			c-11.34,10.7-23.97,18.81-37.58,24.14c-13.71-8.61-19.51-24.86-13.49-39.01l0.47-1.11c0.29-0.69,0.59-1.39,0.88-2.08
			c15.06-5.25,25.9-19.59,25.9-36.42c0-21.27-17.3-38.57-38.57-38.57s-38.57,17.3-38.57,38.57c0,10.73,4.41,20.45,11.51,27.45
			c-1.29,2.74-2.64,5.53-4.03,8.39c-6.49,13.33-13.85,28.45-16.63,45.23c-5.53,33.33,3.39,59.98,25.1,75.03
			c13.18,9.13,26.56,12.73,40.03,12.72c25.36,0,51.01-12.74,76.1-25.2c18.07-8.97,36.75-18.25,55.21-22.81
			c6.87-1.69,13.93-2.71,21.41-3.79c14.83-2.14,30.17-4.35,43.76-12.22c15.75-9.12,26.53-24.43,29.58-41.98
			c2.62-15.07-0.53-30.17-8.22-42.97C342.13,214.37,344.2,207.49,344.2,200.14L344.2,200.14z M329.06,200.14
			c0,12.92-10.51,23.43-23.43,23.43c-12.92,0-23.43-10.51-23.43-23.43s10.51-23.43,23.43-23.43
			C318.55,176.72,329.06,187.23,329.06,200.14L329.06,200.14z M334.39,51.32l-37.74,111.32c-1.64,0.39-3.23,0.89-4.78,1.48
			l-37.29-76.06l-37.39,75.61c-1.62-0.56-3.28-1.02-4.98-1.35l-37.62-111H334.39L334.39,51.32z M204.66,176.72
			c12.92,0,23.43,10.51,23.43,23.43s-10.51,23.43-23.43,23.43c-12.92,0-23.43-10.51-23.43-23.43S191.74,176.72,204.66,176.72
			L204.66,176.72z M103.3,176.94c12.92,0,23.43,10.51,23.43,23.43c0,12.92-10.51,23.43-23.43,23.43
			c-12.92,0-23.43-10.51-23.43-23.43C79.87,187.45,90.38,176.94,103.3,176.94L103.3,176.94z M331.85,260.6
			c-2.28,13.13-10.39,24.6-22.25,31.47c-11.06,6.4-24.31,8.32-38.33,10.34c-7.51,1.08-15.29,2.2-22.88,4.08
			c-20.07,4.95-39.52,14.61-58.32,23.95c-37.63,18.69-70.12,34.83-100.76,13.59c-22.44-15.55-21.41-44.34-18.79-60.11
			c2.42-14.61,8.97-28.07,15.31-41.08c1.1-2.25,2.16-4.46,3.21-6.65c3.14,1.26,6.48,2.11,9.97,2.5
			c-6.45,21.29,3.69,44.43,24.98,55.36l2.91,1.5l3.09-1.1c16.83-5.99,32.34-15.61,46.09-28.59c8.89-8.39,16.53-17.67,22.82-27.58
			c1.88,0.28,3.81,0.43,5.78,0.43c21.27,0,38.57-17.3,38.57-38.57c0-11.44-5.01-21.72-12.94-28.79l24.24-49.01L279,172.29
			c-7.35,7.03-11.94,16.91-11.94,27.86c0,21.27,17.3,38.57,38.57,38.57c8.17,0,15.75-2.56,21.99-6.91
			C331.96,240.67,333.58,250.66,331.85,260.6L331.85,260.6z"/>
	</g>
</g>
<g id="Joomla" class="st0">
	<g transform="translate(-35 -35)" class="st17">
		<path class="st19" d="M154.59,245.93l-5.21-5.21c-16.74-16.74-21.58-40.18-15.63-61.39c-16.74-3.72-29.02-18.6-29.02-36.46
			c0-20.46,16.74-37.2,37.2-37.2c18.6,0,33.86,13.39,36.83,31.25c20.09-4.84,42.04,0.74,57.67,16.37l2.23,2.23l-27.53,27.53
			l-2.23-2.23c-8.93-8.93-23.44-8.93-32.37,0s-8.93,23.44,0,32.37l61.76,61.76l-27.53,27.53l-29.02-29.02L154.59,245.93z"/>
		<path class="st20" d="M185.47,215.42l61.76-61.76c16.37-16.37,40.18-21.58,61.01-15.63c2.6-18.23,18.23-32,36.83-32
			c20.46,0,37.2,16.74,37.2,37.2c0,18.97-14.14,34.6-32.37,36.83c5.95,20.83,0.74,44.27-15.63,60.64l-2.23,2.23l-26.79-27.53
			l2.23-2.23c8.93-8.93,8.93-23.44,0-32.37s-23.44-8.93-32.37,0l-61.76,61.76L185.47,215.42z"/>
		<path class="st21" d="M309.36,354.19c-21.21,6.32-45.02,1.49-61.76-15.25l-2.23-2.23l27.53-27.53l2.23,2.23
			c8.93,8.93,23.44,8.93,32.37,0c8.93-8.93,8.93-23.44,0-32.37l-61.76-61.76l27.53-27.53l62.13,62.13
			c15.63,15.63,21.21,37.95,16.37,58.41c18.23,2.6,32,18.23,32,36.83c0,20.46-16.74,37.2-37.2,37.2
			C327.96,383.96,312.7,370.94,309.36,354.19z"/>
		<path class="st22" d="M298.57,276.81l-61.76,61.76c-16,16-38.32,21.21-58.41,16.37c-3.72,16.74-18.6,29.02-36.46,29.02
			c-20.46,0-37.2-16.74-37.2-37.2c0-17.49,12.28-32.37,28.65-36.09c-5.21-20.83,0-43.16,16-59.15l2.23-2.23l27.53,27.53l-2.23,2.23
			c-8.93,8.93-8.93,23.44,0,32.37s23.44,8.93,32.37,0l61.76-61.76L298.57,276.81z"/>
	</g>
</g>
<g id="Markdown" class="st0">
	<path class="st8" d="M47.62,284.61V135.39H91.5l43.89,54.86l43.89-54.86h43.89v149.22h-43.89v-85.58l-43.89,54.86L91.5,199.03
		v85.58H47.62z M321.91,284.61l-65.83-72.41h43.89v-76.8h43.89v76.8h43.89L321.91,284.61z"/>
</g>
<g id="mongo" class="st0">
	<path vector-effect="non-scaling-stroke" class="st23" d="M401.8,254.33c-0.69-0.38-1.2-0.92-1.62-1.57
		c-0.38-0.68-0.59-1.4-0.59-2.18s0.21-1.54,0.59-2.18c0.38-0.68,0.93-1.19,1.62-1.57c0.69-0.38,1.45-0.58,2.31-0.58
		c0.86,0,1.62,0.2,2.31,0.58c0.69,0.38,1.2,0.92,1.62,1.57c0.38,0.68,0.59,1.4,0.59,2.18s-0.21,1.54-0.59,2.18
		c-0.38,0.68-0.93,1.19-1.62,1.57c-0.69,0.38-1.45,0.58-2.31,0.58C403.28,254.91,402.49,254.74,401.8,254.33z M406.03,253.85
		c0.58-0.31,1-0.79,1.34-1.33c0.31-0.58,0.48-1.23,0.48-1.95c0-0.72-0.17-1.37-0.48-1.95c-0.31-0.58-0.76-1.02-1.34-1.33
		c-0.59-0.31-1.21-0.48-1.93-0.48s-1.34,0.17-1.93,0.48c-0.58,0.31-1,0.79-1.34,1.33c-0.31,0.58-0.48,1.23-0.48,1.95
		c0,0.72,0.17,1.37,0.48,1.95c0.31,0.58,0.76,1.02,1.34,1.33c0.59,0.31,1.21,0.48,1.93,0.48S405.48,254.16,406.03,253.85z
		 M402.24,252.66v-0.31l0.07-0.03h0.21c0.07,0,0.14-0.03,0.17-0.07c0.07-0.07,0.07-0.1,0.07-0.17v-3.18c0-0.07-0.03-0.14-0.07-0.17
		c-0.07-0.07-0.1-0.07-0.17-0.07h-0.21l-0.07-0.03v-0.31l0.07-0.03h1.79c0.52,0,0.89,0.1,1.2,0.34c0.31,0.24,0.45,0.55,0.45,0.96
		c0,0.31-0.1,0.61-0.34,0.82c-0.24,0.24-0.52,0.38-0.86,0.41l0.41,0.14l0.79,1.26c0.07,0.1,0.14,0.14,0.24,0.14h0.2l0.03,0.03v0.31
		l-0.03,0.03h-1.06l-0.07-0.03l-1.1-1.84h-0.27v1.23c0,0.07,0.03,0.14,0.07,0.17c0.07,0.07,0.1,0.07,0.17,0.07h0.21l0.07,0.03v0.31
		l-0.07,0.03h-1.82L402.24,252.66z M404,250.4c0.28,0,0.52-0.07,0.66-0.24c0.14-0.14,0.24-0.38,0.24-0.65c0-0.27-0.07-0.48-0.2-0.65
		c-0.14-0.17-0.35-0.24-0.59-0.24h-0.14c-0.07,0-0.14,0.03-0.17,0.07c-0.07,0.07-0.07,0.1-0.07,0.17v1.54H404z"/>
	<path vector-effect="non-scaling-stroke" class="st24" d="M1.55,0h424.61c0.86,0,1.55,2.78,1.55,6.2v418.78
		c0,3.43-0.7,6.2-1.55,6.2H1.55c-0.86,0-1.55-2.78-1.55-6.2V6.2C0,2.78,0.7,0,1.55,0z"/>
	<path vector-effect="non-scaling-stroke" class="st25" d="M55.34,186.49c-3.74-4.44-6.96-8.95-7.62-9.88
		c-0.07-0.07-0.17-0.07-0.24,0c-0.66,0.94-3.88,5.44-7.62,9.88c-32.11,40.96,5.06,68.59,5.06,68.59l0.31,0.21
		c0.28,4.27,0.97,10.4,0.97,10.4h1.39h1.39c0,0,0.69-6.1,0.97-10.4l0.31-0.24C50.28,255.09,87.45,227.45,55.34,186.49z M47.58,254.5
		c0,0-1.66-1.42-2.11-2.15v-0.07l2.01-44.6c0-0.14,0.21-0.14,0.21,0l2.01,44.6v0.07C49.24,253.08,47.58,254.5,47.58,254.5z"/>
	<path vector-effect="non-scaling-stroke" class="st25" d="M117.06,245.08l-15.49-37.56l-0.03-0.1H89.48v2.52h1.94
		c0.59,0,1.15,0.24,1.56,0.66c0.42,0.42,0.63,0.97,0.63,1.56l-0.35,37.8c0,1.18-0.97,2.14-2.15,2.18l-1.98,0.03v2.49h11.74v-2.49
		l-1.22-0.03c-1.18-0.03-2.15-1-2.15-2.18v-35.62l16.88,40.33c0.24,0.59,0.8,0.97,1.42,0.97c0.63,0,1.18-0.38,1.42-0.97l16.5-39.43
		l0.24,34.72c0,1.21-0.97,2.18-2.19,2.21h-1.25v2.49h13.75v-2.49h-1.88c-1.18,0-2.15-1-2.19-2.18l-0.1-37.8
		c0-1.21,0.97-2.18,2.15-2.21l2.01-0.03v-2.52h-11.74L117.06,245.08z"/>
	<path vector-effect="non-scaling-stroke" class="st25" d="M224.95,251.51c-0.38-0.38-0.59-0.9-0.59-1.52v-18.52
		c0-3.52-1.04-6.29-3.13-8.26c-2.05-1.97-4.91-2.97-8.46-2.97c-4.98,0-8.91,2-11.66,5.94c-0.03,0.07-0.14,0.1-0.24,0.1
		c-0.1,0-0.17-0.07-0.17-0.17l-1.29-4.94h-2.16l-5.54,3.14v1.73h1.43c0.66,0,1.22,0.17,1.6,0.52c0.38,0.35,0.59,0.86,0.59,1.59v21.8
		c0,0.62-0.21,1.14-0.59,1.52c-0.38,0.38-0.91,0.59-1.53,0.59h-1.39v2.52h12.74v-2.52h-1.39c-0.63,0-1.15-0.21-1.53-0.59
		c-0.38-0.38-0.59-0.9-0.59-1.52v-14.44c0-1.83,0.42-3.66,1.18-5.46c0.8-1.76,1.98-3.25,3.55-4.39c1.57-1.14,3.45-1.69,5.61-1.69
		c2.44,0,4.28,0.76,5.43,2.28c1.15,1.52,1.74,3.49,1.74,5.84v17.83c0,0.62-0.21,1.14-0.59,1.52c-0.38,0.38-0.91,0.59-1.53,0.59
		h-1.39v2.52h12.74v-2.52h-1.39C225.86,252.09,225.37,251.89,224.95,251.51z"/>
	<path vector-effect="non-scaling-stroke" class="st25" d="M341.25,210.26c-3.52-1.88-7.46-2.85-11.71-2.85h-16.58v2.54h1.62
		c0.62,0,1.17,0.24,1.73,0.8c0.52,0.52,0.79,1.11,0.79,1.74v37.38c0,0.63-0.28,1.22-0.79,1.74c-0.52,0.52-1.11,0.8-1.73,0.8h-1.62
		v2.54h16.58c4.25,0,8.19-0.97,11.71-2.85c3.52-1.88,6.39-4.65,8.46-8.2c2.07-3.54,3.14-7.82,3.14-12.68c0-4.86-1.07-9.1-3.14-12.68
		C347.6,214.92,344.77,212.14,341.25,210.26z M346.18,231.14c0,4.45-0.79,8.2-2.35,11.22c-1.55,3.02-3.63,5.28-6.18,6.74
		c-2.56,1.46-5.39,2.19-8.43,2.19h-3.35c-0.62,0-1.17-0.24-1.73-0.8c-0.52-0.52-0.79-1.11-0.79-1.74V213.5
		c0-0.63,0.24-1.18,0.79-1.74c0.52-0.52,1.11-0.8,1.73-0.8h3.35c3.04,0,5.87,0.73,8.43,2.19c2.56,1.46,4.63,3.72,6.18,6.74
		C345.39,222.91,346.18,226.69,346.18,231.14z"/>
	<path vector-effect="non-scaling-stroke" class="st25" d="M391.98,233.68c-1.53-1.77-4.49-3.27-7.97-4.06
		c4.8-2.4,7.27-5.77,7.27-10.11c0-2.36-0.62-4.48-1.88-6.29c-1.25-1.81-3.03-3.27-5.29-4.27c-2.26-1.01-4.91-1.53-7.9-1.53h-18.76
		v2.54h1.5c0.63,0,1.18,0.24,1.74,0.8c0.52,0.52,0.8,1.11,0.8,1.74v37.38c0,0.63-0.28,1.22-0.8,1.74c-0.52,0.52-1.11,0.8-1.74,0.8
		h-1.64v2.54h20.37c3.1,0,5.99-0.52,8.6-1.56c2.61-1.04,4.7-2.57,6.2-4.59c1.53-2.01,2.3-4.48,2.3-7.33
		C394.73,238.4,393.83,235.8,391.98,233.68z M368.62,250.52c-0.52-0.52-0.8-1.11-0.8-1.74v-16.78h9.68c3.41,0,6.02,0.87,7.83,2.6
		c1.81,1.74,2.72,3.99,2.72,6.77c0,1.67-0.42,3.3-1.18,4.79c-0.8,1.53-1.99,2.74-3.59,3.68c-1.57,0.94-3.52,1.42-5.78,1.42h-7.14
		C369.74,251.32,369.18,251.04,368.62,250.52z M367.86,228.43v-14.9c0-0.63,0.24-1.18,0.8-1.74c0.52-0.52,1.11-0.8,1.74-0.8h4.6
		c3.31,0,5.74,0.83,7.28,2.43c1.53,1.63,2.3,3.72,2.3,6.29c0,2.64-0.73,4.76-2.16,6.36c-1.43,1.56-3.59,2.36-6.44,2.36H367.86z"/>
	<path vector-effect="non-scaling-stroke" class="st25" d="M176.49,222.46c-2.66-1.45-5.63-2.22-8.84-2.22s-6.22,0.73-8.84,2.22
		c-2.66,1.45-4.77,3.57-6.32,6.23c-1.55,2.67-2.35,5.78-2.35,9.24s0.79,6.58,2.35,9.24c1.55,2.67,3.66,4.78,6.32,6.23
		c2.66,1.45,5.63,2.22,8.84,2.22s6.22-0.73,8.84-2.22c2.66-1.45,4.77-3.57,6.32-6.23c1.55-2.67,2.35-5.78,2.35-9.24
		s-0.79-6.58-2.35-9.24C181.25,226.02,179.15,223.95,176.49,222.46z M179.04,237.93c0,4.26-1.04,7.72-3.11,10.21
		c-2.04,2.49-4.84,3.77-8.29,3.77c-3.45,0-6.25-1.28-8.29-3.77c-2.07-2.49-3.11-5.95-3.11-10.21s1.04-7.72,3.11-10.21
		c2.04-2.49,4.84-3.77,8.29-3.77c3.45,0,6.25,1.28,8.29,3.77C178.01,230.25,179.04,233.67,179.04,237.93z"/>
	<path vector-effect="non-scaling-stroke" class="st25" d="M298.79,222.46c-2.66-1.45-5.63-2.22-8.84-2.22s-6.22,0.73-8.84,2.22
		c-2.66,1.45-4.77,3.57-6.32,6.23s-2.35,5.78-2.35,9.24s0.79,6.58,2.35,9.24c1.55,2.67,3.66,4.78,6.32,6.23
		c2.66,1.45,5.63,2.22,8.84,2.22s6.22-0.73,8.84-2.22c2.66-1.45,4.77-3.57,6.32-6.23c1.55-2.67,2.35-5.78,2.35-9.24
		s-0.79-6.58-2.35-9.24C303.56,226.02,301.41,223.95,298.79,222.46z M301.34,237.93c0,4.26-1.04,7.72-3.11,10.21
		c-2.04,2.49-4.84,3.77-8.29,3.77c-3.45,0-6.25-1.28-8.29-3.77c-2.07-2.49-3.11-5.95-3.11-10.21c0-4.29,1.04-7.72,3.11-10.21
		c2.04-2.49,4.84-3.77,8.29-3.77c3.45,0,6.25,1.28,8.29,3.77C300.27,230.25,301.34,233.67,301.34,237.93z"/>
	<path vector-effect="non-scaling-stroke" class="st25" d="M249.45,220.23c-2.78,0-5.32,0.59-7.62,1.77
		c-2.3,1.18-4.11,2.78-5.39,4.83c-1.29,2.02-1.95,4.28-1.95,6.68c0,2.16,0.49,4.14,1.5,5.91c0.97,1.7,2.3,3.13,3.97,4.31l-4.98,6.75
		c-0.63,0.83-0.7,1.95-0.24,2.85c0.49,0.94,1.39,1.5,2.44,1.5h1.43c-1.39,0.94-2.51,2.05-3.27,3.37c-0.9,1.5-1.36,3.06-1.36,4.66
		c0,2.99,1.32,5.46,3.93,7.3c2.57,1.84,6.19,2.78,10.75,2.78c3.17,0,6.19-0.52,8.94-1.53c2.78-1.01,5.04-2.5,6.72-4.45
		c1.71-1.95,2.58-4.31,2.58-7.03c0-2.85-1.04-4.87-3.48-6.82c-2.09-1.63-5.36-2.5-9.43-2.5h-13.92c-0.03,0-0.07-0.04-0.07-0.04
		s-0.03-0.07,0-0.1l3.62-4.87c0.97,0.45,1.88,0.73,2.68,0.9c0.83,0.17,1.77,0.24,2.82,0.24c2.92,0,5.57-0.59,7.86-1.77
		c2.3-1.18,4.14-2.78,5.46-4.83c1.32-2.02,1.98-4.28,1.98-6.68c0-2.57-1.25-7.27-4.66-9.67c0-0.03,0.04-0.03,0.04-0.03l7.48,0.83
		v-3.44H255.3C253.42,220.55,251.47,220.23,249.45,220.23z M253.63,241.97c-1.32,0.7-2.75,1.08-4.18,1.08
		c-2.33,0-4.38-0.83-6.12-2.47c-1.74-1.63-2.61-4.03-2.61-7.09c0-3.06,0.87-5.46,2.61-7.09c1.74-1.63,3.79-2.47,6.12-2.47
		c1.46,0,2.85,0.35,4.18,1.08c1.32,0.7,2.4,1.77,3.27,3.2c0.83,1.43,1.29,3.2,1.29,5.29c0,2.12-0.42,3.89-1.29,5.29
		C256.07,240.2,254.95,241.27,253.63,241.97z M244.2,254.8h9.43c2.61,0,4.28,0.52,5.39,1.63c1.11,1.11,1.67,2.61,1.67,4.35
		c0,2.54-1.01,4.63-3.03,6.19c-2.02,1.56-4.73,2.36-8.07,2.36c-2.92,0-5.36-0.66-7.13-1.91c-1.77-1.25-2.68-3.16-2.68-5.6
		c0-1.53,0.42-2.96,1.25-4.21C241.87,256.37,242.88,255.46,244.2,254.8z"/>
	<path vector-effect="non-scaling-stroke" class="st25" d="M401.8,254.33c-0.69-0.38-1.2-0.92-1.62-1.57
		c-0.38-0.68-0.59-1.4-0.59-2.18s0.21-1.54,0.59-2.18c0.38-0.68,0.93-1.19,1.62-1.57c0.69-0.38,1.45-0.58,2.31-0.58
		c0.86,0,1.62,0.2,2.31,0.58c0.69,0.38,1.2,0.92,1.62,1.57c0.38,0.68,0.59,1.4,0.59,2.18s-0.21,1.54-0.59,2.18
		c-0.38,0.68-0.93,1.19-1.62,1.57c-0.69,0.38-1.45,0.58-2.31,0.58C403.28,254.91,402.49,254.71,401.8,254.33z M406.03,253.82
		c0.58-0.31,1-0.78,1.34-1.33c0.31-0.58,0.48-1.23,0.48-1.95c0-0.72-0.17-1.37-0.48-1.95c-0.31-0.58-0.76-1.02-1.34-1.33
		c-0.59-0.31-1.21-0.48-1.93-0.48s-1.34,0.17-1.93,0.48c-0.58,0.31-1,0.79-1.34,1.33c-0.31,0.58-0.48,1.23-0.48,1.95
		c0,0.72,0.17,1.37,0.48,1.95c0.31,0.58,0.76,1.02,1.34,1.33c0.59,0.31,1.21,0.48,1.93,0.48S405.48,254.13,406.03,253.82z
		 M402.24,252.62v-0.31l0.07-0.03h0.21c0.07,0,0.14-0.03,0.17-0.07c0.07-0.07,0.07-0.1,0.07-0.17v-3.17c0-0.07-0.03-0.14-0.07-0.17
		c-0.07-0.07-0.1-0.07-0.17-0.07h-0.21l-0.07-0.03v-0.31l0.07-0.03h1.79c0.52,0,0.89,0.1,1.2,0.34c0.31,0.24,0.45,0.55,0.45,0.96
		c0,0.31-0.1,0.61-0.34,0.82c-0.24,0.24-0.52,0.38-0.86,0.41l0.41,0.14l0.79,1.26c0.07,0.1,0.14,0.14,0.24,0.14h0.2l0.03,0.03v0.31
		l-0.03,0.03h-1.06l-0.07-0.03l-1.1-1.84h-0.27v1.23c0,0.07,0.03,0.14,0.07,0.17c0.07,0.07,0.1,0.07,0.17,0.07h0.21l0.07,0.03v0.31
		l-0.07,0.03h-1.82L402.24,252.62z M404,250.4c0.28,0,0.52-0.07,0.66-0.24c0.14-0.14,0.24-0.38,0.24-0.65c0-0.27-0.07-0.48-0.2-0.65
		c-0.14-0.17-0.35-0.24-0.59-0.24h-0.14c-0.07,0-0.14,0.03-0.17,0.07c-0.07,0.07-0.07,0.1-0.07,0.17v1.54H404z"/>
</g>
<g id="NextJs" class="st0">
	<circle class="st9" cx="210" cy="210" r="196.94"/>
	
		<linearGradient id="SVGID_1_" gradientUnits="userSpaceOnUse" x1="217.0672" y1="126.1713" x2="294.7477" y2="29.8917" gradientTransform="matrix(1 0 0 -1 0 422)">
		<stop  offset="0" style="stop-color:#FFFFFF"/>
		<stop  offset="1" style="stop-color:#FFFFFF;stop-opacity:0"/>
	</linearGradient>
	<path class="st26" d="M340.21,357.75L164.36,131.23h-33.13v157.48h26.51V164.89l161.67,208.89
		C326.7,368.89,333.65,363.53,340.21,357.75z"/>
	
		<linearGradient id="SVGID_00000096042554920952454410000010229841678106978475_" gradientUnits="userSpaceOnUse" x1="278.134" y1="290.8232" x2="277.6944" y2="175.1227" gradientTransform="matrix(1 0 0 -1 0 422)">
		<stop  offset="0" style="stop-color:#FFFFFF"/>
		<stop  offset="1" style="stop-color:#FFFFFF;stop-opacity:0"/>
	</linearGradient>
	
		<rect x="264.71" y="131.23" style="display:inline;fill:url(#SVGID_00000096042554920952454410000010229841678106978475_);" width="26.26" height="157.55"/>
</g>
<g id="NodeJs" class="st0">
	<g class="st17">
		<defs>
			
				<rect id="SVGID_00000004525482779156173620000003546367999085669512_" x="-28.89" y="-6.27" transform="matrix(1 -7.006204e-03 7.006204e-03 1 -1.4853 1.4288)" width="464.16" height="437.97"/>
		</defs>
		<clipPath id="SVGID_00000169545947791537822690000003963993007870675106_">
			<use xlink:href="#SVGID_00000004525482779156173620000003546367999085669512_"  style="overflow:visible;"/>
		</clipPath>
		
			<path vector-effect="non-scaling-stroke" style="clip-path:url(#SVGID_00000169545947791537822690000003963993007870675106_);fill:#10182B;" d="
			M-13.69-4.76L417-7.77c9.24-0.06,16.89,23.65,17.1,52.97l2.32,331.79c0.21,29.32-7.12,53.14-16.35,53.2l-430.69,3.02
			c-9.24,0.06-16.89-23.65-17.1-52.97l-2.32-331.79C-30.25,19.13-22.93-4.69-13.69-4.76z"/>
	</g>
	<g class="st17">
		<defs>
			<rect id="SVGID_00000163039906932770327500000017922144986173685899_" x="75.7" y="168.75" width="269.97" height="80.26"/>
		</defs>
		<clipPath id="SVGID_00000180351044693619010310000005843468822824293517_">
			<use xlink:href="#SVGID_00000163039906932770327500000017922144986173685899_"  style="overflow:visible;"/>
		</clipPath>
		
			<path vector-effect="non-scaling-stroke" style="clip-path:url(#SVGID_00000180351044693619010310000005843468822824293517_);fill:#60A04E;" d="
			M313.29,248.38c-0.7,0-1.35-0.19-1.95-0.52l-6.19-3.7c-0.93-0.52-0.47-0.7-0.19-0.8c1.26-0.42,1.49-0.52,2.79-1.26
			c0.14-0.09,0.33-0.05,0.47,0.05l4.75,2.86c0.19,0.09,0.42,0.09,0.56,0l18.57-10.82c0.18-0.09,0.28-0.28,0.28-0.51v-21.59
			c0-0.23-0.09-0.42-0.28-0.51l-18.57-10.77c-0.19-0.09-0.42-0.09-0.56,0l-18.57,10.77c-0.19,0.09-0.28,0.33-0.28,0.51v21.59
			c0,0.19,0.09,0.42,0.28,0.51l5.07,2.95c2.75,1.4,4.47-0.23,4.47-1.87v-21.3c0-0.28,0.23-0.56,0.56-0.56h2.37
			c0.28,0,0.56,0.23,0.56,0.56v21.3c0,3.7-2,5.85-5.49,5.85c-1.07,0-1.91,0-4.28-1.17l-4.89-2.81c-1.21-0.7-1.95-2.01-1.95-3.42
			v-21.58c0-1.4,0.74-2.72,1.95-3.42l18.57-10.82c1.16-0.66,2.75-0.66,3.91,0l18.57,10.82c1.21,0.7,1.95,2.01,1.95,3.42v21.58
			c0,1.4-0.74,2.72-1.95,3.42l-18.57,10.82C314.69,248.19,313.99,248.38,313.29,248.38z"/>
	</g>
	<g class="st17">
		<defs>
			<rect id="SVGID_00000019676467431073223880000014086279754496748171_" x="75.7" y="168.75" width="269.97" height="80.26"/>
		</defs>
		<clipPath id="SVGID_00000075132188959826705240000011915569441177385912_">
			<use xlink:href="#SVGID_00000019676467431073223880000014086279754496748171_"  style="overflow:visible;"/>
		</clipPath>
		
			<path vector-effect="non-scaling-stroke" style="clip-path:url(#SVGID_00000075132188959826705240000011915569441177385912_);fill:#60A04E;" d="
			M319.06,233.54c-8.14,0-9.82-3.75-9.82-6.93c0-0.28,0.23-0.56,0.56-0.56h2.42c0.28,0,0.51,0.19,0.51,0.47
			c0.37,2.48,1.44,3.7,6.38,3.7c3.91,0,5.58-0.89,5.58-3c0-1.22-0.47-2.11-6.56-2.72c-5.07-0.52-8.24-1.64-8.24-5.71
			c0-3.79,3.16-6.04,8.47-6.04c5.96,0,8.89,2.06,9.26,6.56c0,0.14-0.05,0.28-0.14,0.42c-0.09,0.09-0.23,0.19-0.37,0.19h-2.47
			c-0.23,0-0.46-0.19-0.51-0.42c-0.56-2.58-2-3.42-5.82-3.42c-4.28,0-4.79,1.5-4.79,2.62c0,1.36,0.6,1.78,6.38,2.53
			c5.72,0.75,8.42,1.83,8.42,5.85C328.32,231.2,324.92,233.54,319.06,233.54z"/>
	</g>
	<g class="st17">
		<defs>
			<rect id="SVGID_00000041259885421517888430000011864615229902184844_" x="75.7" y="168.75" width="269.97" height="80.26"/>
		</defs>
		<clipPath id="SVGID_00000044158091181787186420000007355938525943584385_">
			<use xlink:href="#SVGID_00000041259885421517888430000011864615229902184844_"  style="overflow:visible;"/>
		</clipPath>
		
			<path vector-effect="non-scaling-stroke" style="clip-path:url(#SVGID_00000044158091181787186420000007355938525943584385_);fill:#60A04E;" d="
			M345.87,210.88c0,1.97-1.63,3.61-3.58,3.61c-1.95,0-3.58-1.59-3.58-3.61c0-2.06,1.68-3.61,3.58-3.61
			C344.19,207.27,345.87,208.86,345.87,210.88z M339.26,210.88c0,1.69,1.35,3.04,2.98,3.04c1.68,0,3.03-1.4,3.03-3.04
			c0-1.69-1.35-3-3.03-3C340.65,207.88,339.26,209.19,339.26,210.88z M340.93,208.86h1.4c0.46,0,1.4,0,1.4,1.08
			c0,0.75-0.47,0.89-0.75,0.98c0.56,0.05,0.61,0.42,0.65,0.94c0.05,0.33,0.09,0.89,0.19,1.08h-0.84c0-0.19-0.14-1.22-0.14-1.26
			c-0.05-0.23-0.14-0.33-0.42-0.33h-0.7v1.64h-0.79V208.86z M341.68,210.64h0.6c0.51,0,0.61-0.37,0.61-0.56
			c0-0.56-0.37-0.56-0.61-0.56h-0.65v1.12H341.68z"/>
	</g>
	<g class="st17">
		<defs>
			<rect id="SVGID_00000016767610874251917470000011322751691656339356_" x="75.7" y="168.75" width="269.97" height="80.26"/>
		</defs>
		<clipPath id="SVGID_00000030446914492824340160000007282609321819991446_">
			<use xlink:href="#SVGID_00000016767610874251917470000011322751691656339356_"  style="overflow:visible;"/>
		</clipPath>
		
			<path vector-effect="non-scaling-stroke" style="clip-path:url(#SVGID_00000030446914492824340160000007282609321819991446_);fill-rule:evenodd;clip-rule:evenodd;fill:#FFFFFF;" d="
			M119.86,211.17c0-0.84-0.47-1.64-1.21-2.06l-19.68-11.47c-0.33-0.19-0.7-0.28-1.07-0.33c-0.05,0-0.19,0-0.19,0
			c-0.37,0-0.74,0.14-1.07,0.33l-19.73,11.42c-0.74,0.42-1.21,1.22-1.21,2.11l0.05,30.72c0,0.42,0.23,0.84,0.6,1.03
			c0.37,0.23,0.84,0.23,1.16,0l11.73-6.74c0.74-0.42,1.21-1.22,1.21-2.06v-14.37c0-0.84,0.47-1.64,1.21-2.06l4.98-2.9
			c0.37-0.23,0.79-0.33,1.21-0.33c0.42,0,0.84,0.09,1.16,0.33l4.98,2.9c0.74,0.42,1.21,1.22,1.21,2.06v14.37
			c0,0.84,0.47,1.64,1.21,2.06l11.63,6.74c0.37,0.23,0.84,0.23,1.21,0c0.37-0.19,0.6-0.61,0.6-1.03V211.17z"/>
	</g>
	<g class="st17">
		<defs>
			<rect id="SVGID_00000129169658551070352620000011649252173608262076_" x="75.7" y="168.75" width="269.97" height="80.26"/>
		</defs>
		<clipPath id="SVGID_00000002370163672877830820000014509892436327497600_">
			<use xlink:href="#SVGID_00000129169658551070352620000011649252173608262076_"  style="overflow:visible;"/>
		</clipPath>
		
			<path vector-effect="non-scaling-stroke" style="clip-path:url(#SVGID_00000002370163672877830820000014509892436327497600_);fill-rule:evenodd;clip-rule:evenodd;fill:#FFFFFF;" d="
			M214.69,168.89c-0.37-0.19-0.84-0.19-1.16,0c-0.37,0.23-0.6,0.61-0.6,1.03v30.43c0,0.28-0.14,0.56-0.42,0.75
			c-0.28,0.14-0.56,0.14-0.84,0l-4.93-2.86c-0.74-0.42-1.63-0.42-2.37,0l-19.73,11.47c-0.74,0.42-1.21,1.22-1.21,2.06v22.9
			c0,0.84,0.47,1.64,1.21,2.06l19.73,11.47c0.74,0.42,1.63,0.42,2.37,0l19.73-11.47c0.74-0.42,1.21-1.22,1.21-2.06V177.6
			c0-0.89-0.47-1.69-1.21-2.11L214.69,168.89z M212.87,227.14c0,0.23-0.09,0.42-0.28,0.51l-6.75,3.93c-0.19,0.09-0.42,0.09-0.6,0
			l-6.75-3.93c-0.19-0.09-0.28-0.33-0.28-0.51v-7.87c0-0.23,0.09-0.42,0.28-0.52l6.75-3.93c0.19-0.09,0.42-0.09,0.6,0l6.75,3.93
			c0.19,0.09,0.28,0.33,0.28,0.52V227.14z"/>
	</g>
	<g class="st17">
		<defs>
			<rect id="SVGID_00000094587764378355343650000010360966419474231177_" x="75.7" y="168.75" width="269.97" height="80.26"/>
		</defs>
		<clipPath id="SVGID_00000168103605478200525810000018230789466021372326_">
			<use xlink:href="#SVGID_00000094587764378355343650000010360966419474231177_"  style="overflow:visible;"/>
		</clipPath>
		
			<path vector-effect="non-scaling-stroke" style="clip-path:url(#SVGID_00000168103605478200525810000018230789466021372326_);fill-rule:evenodd;clip-rule:evenodd;fill:#FFFFFF;" d="
			M280.35,219.08c0.74-0.42,1.16-1.22,1.16-2.06v-5.57c0-0.84-0.47-1.64-1.16-2.06l-19.59-11.42c-0.74-0.42-1.63-0.42-2.37,0
			l-19.73,11.47c-0.74,0.42-1.21,1.22-1.21,2.06v22.9c0,0.84,0.47,1.64,1.21,2.06l19.59,11.24c0.74,0.42,1.63,0.42,2.33,0
			l11.87-6.65c0.37-0.19,0.61-0.61,0.61-1.03c0-0.42-0.23-0.84-0.61-1.03l-19.82-11.47c-0.37-0.23-0.6-0.61-0.6-1.03v-7.16
			c0-0.42,0.23-0.84,0.6-1.03l6.19-3.56c0.37-0.23,0.84-0.23,1.21,0l6.19,3.56c0.37,0.23,0.6,0.61,0.6,1.03v5.62
			c0,0.42,0.23,0.84,0.61,1.03c0.37,0.23,0.84,0.23,1.21,0L280.35,219.08z"/>
	</g>
	<g class="st17">
		<defs>
			<rect id="SVGID_00000013890515409340626870000011167283736350647959_" x="75.7" y="168.75" width="269.97" height="80.26"/>
		</defs>
		<clipPath id="SVGID_00000034787703561518327630000016400019091628427195_">
			<use xlink:href="#SVGID_00000013890515409340626870000011167283736350647959_"  style="overflow:visible;"/>
		</clipPath>
		
			<path vector-effect="non-scaling-stroke" style="clip-path:url(#SVGID_00000034787703561518327630000016400019091628427195_);fill-rule:evenodd;clip-rule:evenodd;fill:#60A04E;" d="
			M259.27,218.01c0.14-0.09,0.33-0.09,0.47,0l3.77,2.2c0.14,0.09,0.23,0.23,0.23,0.42v4.4c0,0.19-0.09,0.33-0.23,0.42l-3.77,2.2
			c-0.14,0.09-0.33,0.09-0.47,0l-3.77-2.2c-0.14-0.09-0.23-0.23-0.23-0.42v-4.4c0-0.19,0.09-0.33,0.23-0.42L259.27,218.01z"/>
	</g>
	<g class="st17">
		<defs>
			<rect id="SVGID_00000022562395437005312240000017397870689339850163_" x="75.7" y="168.75" width="269.97" height="80.26"/>
		</defs>
		<clipPath id="SVGID_00000044879536010918684730000006487252164388385214_">
			<use xlink:href="#SVGID_00000022562395437005312240000017397870689339850163_"  style="overflow:visible;"/>
		</clipPath>
		
			<linearGradient id="SVGID_00000101823419994347915120000013894799084927092899_" gradientUnits="userSpaceOnUse" x1="-324.7466" y1="738.9277" x2="-342.637" y2="702.6572" gradientTransform="matrix(1 0 0 -1 484.46 945.5)">
			<stop  offset="0" style="stop-color:#418840"/>
			<stop  offset="0.3296" style="stop-color:#418C41"/>
			<stop  offset="0.6367" style="stop-color:#3F9645"/>
			<stop  offset="0.9341" style="stop-color:#3FA948"/>
			<stop  offset="1" style="stop-color:#3DAF49"/>
		</linearGradient>
		
			<path vector-effect="non-scaling-stroke" style="clip-path:url(#SVGID_00000044879536010918684730000006487252164388385214_);fill:url(#SVGID_00000101823419994347915120000013894799084927092899_);" d="
			M152.85,198.06c-0.74-0.42-1.63-0.42-2.37,0l-19.59,11.38c-0.74,0.42-1.16,1.22-1.16,2.06v22.8c0,0.84,0.47,1.64,1.16,2.06
			l19.59,11.38c0.74,0.42,1.63,0.42,2.37,0l19.59-11.38c0.74-0.42,1.16-1.22,1.16-2.06v-22.8c0-0.84-0.47-1.64-1.16-2.06
			L152.85,198.06z"/>
	</g>
	<g class="st17">
		<defs>
			<rect id="SVGID_00000051355833076983817110000018112085456214538428_" x="75.7" y="168.75" width="269.97" height="80.26"/>
		</defs>
		<clipPath id="SVGID_00000139271200796396808300000001750200431678417792_">
			<use xlink:href="#SVGID_00000051355833076983817110000018112085456214538428_"  style="overflow:visible;"/>
		</clipPath>
		
			<linearGradient id="SVGID_00000149353330762080225050000011182217835811842493_" gradientUnits="userSpaceOnUse" x1="-335.8008" y1="719.969" x2="-285.8834" y2="756.6226" gradientTransform="matrix(1 0 0 -1 484.46 945.5)">
			<stop  offset="0.1376" style="stop-color:#418840"/>
			<stop  offset="0.4016" style="stop-color:#52A045"/>
			<stop  offset="0.7129" style="stop-color:#65B748"/>
			<stop  offset="0.9081" style="stop-color:#6DBE4C"/>
		</linearGradient>
		
			<path vector-effect="non-scaling-stroke" style="clip-path:url(#SVGID_00000139271200796396808300000001750200431678417792_);fill:url(#SVGID_00000149353330762080225050000011182217835811842493_);" d="
			M172.48,209.44l-19.68-11.38c-0.19-0.09-0.42-0.19-0.6-0.23l-22.06,37.97c0.19,0.23,0.42,0.42,0.65,0.56l19.68,11.38
			c0.56,0.33,1.21,0.42,1.81,0.23L173,209.86C172.86,209.67,172.67,209.53,172.48,209.44z"/>
	</g>
	<g class="st17">
		<defs>
			<rect id="SVGID_00000045619636369687174480000005913648053022233270_" x="75.7" y="168.75" width="269.97" height="80.26"/>
		</defs>
		<clipPath id="SVGID_00000050626016459012921010000007579853444688537014_">
			<use xlink:href="#SVGID_00000045619636369687174480000005913648053022233270_"  style="overflow:visible;"/>
		</clipPath>
		
			<linearGradient id="SVGID_00000026157182563904460250000003749927650780340370_" gradientUnits="userSpaceOnUse" x1="-355.4582" y1="722.5983" x2="-310.1276" y2="722.5983" gradientTransform="matrix(1 0 0 -1 484.46 945.5)">
			<stop  offset="0.0919" style="stop-color:#6DBE4C"/>
			<stop  offset="0.2871" style="stop-color:#65B748"/>
			<stop  offset="0.5984" style="stop-color:#52A045"/>
			<stop  offset="0.8624" style="stop-color:#418840"/>
		</linearGradient>
		
			<path vector-effect="non-scaling-stroke" style="clip-path:url(#SVGID_00000050626016459012921010000007579853444688537014_);fill:url(#SVGID_00000026157182563904460250000003749927650780340370_);" d="
			M172.48,236.36c0.56-0.33,0.98-0.89,1.16-1.5l-21.54-37.08c-0.56-0.09-1.16-0.05-1.68,0.28l-19.54,11.33l21.08,38.68
			c0.28-0.05,0.61-0.14,0.88-0.28L172.48,236.36z"/>
	</g>
</g>
<g id="Playwright" class="st0">
	<g class="st17">
		<path class="st39" d="M141.96,229.4c-14.91,4.23-24.69,11.65-31.13,19.06c6.17-5.4,14.44-10.36,25.59-13.52
			c11.4-3.23,21.13-3.21,29.17-1.66V227C158.73,226.37,150.87,226.87,141.96,229.4z M110.15,176.56l-55.36,14.59
			c0,0,1.01,1.43,2.88,3.33l46.94-12.37c0,0-0.67,8.57-6.44,16.24C109.09,190.07,110.15,176.56,110.15,176.56z M156.49,306.66
			C78.58,327.65,37.36,237.36,24.88,190.5c-5.77-21.63-8.28-38.01-8.95-48.59c-0.07-1.1-0.04-2.02,0.04-2.87
			c-4.04,0.24-5.98,2.34-5.58,8.42c0.67,10.57,3.19,26.95,8.95,48.59c12.47,46.86,53.7,137.14,131.61,116.16
			c16.96-4.57,29.7-12.89,39.26-23.51C181.39,296.65,170.36,302.92,156.49,306.66z M171.13,121.3v5.54h30.56
			c-0.63-1.96-1.26-3.73-1.89-5.54H171.13z"/>
		<path class="st39" d="M208.52,166.96c13.74,3.9,21.01,13.54,24.85,22.07l15.32,4.35c0,0-2.09-29.84-29.08-37.51
			c-25.25-7.17-40.79,14.03-42.68,16.78C184.28,167.41,195,163.13,208.52,166.96z M330.5,189.17
			c-25.28-7.21-40.81,14.04-42.67,16.75c7.35-5.23,18.07-9.51,31.58-5.66c13.72,3.91,20.98,13.53,24.84,22.07l15.35,4.37
			C359.59,226.69,357.47,196.84,330.5,189.17z M315.27,267.85L187.8,232.22c0,0,1.38,7,6.67,16.06l107.32,30
			C310.64,273.16,315.27,267.85,315.27,267.85z M226.9,344.56c-100.93-27.06-88.73-155.66-72.4-216.6
			c6.72-25.11,13.64-43.78,19.37-56.29c-3.42-0.7-6.25,1.1-9.05,6.79c-6.09,12.35-13.87,32.45-21.4,60.59
			c-16.33,60.94-28.53,189.53,72.4,216.59c47.57,12.74,84.63-6.63,112.26-37.04C301.84,342.34,268.36,355.66,226.9,344.56z"/>
		<path class="st40" d="M171.13,276.53v-25.95l-72.1,20.45c0,0,5.33-30.96,42.93-41.62c11.4-3.23,21.13-3.21,29.17-1.66V121.3h36.1
			c-3.93-12.15-7.73-21.5-10.93-28c-5.28-10.75-10.7-3.63-23,6.66c-8.66,7.23-30.55,22.67-63.48,31.54
			c-32.94,8.88-59.56,6.53-70.67,4.6c-15.75-2.72-23.99-6.18-23.22,5.8c0.67,10.57,3.19,26.95,8.95,48.59
			c12.47,46.86,53.7,137.14,131.61,116.16c20.35-5.48,34.72-16.32,44.67-30.14L171.13,276.53L171.13,276.53z M54.78,191.14
			l55.37-14.59c0,0-1.61,21.3-22.37,26.77C67.02,208.79,54.78,191.14,54.78,191.14z"/>
		<path class="st41" d="M379.5,122.53c-14.39,2.52-48.92,5.67-91.59-5.77c-42.68-11.43-71-31.42-82.22-40.82
			c-15.91-13.32-22.9-22.58-29.79-8.58c-6.09,12.35-13.87,32.45-21.41,60.59c-16.33,60.94-28.53,189.53,72.4,216.59
			c100.9,27.04,154.62-90.44,170.95-151.38c7.53-28.14,10.84-49.44,11.75-63.18C410.63,114.43,399.94,118.95,379.5,122.53z
			 M176.72,172.95c0,0,15.91-24.74,42.88-17.07c26.99,7.67,29.08,37.51,29.08,37.51L176.72,172.95z M242.57,283.95
			c-47.45-13.9-54.77-51.74-54.77-51.74l127.46,35.64C315.27,267.85,289.54,297.68,242.57,283.95z M287.64,206.19
			c0,0,15.88-24.72,42.85-17.03c26.97,7.68,29.09,37.52,29.09,37.52L287.64,206.19z"/>
		<path class="st42" d="M145.93,257.72l-46.91,13.29c0,0,5.1-29.03,39.65-40.53l-26.56-99.68l-2.3,0.7
			c-32.94,8.88-59.56,6.53-70.67,4.6c-15.75-2.72-23.99-6.18-23.22,5.8c0.67,10.57,3.19,26.95,8.95,48.59
			c12.47,46.86,53.7,137.14,131.61,116.16l2.3-0.72L145.93,257.72z M54.78,191.14l55.37-14.59c0,0-1.61,21.3-22.37,26.77
			C67.02,208.79,54.78,191.14,54.78,191.14z"/>
		<path class="st43" d="M244.71,284.47l-2.15-0.52c-47.45-13.9-54.77-51.74-54.77-51.74l65.73,18.37l34.8-133.72l-0.42-0.11
			c-42.68-11.43-71-31.42-82.22-40.82c-15.91-13.32-22.9-22.58-29.79-8.58c-6.08,12.35-13.87,32.45-21.4,60.59
			c-16.33,60.94-28.53,189.53,72.4,216.59l2.07,0.47L244.71,284.47z M176.72,172.95c0,0,15.91-24.74,42.88-17.07
			c26.99,7.67,29.08,37.51,29.08,37.51L176.72,172.95z"/>
		<path class="st44" d="M148.32,257.04l-12.58,3.57c2.97,16.75,8.21,32.83,16.43,47.03c1.43-0.32,2.85-0.59,4.31-0.99
			c3.82-1.03,7.36-2.31,10.77-3.7C158.07,289.33,151.99,273.63,148.32,257.04z M143.41,139.05c-6.46,24.13-12.25,58.85-10.66,93.69
			c2.85-1.24,5.86-2.39,9.2-3.34l2.33-0.52c-2.84-37.21,3.3-75.12,10.21-100.92c1.75-6.53,3.51-12.6,5.26-18.26
			c-2.82,1.8-5.86,3.64-9.32,5.53C148.11,122.44,145.75,130.31,143.41,139.05z"/>
	</g>
</g>
<g id="PNPM" class="st0">
	<g class="st17">
		<g>
			<g>
				<path id="b2JZZcA3fT" class="st14" d="M40.58,40.58h338.85v338.85H40.58V40.58z"/>
			</g>
		</g>
		<g>
			<g>
				<path id="bj0tb0Y8q" class="st45" d="M360.62,153.53h-94.12V59.4h94.12V153.53z"/>
			</g>
		</g>
		<g>
			<g>
				<path id="dkDSTzPj3" class="st45" d="M257.06,153.53h-94.12V59.4h94.12V153.53z"/>
			</g>
		</g>
		<g>
			<g>
				<path id="a4vNdcNLpF" class="st45" d="M153.53,153.53H59.4V59.4h94.12V153.53z"/>
			</g>
		</g>
		<g>
			<g>
				<path id="h2t4Zj1jSU" class="st45" d="M360.62,257.06h-94.12v-94.12h94.12V257.06z"/>
			</g>
		</g>
		<g>
			<g>
				<path id="b4t5pngwvT" class="st46" d="M257.06,257.06h-94.12v-94.12h94.12V257.06z"/>
			</g>
		</g>
		<g>
			<g>
				<path id="b9s1gd5m2" class="st46" d="M257.06,360.6h-94.12v-94.12h94.12V360.6z"/>
			</g>
		</g>
		<g>
			<g>
				<path id="cmt9WLvz7" class="st46" d="M360.62,360.6h-94.12v-94.12h94.12V360.6z"/>
			</g>
		</g>
		<g>
			<g>
				<path id="bJUNqgFSg" class="st46" d="M153.53,360.6H59.4v-94.12h94.12V360.6z"/>
			</g>
		</g>
	</g>
</g>
<g id="NPM" class="st0">
	<path class="st47" d="M9.26,131.94h401.47v133.82H210v22.3h-89.22v-22.3H9.26V131.94z M31.57,243.46h44.61v-66.91h22.3v66.91h22.3
		v-89.22H31.57V243.46z M143.09,154.24v111.52h44.61v-22.3h44.61v-89.22H143.09z M187.7,176.54H210v44.61h-22.3V176.54z
		 M254.61,154.24v89.22h44.61v-66.91h22.3v66.91h22.3v-66.91h22.3v66.91h22.3v-89.22H254.61z"/>
	<polygon class="st8" points="31.57,243.46 76.18,243.46 76.18,176.54 98.48,176.54 98.48,243.46 120.78,243.46 120.78,154.24 
		31.57,154.24 	"/>
	<path class="st8" d="M143.09,154.24v111.52h44.61v-22.3h44.61v-89.22H143.09z M210,221.15h-22.3v-44.61H210V221.15z"/>
	<polygon class="st8" points="254.61,154.24 254.61,243.46 299.22,243.46 299.22,176.54 321.52,176.54 321.52,243.46 343.82,243.46 
		343.82,176.54 366.13,176.54 366.13,243.46 388.43,243.46 388.43,154.24 	"/>
</g>
<g id="Yarn" class="st0">
	<path class="st48" d="M210,38.23c94.84,0,171.77,76.93,171.77,171.77S304.84,381.77,210,381.77S38.23,304.84,38.23,210
		S115.16,38.23,210,38.23z"/>
	<path class="st8" d="M326.85,262.06c-1.19-9.42-9.15-15.92-19.37-15.78c-15.25,0.2-28.05,8.09-36.54,13.33
		c-3.32,2.06-6.17,3.58-8.62,4.71c0.53-7.69,0.07-17.77-3.91-28.85c-4.84-13.26-11.34-21.42-15.98-26.13
		c5.37-7.83,12.73-19.23,16.18-36.87c2.98-15.05,2.06-38.46-4.77-51.6c-1.39-2.65-3.71-4.58-6.63-5.37
		c-1.19-0.33-3.45-0.99-7.89,0.27c-6.7-13.86-9.02-15.32-10.81-16.51c-3.71-2.39-8.09-2.92-12.2-1.39
		c-5.5,1.99-10.21,7.3-14.66,16.71c-0.66,1.39-1.26,2.72-1.79,4.05c-8.42,0.6-21.69,3.65-32.89,15.78
		c-1.39,1.53-4.11,2.65-6.96,3.71h0.07c-5.84,2.06-8.49,6.83-11.74,15.45c-4.51,12.07,0.13,23.94,4.71,31.63
		c-6.23,5.57-14.52,14.46-18.9,24.87c-5.44,12.87-6.04,25.47-5.84,32.3c-4.64,4.91-11.8,14.13-12.6,24.47
		c-1.06,14.46,4.18,24.27,6.5,27.85c0.66,1.06,1.39,1.92,2.19,2.79c-0.27,1.79-0.33,3.71,0.07,5.7c0.86,4.64,3.78,8.42,8.22,10.81
		c8.75,4.64,20.96,6.63,30.37,1.92c3.38,3.58,9.55,7.03,20.76,7.03h0.66c2.85,0,39.06-1.92,49.61-4.51
		c4.71-1.13,7.96-3.12,10.08-4.91c6.76-2.12,25.47-8.49,43.11-19.9c12.47-8.09,16.78-9.82,26.06-12.07
		C322.34,279.37,327.98,271.15,326.85,262.06L326.85,262.06z M311.07,271.81c-10.61,2.52-15.98,4.84-29.11,13.4
		c-20.49,13.26-42.91,19.43-42.91,19.43s-1.86,2.79-7.23,4.05c-9.28,2.25-44.23,4.18-47.42,4.24c-8.56,0.07-13.79-2.19-15.25-5.7
		c-4.44-10.61,6.37-15.25,6.37-15.25s-2.39-1.46-3.78-2.79c-1.26-1.26-2.59-3.78-2.98-2.85c-1.66,4.05-2.52,13.93-6.96,18.37
		c-6.1,6.17-17.64,4.11-24.47,0.53c-7.49-3.98,0.53-13.33,0.53-13.33s-4.05,2.39-7.3-2.52c-2.92-4.51-5.64-12.2-4.91-21.69
		c0.8-10.81,12.87-21.29,12.87-21.29s-2.12-15.98,4.84-32.36c6.3-14.92,23.28-26.93,23.28-26.93s-14.26-15.78-8.95-29.98
		c3.45-9.28,4.84-9.22,5.97-9.62c3.98-1.53,7.83-3.18,10.68-6.3c14.26-15.39,32.43-12.47,32.43-12.47s8.62-26.2,16.58-21.09
		c2.45,1.59,11.27,21.22,11.27,21.22s9.42-5.5,10.48-3.45c5.7,11.08,6.37,32.23,3.85,45.1c-4.24,21.22-14.86,32.63-19.1,39.79
		c-0.99,1.66,11.41,6.9,19.23,28.58c7.23,19.83,0.8,36.48,1.92,38.33c0.2,0.33,0.27,0.46,0.27,0.46s8.29,0.66,24.94-9.62
		c8.89-5.5,19.43-11.67,31.44-11.8C319.23,256.09,319.82,269.69,311.07,271.81L311.07,271.81z"/>
</g>
<g id="React" class="st0">
	<circle class="st49" cx="210" cy="210" r="33.94"/>
	<g class="st17">
		<ellipse class="st50" cx="210" cy="210" rx="182.11" ry="69.53"/>
		<ellipse transform="matrix(0.866 -0.5 0.5 0.866 -76.8653 133.1347)" class="st50" cx="210" cy="210" rx="69.53" ry="182.11"/>
		<ellipse transform="matrix(0.5 -0.866 0.866 0.5 -76.8653 286.8653)" class="st50" cx="210" cy="210" rx="182.11" ry="69.53"/>
	</g>
</g>
<g id="RestAPI" class="st0">
	<rect x="37.43" y="40.37" class="st51" width="339.27" height="339.27"/>
	<g transform="matrix(0.97 0 0 0.97 12 12)" class="st17">
		<path class="st14" d="M169.43,62.76c-6.77,0-12.56,4.79-13.86,11.43l-4.72,24.24c-11.7,4.41-22.38,10.55-31.72,18.22l-23.25-8.01
			c-6.4-2.21-13.45,0.46-16.84,6.32l-21.34,36.94c-3.38,5.87-2.15,13.31,2.95,17.75l18.64,16.21c-1.09,6.66-1.6,12.62-1.6,18.25
			c0,5.58,0.53,11.56,1.6,18.28l-18.64,16.21c-5.1,4.44-6.33,11.89-2.95,17.75l21.34,36.94c3.38,5.85,10.44,8.5,16.84,6.3
			l23.25-8.01c9.37,7.69,20.03,13.84,31.72,18.25c0,0,0.68,7.4,4.2,21.54c3.51,14.14,14.74,14.14,14.74,14.14h6.07l23.77-78.85
			c3.6-11.96,14.59-20.13,27.06-20.13h102.82l0.17-0.3l-27.42-23.85c1.09-6.66,1.6-12.62,1.6-18.25c0-5.63-0.51-11.61-1.6-18.28
			l18.64-16.21c5.1-4.44,6.33-11.89,2.95-17.75l-21.34-36.94c-3.38-5.85-10.44-8.5-16.84-6.3l-23.25,8.01
			c-9.37-7.69-20.03-13.84-31.72-18.25l-4.72-24.21c-1.29-6.64-7.09-11.43-13.86-11.43H169.43z M190.77,161.72
			c23.42,0,42.41,18.98,42.41,42.41s-18.98,42.41-42.41,42.41s-42.41-18.98-42.41-42.41S167.35,161.72,190.77,161.72z M223.93,274.8
			l-19.02,70.68h14.88l3.64-14.14h19.33l3.67,14.14h15.02l-19.13-70.68H223.93z M275.59,274.8v70.68h14.14v-28.27h7.07
			c11.7,0,21.2-9.5,21.2-21.2c0-11.7-9.5-21.2-21.2-21.2H275.59z M332.13,274.8v70.68h14.14V274.8H332.13z M289.73,288.94h7.07
			c3.9,0,7.07,3.17,7.07,7.07c0,3.9-3.17,7.07-7.07,7.07h-7.07V288.94z M233.07,293.94l6.05,23.27h-12.04L233.07,293.94z"/>
	</g>
</g>
<g id="SASS" class="st0">
	<path vector-effect="non-scaling-stroke" class="st52" d="M341.58,230.46c-12.71,0.07-23.76,3.13-33.02,7.65
		c-3.39-6.72-6.79-12.71-7.39-17.11c-0.67-5.13-1.46-8.25-0.67-14.38s4.39-14.84,4.33-15.51c-0.07-0.67-0.8-3.79-8.12-3.86
		c-7.32-0.07-13.65,1.4-14.38,3.33c-0.73,1.93-2.13,6.32-3.06,10.85c-1.26,6.66-14.64,30.42-22.3,42.87
		c-2.46-4.86-4.59-9.12-5.06-12.51c-0.67-5.13-1.46-8.25-0.67-14.38c0.8-6.12,4.39-14.84,4.33-15.51c-0.07-0.67-0.8-3.79-8.12-3.86
		s-13.65,1.4-14.38,3.33c-0.73,1.93-1.53,6.46-3.06,10.85c-1.53,4.39-19.3,44.06-23.96,54.32c-2.4,5.26-4.46,9.45-5.92,12.31l0,0
		c0,0-0.07,0.2-0.27,0.53c-1.26,2.46-2,3.79-2,3.79s0,0,0,0.07c-1,1.8-2.06,3.46-2.6,3.46c-0.4,0-1.13-4.79,0.13-11.32
		c2.66-13.78,8.99-35.21,8.92-35.94c0-0.4,1.2-4.13-4.13-6.06c-5.19-1.93-7.06,1.26-7.52,1.26s-0.8,1.13-0.8,1.13
		s5.79-24.1-11.05-24.1c-10.52,0-25.03,11.52-32.22,21.9c-4.53,2.46-14.18,7.72-24.5,13.38c-3.93,2.2-7.99,4.39-11.78,6.46
		c-0.27-0.27-0.53-0.6-0.8-0.87c-20.37-21.77-58.04-37.14-56.45-66.36c0.6-10.65,4.26-38.61,72.35-72.55
		c56.05-27.62,100.64-19.97,108.36-3c11.05,24.23-23.9,69.23-81.81,75.75c-22.1,2.46-33.68-6.06-36.61-9.25
		c-3.06-3.33-3.53-3.53-4.66-2.86c-1.86,1-0.67,3.99,0,5.72c1.73,4.53,8.85,12.51,20.9,16.44c10.65,3.46,36.54,5.39,67.89-6.72
		c35.08-13.58,62.5-51.32,54.45-82.94c-8.05-32.08-61.3-42.67-111.69-24.76c-29.95,10.65-62.44,27.42-85.8,49.26
		c-27.76,25.96-32.15,48.52-30.35,57.98c6.46,33.55,52.72,55.38,71.22,71.55c-0.93,0.53-1.8,1-2.53,1.4
		c-9.25,4.59-44.53,23.03-53.32,42.53c-9.98,22.1,1.6,37.94,9.25,40.07c23.76,6.59,48.19-5.26,61.3-24.83s11.52-45,5.46-56.64
		c-0.07-0.13-0.13-0.27-0.27-0.4c2.4-1.4,4.86-2.86,7.26-4.26c4.73-2.8,9.39-5.39,13.38-7.52c-2.26,6.19-3.93,13.58-4.73,24.23
		c-1,12.51,4.13,28.76,10.85,35.15c3,2.8,6.52,2.86,8.79,2.86c7.85,0,11.38-6.52,15.31-14.24c4.79-9.45,9.12-20.43,9.12-20.43
		s-5.39,29.69,9.25,29.69c5.33,0,10.72-6.92,13.11-10.45c0,0.07,0,0.07,0,0.07s0.13-0.2,0.4-0.67c0.53-0.87,0.87-1.4,0.87-1.4
		s0-0.07,0-0.13c2.13-3.73,6.92-12.18,14.04-26.23c9.19-18.11,18.04-40.74,18.04-40.74s0.8,5.52,3.53,14.71
		c1.6,5.39,4.93,11.32,7.59,17.04c-2.13,3-3.46,4.66-3.46,4.66s0,0,0.07,0.07c-1.73,2.26-3.59,4.73-5.66,7.12
		c-7.26,8.65-15.91,18.57-17.11,21.43c-1.4,3.39-1.07,5.86,1.6,7.85c1.93,1.46,5.39,1.66,8.92,1.46c6.52-0.47,11.12-2.06,13.38-3.06
		c3.53-1.26,7.65-3.2,11.52-6.06c7.12-5.26,11.45-12.78,11.05-22.7c-0.2-5.46-2-10.92-4.19-16.04c0.67-0.93,1.26-1.86,1.93-2.8
		c11.25-16.44,19.97-34.48,19.97-34.48s0.8,5.52,3.53,14.71c1.33,4.66,4.06,9.72,6.46,14.64c-10.58,8.59-17.11,18.57-19.44,25.09
		c-4.19,12.11-0.93,17.57,5.26,18.84c2.8,0.6,6.79-0.73,9.72-2c3.73-1.2,8.12-3.26,12.31-6.32c7.12-5.26,13.98-12.58,13.58-22.5
		c-0.2-4.53-1.4-8.99-3.06-13.31c8.99-3.73,20.57-5.79,35.34-4.06c31.68,3.73,37.94,23.5,36.74,31.82
		c-1.2,8.32-7.85,12.85-10.05,14.24c-2.2,1.4-2.93,1.86-2.73,2.86c0.27,1.46,1.33,1.4,3.2,1.13c2.6-0.47,16.64-6.72,17.24-22.03
		C393.17,251.63,374.53,230.26,341.58,230.46z M97.17,312.86c-10.52,11.45-25.16,15.78-31.48,12.11
		c-6.79-3.93-4.13-20.83,8.79-32.95c7.85-7.39,17.97-14.24,24.69-18.44c1.53-0.93,3.79-2.26,6.52-3.93c0.47-0.27,0.73-0.4,0.73-0.4
		l0,0c0.53-0.33,1.07-0.67,1.6-1C112.74,285.57,108.22,300.82,97.17,312.86z M173.71,260.81c-3.66,8.92-11.32,31.75-15.98,30.49
		c-3.99-1.07-6.46-18.37-0.8-35.48c2.86-8.59,8.92-18.84,12.45-22.83c5.72-6.39,12.05-8.52,13.58-5.92
		C184.9,230.46,175.98,255.22,173.71,260.81z M236.88,291.03c-1.53,0.8-3,1.33-3.66,0.93c-0.47-0.27,0.67-1.33,0.67-1.33
		s7.92-8.52,11.05-12.38c1.8-2.26,3.93-4.93,6.19-7.92c0,0.27,0,0.6,0,0.87C251.13,281.38,241.27,288.24,236.88,291.03z
		 M285.6,279.92c-1.13-0.8-0.93-3.46,2.86-11.78c1.46-3.26,4.93-8.72,10.85-13.98c0.67,2.13,1.13,4.19,1.07,6.12
		C300.32,273.13,291.13,277.92,285.6,279.92z"/>
</g>
<g id="Sinister" class="st0">
	<g class="st17">
		<g id="g30">
			<g id="g42">
				<g>
					<defs>
						<rect id="SVGID_00000140706145594896101620000001499493634846715275_" x="39.03" y="243.09" width="350.59" height="92.8"/>
					</defs>
					<clipPath id="SVGID_00000083766993054707597030000004785242224586824855_">
						<use xlink:href="#SVGID_00000140706145594896101620000001499493634846715275_"  style="overflow:visible;"/>
					</clipPath>
					<g style="clip-path:url(#SVGID_00000083766993054707597030000004785242224586824855_);">
						<g id="g44">
							<g id="g46">
								<g id="g50">
									<g>
										<defs>
											
												<rect id="SVGID_00000127759658268523208740000011723945004773973680_" x="39.03" y="243.09" width="350.59" height="92.8"/>
										</defs>
										<clipPath id="SVGID_00000096767936564567300400000002056729807286391690_">
											<use xlink:href="#SVGID_00000127759658268523208740000011723945004773973680_"  style="overflow:visible;"/>
										</clipPath>
										<g style="clip-path:url(#SVGID_00000096767936564567300400000002056729807286391690_);">
											<g id="g52">
												<g id="g54">
													<path id="path56" class="st55" d="M383.33,324.08c-7.14,2.89-19.85,2.58-38.13-0.93c-38.15-7.29-52.62-8.49-43.41-3.61
														c2.97,1.59,3.71,3.36,2.27,5.36c-1.44,2-4.85,3.82-10,5.47c-12.37,3.97-28.7,5.42-48.98,4.33
														c-19.52-1.03-44.37-6.12-74.55-15.26c-13.4-4.12-23.41-6.81-30.01-8.04c-9.38-1.99-19.02-2.49-28.56-1.48
														c-12.53,1.5-30.57,5.97-54.14,13.4c-4.88,1.72-9.92,2.93-15.05,3.61c-3.3,0.12-4.39-1.44-3.3-4.74
														c2.25-7.11,14.11-16.89,35.57-29.35c16.54-9.56,33.62-18.17,51.15-25.78c13.84-6.18,28.06-11.45,42.59-15.78
														c14.92-4.48,30.41-6.77,45.99-6.81c3.38,0.06,6.54,3.32,9.57,9.75c3.03,6.43,6.19,10.31,9.18,10.72
														c33.2,4.66,60.01,9.82,80.43,15.47c25.01,6.96,45.84,15.89,62.49,26.81c12.29,8.04,14.63,13.61,7.01,16.7
														L383.33,324.08z"/>
												</g>
											</g>
										</g>
									</g>
								</g>
							</g>
						</g>
					</g>
				</g>
			</g>
		</g>
	</g>
	<g class="st17">
		<g id="g74">
			<g id="g86">
				<g>
					<defs>
						<rect id="SVGID_00000026151891000908917990000008719424570825324722_" x="57.07" y="255.98" width="317.08" height="74.76"/>
					</defs>
					<clipPath id="SVGID_00000084514445930450721570000015061501147643316102_">
						<use xlink:href="#SVGID_00000026151891000908917990000008719424570825324722_"  style="overflow:visible;"/>
					</clipPath>
					<g style="clip-path:url(#SVGID_00000084514445930450721570000015061501147643316102_);">
						<g id="g88">
							<g id="g90">
								<g id="g94">
									<g>
										<defs>
											
												<rect id="SVGID_00000039851443853001945000000010131832519613732780_" x="57.07" y="255.98" width="317.08" height="74.76"/>
										</defs>
										<clipPath id="SVGID_00000171698297842402070620000008077214460880015531_">
											<use xlink:href="#SVGID_00000039851443853001945000000010131832519613732780_"  style="overflow:visible;"/>
										</clipPath>
										<g style="clip-path:url(#SVGID_00000171698297842402070620000008077214460880015531_);">
											<g id="g96">
												<g id="g98">
													<path id="path100" class="st58" d="M323.73,314.03c-6.82-1.31-13.7-2.28-20.62-2.89c-8.99-0.82-13.2-0.56-12.58,0.82
														c2.35,4.59,2.87,7.82,1.55,9.69c-3.63,5.5-13.87,8.15-30.73,7.94c-11.38-0.23-22.72-1.33-33.92-3.3
														c-10.55-1.89-20.97-4.4-31.22-7.53c-18.08-5.24-28.39-8.16-30.93-8.76c-14.64-3.71-23.98-5.95-28.03-6.7
														c-9.47-1.89-19.2-2.17-28.77-0.82c-4.47,0.74-11.9,2.32-22.29,4.74c-12.09,2.75-19.54,4.4-22.36,4.95
														c-12.51,2.53-4.09-4.14,25.26-20c6.31-2.89,13.83-6.05,22.56-9.49c0.7-0.27,8.25-3.18,22.89-8.66
														c31.07-11.82,58.29-17.55,81.65-17.18c3.24,0,7.73,1.55,13.53,4.43c4.12,2.35,8.56,4.09,13.18,5.16
														c49.03,5.9,89.69,18.89,121.99,38.98c6.48,3.98,9.22,7.49,8.25,10.52c-0.97,3.03-4.35,3.94-10.13,3.61
														c-13.17-1.02-26.26-2.88-39.18-5.57L323.73,314.03z"/>
												</g>
											</g>
										</g>
									</g>
								</g>
							</g>
						</g>
					</g>
				</g>
			</g>
		</g>
	</g>
	<g id="g104" class="st17">
		<g id="g110">
			
				<linearGradient id="path122_00000080184968372780322140000014329350194989568433_" gradientUnits="userSpaceOnUse" x1="60.855" y1="212.1505" x2="331.1925" y2="212.1505" gradientTransform="matrix(1 0 0 -1 16.84 419.56)">
				<stop  offset="0" style="stop-color:#3F286B"/>
				<stop  offset="0.38" style="stop-color:#793D97"/>
				<stop  offset="1" style="stop-color:#3F286B"/>
			</linearGradient>
			<path id="path122" style="fill:url(#path122_00000080184968372780322140000014329350194989568433_);" d="M264.66,160.89
				c3.46,14.91,1.32,4,4.45,20.25c6.87,37.12,14.64,61.66,23.3,73.62c7.75,10.77,16.41,20.84,25.9,30.11
				c5.16,4.95,12.72,12.17,22.69,21.65c7.4,7.77,8.97,12.52,4.62,14.23c-3.78,1.57-11.51,0.64-23.2-2.78
				c-10.99-3.3-12.23-4.33-23.45-5.07c-11.22-0.74-21.8,1.92-16.93,5.01c5.3,3.28,0.76,4.29-8.39,8s-21.24,5.38-35.66,4.62
				c-18.18-0.91-40.07-5.41-65.68-13.51c-24.62-7.84-40.95-11.76-48.98-11.76c-8.39,0-20.07,2.2-35.06,6.6
				c-2.98,1.11-6.11,1.81-9.28,2.06c-1.71-0.27-1.75-1.86,0-4.74c2.07-3.43,4.56-6.58,7.42-9.38c4.39-4.33,7.82-7.82,10.21-10.31
				c9.16-9.9,18.25-19.92,23.96-30.38c6.19-17.14,6.97-19.86,13.8-49.5c7.01-31.1,3.16-14.99,8.08-35.97
				c1.92-12.5,8.37-49.6,22.54-68.06c15.54-20.21,33.41-26.16,53.62-17.86C241.32,97.02,257.86,121.97,264.66,160.89z"/>
		</g>
	</g>
	<g id="g432" class="st17">
		<g id="g438">
			<path id="path446" class="st60" d="M212.9,160.2c0-2.74,1.13-4.33,3.4-4.74c1.38-0.27,4.48,1.09,8.62,1.36
				c2.83-0.14,5.63-0.53,8.39-1.15c2.24,0.27,3.85,2.29,3.61,4.54c-0.09,3.11-1.38,6.07-3.61,8.25c-4.72,4.54-12.19,4.54-16.91,0
				C214.13,166.32,212.85,163.33,212.9,160.2z"/>
		</g>
	</g>
	<g id="g516" class="st17">
		<g id="g522">
			<path id="path530" class="st60" d="M172.17,161.55c0-2.74,0.54-5.67,2.72-6.19c1.38-0.27,4.7,1.07,8.83,1.34
				c3.12-0.18,6.18-0.88,9.07-2.06c2.47,0.47,3.36,4.12,3.3,6.74c-0.01,3.11-1.28,6.08-3.51,8.25c-4.72,4.54-12.19,4.54-16.91,0
				C173.44,167.54,172.17,164.61,172.17,161.55z"/>
		</g>
	</g>
</g>
<g id="Storybook" class="st0">
	<g class="st17">
		<g>
			<path id="path-1_00000128480978262027144820000000308295254390516394_" class="st61" d="M92.12,344.16L82.26,81.41
				c-0.33-8.68,6.33-16.03,14.99-16.57l223.49-13.97c8.82-0.55,16.42,6.15,16.97,14.97c0.02,0.33,0.03,0.67,0.03,1v286.31
				c0,8.84-7.17,16-16,16c-0.24,0-0.48-0.01-0.72-0.02l-213.63-9.59C99.08,359.18,92.44,352.49,92.12,344.16L92.12,344.16z"/>
		</g>
		<defs>
			<filter id="Adobe_OpacityMaskFilter" filterUnits="userSpaceOnUse" x="148.05" y="50.84" width="156.41" height="257.99">
				<feColorMatrix  type="matrix" values="1 0 0 0 0  0 1 0 0 0  0 0 1 0 0  0 0 0 1 0"/>
			</filter>
		</defs>
		
			<mask maskUnits="userSpaceOnUse" x="148.05" y="50.84" width="156.41" height="257.99" id="mask-2_00000018204161066850842800000012786896588179254185_">
			<g class="st62">
				<path id="path-1_00000080899231246044650040000006487038534448325249_" class="st14" d="M92.12,344.16L82.26,81.41
					c-0.33-8.68,6.33-16.03,14.99-16.57l223.49-13.97c8.82-0.55,16.42,6.15,16.97,14.97c0.02,0.33,0.03,0.67,0.03,1v286.31
					c0,8.84-7.17,16-16,16c-0.24,0-0.48-0.01-0.72-0.02l-213.63-9.59C99.08,359.18,92.44,352.49,92.12,344.16L92.12,344.16z"/>
			</g>
		</mask>
		<path class="st63" d="M270.92,89.97l1.53-36.72l30.69-2.41l1.32,37.86c0.05,1.32-0.98,2.42-2.3,2.47
			c-0.56,0.02-1.12-0.16-1.56-0.51l-11.84-9.32l-14.01,10.63c-1.05,0.8-2.55,0.59-3.34-0.46C271.06,91.07,270.89,90.52,270.92,89.97
			z M231.67,170.82c0,6.23,41.94,3.24,47.57-1.13c0-42.4-22.75-64.68-64.41-64.68s-65.01,22.63-65.01,56.57
			c0,59.12,79.78,60.25,79.78,92.49c0,9.05-4.43,14.43-14.18,14.43c-12.71,0-17.73-6.49-17.14-28.55c0-4.79-48.46-6.28-49.94,0
			c-3.76,53.47,29.55,68.89,67.66,68.89c36.94,0,65.89-19.69,65.89-55.33c0-63.36-80.96-61.66-80.96-93.06
			c0-12.73,9.46-14.43,15.07-14.43C221.91,146.02,232.55,147.06,231.67,170.82z"/>
	</g>
</g>
<g id="Tailwind" class="st0">
	<g class="st17">
		<defs>
			<rect id="SVGID_00000152244440278416581680000013090050688723436733_" x="44.29" y="110.58" width="331.41" height="198.85"/>
		</defs>
		<clipPath id="SVGID_00000096047568347357534150000008101451182436280736_">
			<use xlink:href="#SVGID_00000152244440278416581680000013090050688723436733_"  style="overflow:visible;"/>
		</clipPath>
		<g style="clip-path:url(#SVGID_00000096047568347357534150000008101451182436280736_);">
			<path class="st65" d="M210,110.58c-44.19,0-71.81,22.09-82.85,66.28c16.57-22.09,35.9-30.38,58-24.86
				c12.61,3.15,21.62,12.3,31.59,22.42c16.25,16.49,35.05,35.58,76.12,35.58c44.19,0,71.81-22.09,82.85-66.28
				c-16.57,22.09-35.9,30.38-58,24.86c-12.61-3.15-21.62-12.3-31.59-22.42C269.88,129.66,251.07,110.58,210,110.58z M127.15,210
				c-44.19,0-71.81,22.09-82.85,66.28c16.57-22.09,35.9-30.38,58-24.86c12.61,3.15,21.62,12.3,31.59,22.42
				c16.25,16.49,35.05,35.58,76.12,35.58c44.19,0,71.81-22.09,82.85-66.28c-16.57,22.09-35.9,30.38-58,24.86
				c-12.61-3.15-21.62-12.3-31.59-22.42C187.02,229.09,168.22,210,127.15,210z"/>
		</g>
	</g>
</g>
<g id="Typescript" class="st0">
	<path class="st66" d="M69.63,35.56h280.74c18.82,0,34.07,15.25,34.07,34.07v280.74c0,18.82-15.25,34.07-34.07,34.07H69.63
		c-18.82,0-34.07-15.25-34.07-34.07V69.63C35.56,50.81,50.81,35.56,69.63,35.56z"/>
	<path class="st66" d="M69.63,35.56h280.74c18.82,0,34.07,15.25,34.07,34.07v280.74c0,18.82-15.25,34.07-34.07,34.07H69.63
		c-18.82,0-34.07-15.25-34.07-34.07V69.63C35.56,50.81,50.81,35.56,69.63,35.56z"/>
	<path class="st67" d="M251.52,313.18v34.11c5.55,2.84,12.1,4.97,19.68,6.4c7.57,1.42,15.55,2.13,23.94,2.13
		c8.18,0,15.94-0.78,23.3-2.35c7.36-1.56,13.81-4.14,19.36-7.73c5.55-3.59,9.94-8.28,13.17-14.07c3.23-5.79,4.85-12.95,4.85-21.48
		c0-6.18-0.92-11.6-2.77-16.26c-1.85-4.65-4.51-8.79-8-12.42c-3.48-3.62-7.66-6.88-12.53-9.75c-4.87-2.88-10.36-5.6-16.48-8.15
		c-4.48-1.85-8.5-3.64-12.05-5.38c-3.55-1.74-6.58-3.52-9.06-5.33c-2.49-1.81-4.41-3.73-5.76-5.76c-1.35-2.03-2.03-4.32-2.03-6.88
		c0-2.34,0.6-4.46,1.81-6.34c1.21-1.88,2.92-3.5,5.12-4.85c2.2-1.35,4.91-2.4,8.1-3.14c3.2-0.75,6.75-1.12,10.66-1.12
		c2.84,0,5.85,0.21,9.01,0.64c3.16,0.43,6.35,1.08,9.55,1.97c3.2,0.89,6.31,2.01,9.33,3.36c3.02,1.35,5.81,2.91,8.37,4.69V203.6
		c-5.19-1.99-10.86-3.46-17.01-4.42c-6.15-0.96-13.21-1.44-21.17-1.44c-8.11,0-15.78,0.87-23.04,2.61
		c-7.25,1.74-13.63,4.46-19.14,8.15c-5.51,3.7-9.86,8.4-13.06,14.12c-3.2,5.72-4.8,12.56-4.8,20.52c0,10.16,2.93,18.83,8.8,26.01
		c5.86,7.18,14.77,13.25,26.71,18.23c4.69,1.92,9.06,3.8,13.12,5.65c4.05,1.85,7.55,3.77,10.5,5.76c2.95,1.99,5.28,4.16,6.99,6.5
		c1.71,2.34,2.56,5.01,2.56,8c0,2.2-0.53,4.25-1.6,6.13c-1.07,1.88-2.68,3.52-4.85,4.9c-2.17,1.39-4.87,2.47-8.1,3.25
		c-3.24,0.78-7.02,1.17-11.36,1.17c-7.39,0-14.72-1.3-21.97-3.89C264.43,322.26,257.71,318.37,251.52,313.18L251.52,313.18z
		 M194.18,229.14h43.76v-27.99H115.97v27.99h43.55v124.64h34.67V229.14z"/>
</g>
<g id="Vitest" class="st0">
	<path class="st68" d="M-37.82-44.85h495.64c3.88,0,7.03,3.15,7.03,7.03v495.64c0,3.88-3.15,7.03-7.03,7.03H-37.82
		c-3.88,0-7.03-3.15-7.03-7.03V-37.82C-44.85-41.7-41.7-44.85-37.82-44.85z"/>
	<g class="st17">
		<defs>
			<rect id="SVGID_00000038407967519343609620000012676099967015410617_" x="65" y="65" width="290" height="290"/>
		</defs>
		<clipPath id="SVGID_00000021837111330569246850000010032630414716984713_">
			<use xlink:href="#SVGID_00000038407967519343609620000012676099967015410617_"  style="overflow:visible;"/>
		</clipPath>
		<g style="clip-path:url(#SVGID_00000021837111330569246850000010032630414716984713_);">
			<path class="st70" d="M277.37,165.63l-63.52,91.83c-0.67,0.97-1.65,1.7-2.77,2.08c-1.13,0.37-2.34,0.37-3.47-0.01
				c-1.12-0.38-2.09-1.11-2.76-2.09c-0.67-0.98-1-2.14-0.94-3.32l2.54-50.7l-41.04-8.7c-0.88-0.19-1.69-0.58-2.38-1.16
				c-0.68-0.58-1.22-1.31-1.55-2.14s-0.45-1.73-0.35-2.61c0.1-0.89,0.42-1.74,0.93-2.47l63.52-91.83c0.67-0.97,1.65-1.7,2.77-2.08
				c1.13-0.37,2.34-0.37,3.47,0.01c1.12,0.38,2.09,1.11,2.76,2.09c0.67,0.98,1,2.14,0.94,3.32l-2.54,50.7l41.04,8.7
				c0.88,0.19,1.69,0.58,2.38,1.16c0.69,0.58,1.22,1.31,1.55,2.14c0.33,0.83,0.45,1.73,0.35,2.61
				C278.2,164.04,277.88,164.89,277.37,165.63L277.37,165.63z"/>
			<path class="st71" d="M210.86,334.51c-1.69,0-3.36-0.33-4.92-0.98c-1.56-0.65-2.98-1.6-4.17-2.79l-60.01-60.01
				c-2.4-2.41-3.75-5.68-3.74-9.08c0-3.4,1.36-6.67,3.77-9.08c2.41-2.41,5.67-3.76,9.08-3.77c3.4,0,6.67,1.34,9.09,3.74l50.92,50.92
				l110.94-110.93c2.42-2.38,5.68-3.71,9.07-3.69c3.39,0.01,6.64,1.37,9.04,3.77c2.4,2.4,3.75,5.65,3.77,9.04
				c0.01,3.39-1.31,6.65-3.69,9.07L219.95,330.75c-1.19,1.2-2.61,2.14-4.17,2.79C214.22,334.18,212.54,334.51,210.86,334.51z"/>
			<path class="st72" d="M210.8,334.51c1.69,0,3.36-0.33,4.92-0.98c1.56-0.65,2.98-1.6,4.17-2.79l60.01-60.01
				c2.4-2.41,3.75-5.68,3.74-9.08c0-3.4-1.36-6.67-3.77-9.08c-2.41-2.41-5.67-3.76-9.08-3.77c-3.4,0-6.67,1.34-9.09,3.74
				l-50.92,50.92L99.87,192.53c-2.42-2.38-5.68-3.71-9.07-3.69c-3.39,0.01-6.64,1.37-9.04,3.77c-2.4,2.4-3.75,5.65-3.77,9.04
				c-0.01,3.39,1.31,6.65,3.69,9.07l120.03,120.02c1.19,1.2,2.61,2.14,4.17,2.79C207.44,334.18,209.11,334.51,210.8,334.51z"/>
		</g>
	</g>
</g>
<g id="VSCode" class="st0">
	<defs>
		
			<filter id="Adobe_OpacityMaskFilter_00000056414570775251336400000002083750393844132031_" filterUnits="userSpaceOnUse" x="41.94" y="42.91" width="336.12" height="334.19">
			<feColorMatrix  type="matrix" values="1 0 0 0 0  0 1 0 0 0  0 0 1 0 0  0 0 0 1 0"/>
		</filter>
	</defs>
	
		<mask maskUnits="userSpaceOnUse" x="41.94" y="42.91" width="336.12" height="334.19" id="mask0_00000163769701357681723190000012671538621496403627_" class="st17">
		
			<path style="fill-rule:evenodd;clip-rule:evenodd;fill:#FFFFFF;filter:url(#Adobe_OpacityMaskFilter_00000056414570775251336400000002083750393844132031_);" d="
			M280.35,375.66c5.29,2.06,11.32,1.93,16.66-0.64l69.16-33.28c7.27-3.5,11.89-10.85,11.89-18.92V97.18
			c0-8.07-4.62-15.42-11.89-18.92l-69.16-33.28c-7.01-3.37-15.21-2.55-21.36,1.93c-0.88,0.64-1.72,1.35-2.5,2.14l-132.4,120.79
			l-57.67-43.78c-5.37-4.08-12.88-3.74-17.86,0.79l-18.5,16.83c-6.1,5.55-6.11,15.14-0.02,20.7L96.72,210l-50.01,45.63
			c-6.09,5.56-6.08,15.15,0.02,20.7l18.5,16.83c4.99,4.54,12.5,4.87,17.86,0.79l57.67-43.78l132.4,120.79
			C275.24,373.06,277.7,374.63,280.35,375.66z M294.13,133.74L193.67,210l100.46,76.26V133.74z"/>
	</mask>
	<g class="st74">
		<path class="st75" d="M366.17,78.31l-69.21-33.33c-8.01-3.86-17.59-2.23-23.87,4.06L46.51,255.63c-6.09,5.56-6.09,15.15,0.02,20.7
			l18.51,16.83c4.99,4.54,12.5,4.87,17.87,0.79L355.76,86.95c9.15-6.94,22.3-0.42,22.3,11.07v-0.8
			C378.06,89.16,373.44,81.81,366.17,78.31z"/>
		<g>
			<path class="st76" d="M366.17,341.69l-69.21,33.33c-8.01,3.86-17.59,2.23-23.87-4.06L46.51,164.37
				c-6.09-5.56-6.09-15.15,0.02-20.7l18.51-16.83c4.99-4.54,12.5-4.87,17.87-0.79l272.86,206.99c9.15,6.94,22.3,0.42,22.3-11.07v0.8
				C378.06,330.84,373.44,338.19,366.17,341.69z"/>
		</g>
		<g>
			<path class="st77" d="M296.96,375.02c-8.01,3.86-17.59,2.22-23.88-4.06c7.75,7.75,20.99,2.26,20.99-8.7V57.74
				c0-10.96-13.25-16.44-20.99-8.7c6.29-6.29,15.86-7.92,23.88-4.06l69.2,33.28c7.27,3.5,11.9,10.85,11.9,18.92v225.65
				c0,8.07-4.62,15.42-11.9,18.92L296.96,375.02z"/>
		</g>
		<g class="st78">
			
				<linearGradient id="SVGID_00000024692223487955491350000011645564996185261474_" gradientUnits="userSpaceOnUse" x1="209.8979" y1="379.0931" x2="209.8979" y2="44.907" gradientTransform="matrix(1 0 0 -1 0 422)">
				<stop  offset="0" style="stop-color:#FFFFFF"/>
				<stop  offset="1" style="stop-color:#FFFFFF;stop-opacity:0"/>
			</linearGradient>
			<path style="fill-rule:evenodd;clip-rule:evenodd;fill:url(#SVGID_00000024692223487955491350000011645564996185261474_);" d="
				M280.14,375.66c5.29,2.06,11.32,1.93,16.66-0.64l69.16-33.28c7.27-3.5,11.89-10.85,11.89-18.92V97.18
				c0-8.07-4.62-15.42-11.89-18.92l-69.16-33.28c-7.01-3.37-15.21-2.55-21.36,1.93c-0.88,0.64-1.72,1.35-2.5,2.14l-132.4,120.79
				l-57.67-43.78c-5.37-4.08-12.88-3.74-17.86,0.79l-18.5,16.83c-6.1,5.55-6.11,15.14-0.02,20.7L96.52,210L46.5,255.63
				c-6.09,5.56-6.08,15.15,0.02,20.7l18.5,16.83c4.99,4.54,12.5,4.87,17.86,0.79l57.67-43.78l132.4,120.79
				C275.04,373.06,277.5,374.63,280.14,375.66z M293.93,133.74L193.47,210l100.46,76.26V133.74z"/>
		</g>
	</g>
</g>
<g id="Woocommerce" class="st0">
	<path class="st80" d="M61.96,101.81h295.9c18.71-0.02,33.89,15.12,33.91,33.83c0,0.03,0,0.06,0,0.09v112.92
		c0.02,18.71-15.12,33.89-33.83,33.91c-0.03,0-0.06,0-0.09,0H251.75l14.59,35.64l-64.06-35.67H62.14
		c-18.71,0.02-33.89-15.12-33.91-33.83c0-0.03,0-0.06,0-0.09V135.72c-0.09-18.64,14.94-33.82,33.58-33.91
		C61.86,101.81,61.92,101.81,61.96,101.81L61.96,101.81z"/>
	<path class="st8" d="M48.93,132.69c2.06-2.81,5.17-4.29,9.31-4.58c7.53-0.58,11.82,2.97,12.86,10.64
		c4.58,30.88,9.56,57.05,14.92,78.5l32.36-61.62c2.96-5.61,6.65-8.57,11.08-8.87c6.49-0.44,10.49,3.69,12.12,12.41
		c3.69,19.65,8.42,36.35,14.03,50.51c3.85-37.52,10.34-64.61,19.48-81.27c2.22-4.13,5.46-6.21,9.75-6.49
		c3.38-0.28,6.74,0.79,9.34,2.98c2.68,2.01,4.35,5.08,4.58,8.42c0.21,2.45-0.29,4.92-1.44,7.09c-5.77,10.64-10.5,28.52-14.34,53.34
		c-3.69,24.09-5.05,42.86-4.13,56.28c0.36,3.35-0.26,6.74-1.77,9.76c-1.77,3.25-4.44,5.05-7.84,5.32c-3.84,0.3-7.83-1.48-11.67-5.46
		c-13.77-14.05-24.65-35.04-32.66-62.97c-9.62,18.91-16.71,33.1-21.28,42.57c-8.72,16.7-16.11,25.25-22.32,25.72
		c-4.03,0.28-7.42-3.12-10.38-10.19C63.41,235.4,55.29,198,46.56,142.59C45.92,139.1,46.78,135.51,48.93,132.69z M366.49,155.92
		c-5.32-9.34-13.15-14.96-23.67-17.17c-2.61-0.56-5.27-0.85-7.94-0.87c-14.19,0-25.71,7.39-34.73,22.17
		c-7.68,12.53-11.68,26.97-11.54,41.67c0,11.38,2.36,21.13,7.09,29.26c5.32,9.32,13.15,14.93,23.64,17.14
		c2.62,0.57,5.3,0.86,7.99,0.88c14.33,0,25.85-7.39,34.72-22.17c7.67-12.6,11.67-27.1,11.54-41.85
		C373.73,173.48,371.22,163.86,366.49,155.92z M347.87,196.83c-2.06,9.75-5.77,16.99-11.23,21.87c-4.29,3.84-8.28,5.46-11.97,4.73
		c-3.55-0.72-6.49-3.84-8.72-9.6c-1.71-4.28-2.61-8.84-2.66-13.45c-0.04-3.62,0.31-7.24,1.03-10.79c1.39-6.33,4.06-12.31,7.84-17.58
		c4.88-7.22,10.04-10.2,15.37-9.16c3.54,0.72,6.49,3.85,8.72,9.6c1.71,4.28,2.61,8.84,2.66,13.45
		C348.95,189.56,348.61,193.23,347.87,196.83z M273.99,155.92c-5.32-9.32-13.3-14.93-23.64-17.14c-2.62-0.57-5.3-0.87-7.98-0.89
		c-14.19,0-25.72,7.39-34.73,22.17c-7.68,12.53-11.68,26.97-11.54,41.67c0,11.38,2.36,21.13,7.09,29.26
		c5.32,9.32,13.15,14.93,23.64,17.14c2.63,0.57,5.31,0.87,8,0.88c14.34,0,25.86-7.39,34.73-22.17c7.67-12.6,11.67-27.1,11.54-41.85
		C281.08,173.48,278.72,163.86,273.99,155.92z M255.23,196.86c-2.06,9.75-5.77,16.99-11.23,21.87c-4.29,3.84-8.28,5.46-11.97,4.73
		c-3.54-0.72-6.49-3.84-8.72-9.6c-1.71-4.28-2.61-8.84-2.66-13.45c-0.04-3.62,0.31-7.24,1.03-10.79c1.4-6.34,4.07-12.34,7.86-17.61
		c4.88-7.22,10.04-10.2,15.37-9.16c3.54,0.72,6.49,3.85,8.72,9.6c1.69,4.28,2.57,8.84,2.61,13.45c0.12,3.68-0.23,7.35-1.04,10.94
		L255.23,196.86z"/>
</g>
<g id="Wordpress" class="st0">
	<g class="st17">
		<path class="st14" d="M211.1,48.93c-90.09,0-163.13,73.04-163.13,163.13S121.01,375.2,211.1,375.2s163.13-73.04,163.13-163.13
			S301.19,48.93,211.1,48.93L211.1,48.93z M330.4,146.86c0.58,4.33,0.9,8.97,0.9,13.97c0,13.78-2.58,29.29-10.33,48.7l-41.53,120.04
			c40.41-23.55,67.6-67.36,67.6-117.49C347.05,188.44,341.02,166.21,330.4,146.86L330.4,146.86z M213.49,223.96l-40.78,118.53
			c12.19,3.58,25.06,5.55,38.39,5.55c15.82,0,31.01-2.73,45.14-7.7c-0.37-0.58-0.69-1.19-0.98-1.89L213.49,223.96L213.49,223.96z
			 M302.86,205.22c0-16.81-6.03-28.44-11.2-37.49c-6.9-11.2-13.36-20.68-13.36-31.89c0-12.51,9.48-24.14,22.83-24.14
			c0.61,0,1.17,0.08,1.75,0.11c-24.19-22.17-56.42-35.69-91.79-35.69c-47.5,0-89.27,24.37-113.59,61.28
			c3.19,0.11,6.19,0.16,8.76,0.16c14.21,0,36.24-1.73,36.24-1.73c7.33-0.42,8.18,10.33,0.88,11.2c0,0-7.35,0.85-15.56,1.3
			l49.49,147.26l29.76-89.21l-21.19-58.04c-7.33-0.42-14.26-1.3-14.26-1.3c-7.33-0.42-6.48-11.63,0.85-11.2
			c0,0,22.44,1.73,35.79,1.73c14.21,0,36.24-1.73,36.24-1.73c7.33-0.42,8.18,10.33,0.88,11.2c0,0-7.38,0.85-15.56,1.3l49.12,146.12
			l14.02-44.45C299.23,230.6,302.86,216.85,302.86,205.22L302.86,205.22z M75.15,212.07c0,53.82,31.28,100.31,76.63,122.35
			L86.92,156.74C79.38,173.65,75.15,192.34,75.15,212.07L75.15,212.07z M211.1,58.73c20.71,0,40.78,4.06,59.69,12.05
			c9.08,3.85,17.84,8.6,26.05,14.13c8.12,5.5,15.77,11.79,22.7,18.72s13.25,14.58,18.72,22.7c5.55,8.2,10.3,16.97,14.13,26.05
			c7.99,18.9,12.05,38.98,12.05,59.69s-4.06,40.78-12.05,59.69c-3.85,9.08-8.6,17.84-14.13,26.05c-5.5,8.12-11.79,15.77-18.72,22.7
			c-6.93,6.93-14.58,13.25-22.7,18.72c-8.2,5.55-16.97,10.3-26.05,14.13c-18.9,7.99-38.98,12.05-59.69,12.05
			s-40.78-4.06-59.69-12.05c-9.08-3.85-17.84-8.6-26.05-14.13c-8.12-5.5-15.77-11.79-22.7-18.72c-6.93-6.93-13.25-14.58-18.72-22.7
			c-5.55-8.2-10.3-16.97-14.13-26.05c-8.02-18.9-12.05-38.98-12.05-59.69s4.06-40.78,12.05-59.69c3.85-9.08,8.6-17.84,14.13-26.05
			c5.5-8.12,11.79-15.77,18.72-22.7c6.93-6.93,14.58-13.25,22.7-18.72c8.2-5.55,16.97-10.3,26.05-14.13
			C170.32,62.77,190.39,58.73,211.1,58.73L211.1,58.73z"/>
	</g>
</g>
</svg>
