<svg id="Javascript" xmlns="http://www.w3.org/2000/svg" viewBox="0 0 339.66 339.66"><defs><style>.cls-1{fill:#f1dc4f;}.cls-2{fill:#333431;}</style></defs><path class="cls-1" d="M40.17,40.17H379.83V379.83H40.17Z" transform="translate(-40.17 -40.17)"/><path class="cls-2" d="M352,298.82c-2.48-15.5-12.59-28.51-42.52-40.65-10.4-4.78-22-8.2-25.44-16.08-1.23-4.58-1.39-7.16-.62-9.94,2.23-9,13-11.82,21.51-9.24a23.74,23.74,0,0,1,13.82,12.82c14.65-9.49,14.62-9.42,24.86-15.95-3.75-5.81-5.75-8.49-8.2-11-8.82-9.85-20.83-14.92-40-14.53l-10,1.29c-9.59,2.42-18.73,7.46-24.09,14.2C245.23,228,249.81,260,269.38,273.09c19.27,14.46,47.59,17.76,51.2,31.29,3.52,16.56-12.17,21.92-27.76,20-11.5-2.39-17.89-8.23-24.8-18.85-12.72,7.36-12.72,7.36-25.8,14.88,3.1,6.78,6.36,9.85,11.56,15.73,24.6,25,86.18,23.73,97.22-14C351.45,320.81,354.42,312.16,352,298.82ZM224.82,196.28H193.05c0,27.44-.13,54.69-.13,82.14,0,17.46.9,33.48-1.94,38.39-4.65,9.65-16.69,8.46-22.18,6.58-5.58-2.74-8.43-6.65-11.72-12.17a16.17,16.17,0,0,0-1.81-2.91q-12.93,7.9-25.83,15.83c4.3,8.81,10.63,16.46,18.73,21.43,12.11,7.27,28.38,9.5,45.4,5.59,11.07-3.23,20.63-9.91,25.63-20.08,7.23-13.34,5.68-29.48,5.62-47.34.16-29.12,0-58.24,0-87.46Z" transform="translate(-40.17 -40.17)"/></svg>