<svg id="Joomla" xmlns="http://www.w3.org/2000/svg" viewBox="0 0 279.03 278.66"><defs><style>.cls-1{fill:#7bc144;}.cls-2{fill:#faa642;}.cls-3{fill:#ef4525;}.cls-4{fill:#5191cd;}</style></defs><path class="cls-1" d="M119.59,210.93l-5.21-5.21C97.64,189,92.8,165.54,98.75,144.33a37.29,37.29,0,1,1,45-42.41,61.25,61.25,0,0,1,57.67,16.37l2.23,2.23-27.53,27.53-2.24-2.23a22.89,22.89,0,1,0-32.36,32.37L203.3,240l-27.54,27.53-29-29Z" transform="translate(-69.73 -70.67)"/><path class="cls-2" d="M150.47,180.42l61.75-61.76a62.43,62.43,0,0,1,61-15.62,37.2,37.2,0,1,1,41.67,42,61.77,61.77,0,0,1-15.63,60.64L297.05,208l-26.79-27.53,2.24-2.23a22.89,22.89,0,0,0-32.37-32.37l-61.76,61.76Z" transform="translate(-69.73 -70.67)"/><path class="cls-3" d="M274.36,319.19c-21.21,6.33-45,1.49-61.76-15.25l-2.24-2.23,27.54-27.53,2.23,2.23A22.89,22.89,0,1,0,272.5,244l-61.76-61.76,27.53-27.53,62.13,62.13a62.35,62.35,0,0,1,16.37,58.41,37.2,37.2,0,0,1-5.21,74C293,349,277.7,335.94,274.36,319.19Z" transform="translate(-69.73 -70.67)"/><path class="cls-4" d="M263.57,241.81l-61.76,61.76a61.91,61.91,0,0,1-58.41,16.37,37.27,37.27,0,1,1-45-44.27c-5.21-20.84,0-43.16,16-59.16l2.23-2.23,27.53,27.53L141.91,244a22.89,22.89,0,1,0,32.37,32.37L236,214.65Z" transform="translate(-69.73 -70.67)"/></svg>