<svg xmlns="http://www.w3.org/2000/svg" viewBox="0 0 420 420" xmlns:v="https://vecta.io/nano"><path vector-effect="non-scaling-stroke" d="M401.8 254.33c-.69-.38-1.2-.92-1.62-1.57a4.4 4.4 0 0 1-.59-2.18 4.29 4.29 0 0 1 .59-2.18c.38-.68.93-1.19 1.62-1.57s1.45-.58 2.31-.58 1.62.2 2.31.58 1.2.92 1.62 1.57a4.4 4.4 0 0 1 .59 2.18 4.29 4.29 0 0 1-.59 2.18c-.38.68-.93 1.19-1.62 1.57s-1.45.58-2.31.58c-.83 0-1.62-.17-2.31-.58zm4.23-.48c.58-.31 1-.79 1.34-1.33a4.08 4.08 0 0 0 .48-1.95 4.08 4.08 0 0 0-.48-1.95c-.31-.58-.76-1.02-1.34-1.33a4.03 4.03 0 0 0-1.93-.48 4.03 4.03 0 0 0-1.93.48c-.58.31-1 .79-1.34 1.33a4.08 4.08 0 0 0-.48 1.95 4.08 4.08 0 0 0 .48 1.95c.31.58.76 1.02 1.34 1.33a4.03 4.03 0 0 0 1.93.48c.72 0 1.38-.17 1.93-.48zm-3.79-1.19v-.31l.07-.03h.21c.07 0 .14-.03.17-.07.07-.07.07-.1.07-.17v-3.18c0-.07-.03-.14-.07-.17-.07-.07-.1-.07-.17-.07h-.21l-.07-.03v-.31l.07-.03h1.79c.52 0 .89.1 1.2.34s.45.55.45.96c0 .31-.1.61-.34.82-.24.24-.52.38-.86.41l.41.14.79 1.26c.07.1.14.14.24.14h.2l.03.03v.31l-.03.03h-1.06l-.07-.03-1.1-1.84h-.27v1.23c0 .07.03.14.07.17.07.07.1.07.17.07h.21l.07.03v.31l-.07.03h-1.82l-.08-.04zm1.76-2.26c.28 0 .52-.07.66-.24.14-.14.24-.38.24-.65s-.07-.48-.2-.65c-.14-.17-.35-.24-.59-.24h-.14c-.07 0-.14.03-.17.07-.07.07-.07.1-.07.17v1.54h.27z" fill="#08202a"/><path vector-effect="non-scaling-stroke" d="M1.55 0h424.61c.86 0 1.55 2.78 1.55 6.2v418.78c0 3.43-.7 6.2-1.55 6.2H1.55c-.86 0-1.55-2.78-1.55-6.2V6.2C0 2.78.7 0 1.55 0z" fill="#10182b"/><path vector-effect="non-scaling-stroke" d="M55.34 186.49c-3.74-4.44-6.96-8.95-7.62-9.88-.07-.07-.17-.07-.24 0-.66.94-3.88 5.44-7.62 9.88-32.11 40.96 5.06 68.59 5.06 68.59l.31.21c.28 4.27.97 10.4.97 10.4h1.39 1.39s.69-6.1.97-10.4l.31-.24c.02.04 37.19-27.6 5.08-68.56zm-7.76 68.01s-1.66-1.42-2.11-2.15v-.07l2.01-44.6c0-.14.21-.14.21 0l2.01 44.6v.07c-.46.73-2.12 2.15-2.12 2.15zm69.48-9.42l-15.49-37.56-.03-.1H89.48v2.52h1.94a2.18 2.18 0 0 1 1.56.66c.42.42.63.97.63 1.56l-.35 37.8c0 1.18-.97 2.14-2.15 2.18l-1.98.03v2.49h11.74v-2.49l-1.22-.03c-1.18-.03-2.15-1-2.15-2.18v-35.62l16.88 40.33c.24.59.8.97 1.42.97.63 0 1.18-.38 1.42-.97l16.5-39.43.24 34.72c0 1.21-.97 2.18-2.19 2.21h-1.25v2.49h13.75v-2.49h-1.88c-1.18 0-2.15-1-2.19-2.18l-.1-37.8c0-1.21.97-2.18 2.15-2.21l2.01-.03v-2.52h-11.74l-15.46 37.65zm107.89 6.43c-.38-.38-.59-.9-.59-1.52v-18.52c0-3.52-1.04-6.29-3.13-8.26-2.05-1.97-4.91-2.97-8.46-2.97-4.98 0-8.91 2-11.66 5.94-.03.07-.14.1-.24.1s-.17-.07-.17-.17l-1.29-4.94h-2.16l-5.54 3.14v1.73h1.43c.66 0 1.22.17 1.6.52s.59.86.59 1.59v21.8c0 .62-.21 1.14-.59 1.52s-.91.59-1.53.59h-1.39v2.52h12.74v-2.52h-1.39c-.63 0-1.15-.21-1.53-.59s-.59-.9-.59-1.52v-14.44c0-1.83.42-3.66 1.18-5.46.8-1.76 1.98-3.25 3.55-4.39s3.45-1.69 5.61-1.69c2.44 0 4.28.76 5.43 2.28s1.74 3.49 1.74 5.84v17.83c0 .62-.21 1.14-.59 1.52s-.91.59-1.53.59h-1.39v2.52h12.74v-2.52h-1.39c-.54.06-1.03-.14-1.45-.52zm116.3-41.25c-3.52-1.88-7.46-2.85-11.71-2.85h-16.58v2.54h1.62c.62 0 1.17.24 1.73.8.52.52.79 1.11.79 1.74v37.38c0 .63-.28 1.22-.79 1.74-.52.52-1.11.8-1.73.8h-1.62v2.54h16.58c4.25 0 8.19-.97 11.71-2.85s6.39-4.65 8.46-8.2c2.07-3.54 3.14-7.82 3.14-12.68s-1.07-9.1-3.14-12.68c-2.11-3.62-4.94-6.4-8.46-8.28zm4.93 20.88c0 4.45-.79 8.2-2.35 11.22-1.55 3.02-3.63 5.28-6.18 6.74-2.56 1.46-5.39 2.19-8.43 2.19h-3.35c-.62 0-1.17-.24-1.73-.8-.52-.52-.79-1.11-.79-1.74V213.5c0-.63.24-1.18.79-1.74.52-.52 1.11-.8 1.73-.8h3.35c3.04 0 5.87.73 8.43 2.19s4.63 3.72 6.18 6.74c1.56 3.02 2.35 6.8 2.35 11.25zm45.8 2.54c-1.53-1.77-4.49-3.27-7.97-4.06 4.8-2.4 7.27-5.77 7.27-10.11 0-2.36-.62-4.48-1.88-6.29-1.25-1.81-3.03-3.27-5.29-4.27-2.26-1.01-4.91-1.53-7.9-1.53h-18.76v2.54h1.5c.63 0 1.18.24 1.74.8.52.52.8 1.11.8 1.74v37.38c0 .63-.28 1.22-.8 1.74s-1.11.8-1.74.8h-1.64v2.54h20.37c3.1 0 5.99-.52 8.6-1.56s4.7-2.57 6.2-4.59c1.53-2.01 2.3-4.48 2.3-7.33-.05-3.08-.95-5.68-2.8-7.8zm-23.36 16.84c-.52-.52-.8-1.11-.8-1.74V232h9.68c3.41 0 6.02.87 7.83 2.6 1.81 1.74 2.72 3.99 2.72 6.77 0 1.67-.42 3.3-1.18 4.79-.8 1.53-1.99 2.74-3.59 3.68-1.57.94-3.52 1.42-5.78 1.42h-7.14c-.62.06-1.18-.22-1.74-.74zm-.76-22.09v-14.9c0-.63.24-1.18.8-1.74.52-.52 1.11-.8 1.74-.8h4.6c3.31 0 5.74.83 7.28 2.43 1.53 1.63 2.3 3.72 2.3 6.29 0 2.64-.73 4.76-2.16 6.36-1.43 1.56-3.59 2.36-6.44 2.36h-8.12zm-191.37-5.97c-2.66-1.45-5.63-2.22-8.84-2.22s-6.22.73-8.84 2.22c-2.66 1.45-4.77 3.57-6.32 6.23-1.55 2.67-2.35 5.78-2.35 9.24s.79 6.58 2.35 9.24c1.55 2.67 3.66 4.78 6.32 6.23s5.63 2.22 8.84 2.22 6.22-.73 8.84-2.22c2.66-1.45 4.77-3.57 6.32-6.23 1.55-2.67 2.35-5.78 2.35-9.24s-.79-6.58-2.35-9.24a16.58 16.58 0 0 0-6.32-6.23zm2.55 15.47c0 4.26-1.04 7.72-3.11 10.21-2.04 2.49-4.84 3.77-8.29 3.77s-6.25-1.28-8.29-3.77c-2.07-2.49-3.11-5.95-3.11-10.21s1.04-7.72 3.11-10.21c2.04-2.49 4.84-3.77 8.29-3.77s6.25 1.28 8.29 3.77c2.08 2.53 3.11 5.95 3.11 10.21zm119.75-15.47c-2.66-1.45-5.63-2.22-8.84-2.22s-6.22.73-8.84 2.22c-2.66 1.45-4.77 3.57-6.32 6.23s-2.35 5.78-2.35 9.24.79 6.58 2.35 9.24c1.55 2.67 3.66 4.78 6.32 6.23s5.63 2.22 8.84 2.22 6.22-.73 8.84-2.22c2.66-1.45 4.77-3.57 6.32-6.23 1.55-2.67 2.35-5.78 2.35-9.24s-.79-6.58-2.35-9.24c-1.55-2.67-3.7-4.74-6.32-6.23zm2.55 15.47c0 4.26-1.04 7.72-3.11 10.21-2.04 2.49-4.84 3.77-8.29 3.77s-6.25-1.28-8.29-3.77c-2.07-2.49-3.11-5.95-3.11-10.21 0-4.29 1.04-7.72 3.11-10.21 2.04-2.49 4.84-3.77 8.29-3.77s6.25 1.28 8.29 3.77c2.04 2.53 3.11 5.95 3.11 10.21zm-51.89-17.7c-2.78 0-5.32.59-7.62 1.77s-4.11 2.78-5.39 4.83c-1.29 2.02-1.95 4.28-1.95 6.68 0 2.16.49 4.14 1.5 5.91.97 1.7 2.3 3.13 3.97 4.31l-4.98 6.75c-.63.83-.7 1.95-.24 2.85.49.94 1.39 1.5 2.44 1.5h1.43c-1.39.94-2.51 2.05-3.27 3.37-.9 1.5-1.36 3.06-1.36 4.66 0 2.99 1.32 5.46 3.93 7.3 2.57 1.84 6.19 2.78 10.75 2.78 3.17 0 6.19-.52 8.94-1.53 2.78-1.01 5.04-2.5 6.72-4.45 1.71-1.95 2.58-4.31 2.58-7.03 0-2.85-1.04-4.87-3.48-6.82-2.09-1.63-5.36-2.5-9.43-2.5h-13.92c-.03 0-.07-.04-.07-.04s-.03-.07 0-.1l3.62-4.87a12.59 12.59 0 0 0 2.68.9c.83.17 1.77.24 2.82.24 2.92 0 5.57-.59 7.86-1.77 2.3-1.18 4.14-2.78 5.46-4.83 1.32-2.02 1.98-4.28 1.98-6.68 0-2.57-1.25-7.27-4.66-9.67 0-.03.04-.03.04-.03l7.48.83v-3.44H255.3a19.14 19.14 0 0 0-5.85-.92zm4.18 21.74c-1.32.7-2.75 1.08-4.18 1.08-2.33 0-4.38-.83-6.12-2.47-1.74-1.63-2.61-4.03-2.61-7.09s.87-5.46 2.61-7.09 3.79-2.47 6.12-2.47a8.54 8.54 0 0 1 4.18 1.08c1.32.7 2.4 1.77 3.27 3.2.83 1.43 1.29 3.2 1.29 5.29 0 2.12-.42 3.89-1.29 5.29-.83 1.41-1.95 2.48-3.27 3.18zm-9.43 12.83h9.43c2.61 0 4.28.52 5.39 1.63s1.67 2.61 1.67 4.35c0 2.54-1.01 4.63-3.03 6.19s-4.73 2.36-8.07 2.36c-2.92 0-5.36-.66-7.13-1.91s-2.68-3.16-2.68-5.6c0-1.53.42-2.96 1.25-4.21.84-1.24 1.85-2.15 3.17-2.81zm157.6-.47c-.69-.38-1.2-.92-1.62-1.57a4.4 4.4 0 0 1-.59-2.18 4.29 4.29 0 0 1 .59-2.18c.38-.68.93-1.19 1.62-1.57s1.45-.58 2.31-.58 1.62.2 2.31.58 1.2.92 1.62 1.57a4.4 4.4 0 0 1 .59 2.18 4.29 4.29 0 0 1-.59 2.18c-.38.68-.93 1.19-1.62 1.57s-1.45.58-2.31.58a4.77 4.77 0 0 1-2.31-.58zm4.23-.51c.58-.31 1-.78 1.34-1.33a4.08 4.08 0 0 0 .48-1.95 4.08 4.08 0 0 0-.48-1.95c-.31-.58-.76-1.02-1.34-1.33a4.03 4.03 0 0 0-1.93-.48 4.03 4.03 0 0 0-1.93.48c-.58.31-1 .79-1.34 1.33a4.08 4.08 0 0 0-.48 1.95 4.08 4.08 0 0 0 .48 1.95c.31.58.76 1.02 1.34 1.33a4.03 4.03 0 0 0 1.93.48c.72 0 1.38-.17 1.93-.48zm-3.79-1.2v-.31l.07-.03h.21c.07 0 .14-.03.17-.07.07-.07.07-.1.07-.17v-3.17c0-.07-.03-.14-.07-.17-.07-.07-.1-.07-.17-.07h-.21l-.07-.03v-.31l.07-.03h1.79c.52 0 .89.1 1.2.34s.45.55.45.96c0 .31-.1.61-.34.82-.24.24-.52.38-.86.41l.41.14.79 1.26c.07.1.14.14.24.14h.2l.03.03v.31l-.03.03h-1.06l-.07-.03-1.1-1.84h-.27v1.23c0 .07.03.14.07.17.07.07.1.07.17.07h.21l.07.03v.31l-.07.03h-1.82l-.08-.05zm1.76-2.22c.28 0 .52-.07.66-.24.14-.14.24-.38.24-.65s-.07-.48-.2-.65c-.14-.17-.35-.24-.59-.24h-.14c-.07 0-.14.03-.17.07-.07.07-.07.1-.07.17v1.54h.27z" fill="#64bd57"/></svg>