<svg id="NodeJs" xmlns="http://www.w3.org/2000/svg" xmlns:xlink="http://www.w3.org/1999/xlink" viewBox="0 0 466.48 440.97"><defs><style>.cls-1{fill:none;}.cls-2{clip-path:url(#clip-path);}.cls-3{fill:#10182b;}.cls-4{clip-path:url(#clip-path-2);}.cls-5,.cls-7{fill:#60a04e;}.cls-6{fill:#fff;}.cls-6,.cls-7{fill-rule:evenodd;}.cls-8{fill:url(#linear-gradient);}.cls-9{fill:url(#linear-gradient-2);}.cls-10{fill:url(#linear-gradient-3);}</style><clipPath id="clip-path" transform="translate(30.05 7.77)"><rect class="cls-1" x="-28.89" y="-6.27" width="464.16" height="437.97" transform="translate(-1.49 1.43) rotate(-0.4)"/></clipPath><clipPath id="clip-path-2" transform="translate(30.05 7.77)"><rect class="cls-1" x="75.7" y="168.75" width="269.97" height="80.26"/></clipPath><linearGradient id="linear-gradient" x1="-324.75" y1="738.93" x2="-342.64" y2="702.66" gradientTransform="matrix(1, 0, 0, -1, 484.46, 945.5)" gradientUnits="userSpaceOnUse"><stop offset="0" stop-color="#418840"/><stop offset="0.33" stop-color="#418c41"/><stop offset="0.64" stop-color="#3f9645"/><stop offset="0.93" stop-color="#3fa948"/><stop offset="1" stop-color="#3daf49"/></linearGradient><linearGradient id="linear-gradient-2" x1="-335.8" y1="719.97" x2="-285.88" y2="756.62" gradientTransform="matrix(1, 0, 0, -1, 484.46, 945.5)" gradientUnits="userSpaceOnUse"><stop offset="0.14" stop-color="#418840"/><stop offset="0.4" stop-color="#52a045"/><stop offset="0.71" stop-color="#65b748"/><stop offset="0.91" stop-color="#6dbe4c"/></linearGradient><linearGradient id="linear-gradient-3" x1="-355.46" y1="722.6" x2="-310.13" y2="722.6" gradientTransform="matrix(1, 0, 0, -1, 484.46, 945.5)" gradientUnits="userSpaceOnUse"><stop offset="0.09" stop-color="#6dbe4c"/><stop offset="0.29" stop-color="#65b748"/><stop offset="0.6" stop-color="#52a045"/><stop offset="0.86" stop-color="#418840"/></linearGradient></defs><g class="cls-2"><path class="cls-3" d="M-13.69-4.76,417-7.77c9.24-.07,16.9,23.65,17.1,53L436.43,377c.2,29.32-7.12,53.14-16.36,53.2l-430.69,3c-9.24.06-16.89-23.65-17.1-53L-30,48.45C-30.25,19.13-22.93-4.69-13.69-4.76Z" transform="translate(30.05 7.77)"/></g><g class="cls-4"><path class="cls-5" d="M313.29,248.38a4.11,4.11,0,0,1-2-.51l-6.19-3.7c-.93-.52-.47-.71-.19-.8a11,11,0,0,0,2.79-1.26.43.43,0,0,1,.47,0L313,245a.59.59,0,0,0,.55,0l18.57-10.82a.53.53,0,0,0,.28-.51V212.09a.53.53,0,0,0-.28-.51l-18.57-10.77a.59.59,0,0,0-.55,0L294.4,211.58a.58.58,0,0,0-.28.51v21.59a.57.57,0,0,0,.28.51l5.07,2.95c2.75,1.41,4.47-.23,4.47-1.87V214a.57.57,0,0,1,.56-.57h2.37a.57.57,0,0,1,.56.57v21.3c0,3.7-2,5.85-5.49,5.85a7.94,7.94,0,0,1-4.28-1.17l-4.89-2.81a3.94,3.94,0,0,1-1.95-3.41V212.14a4,4,0,0,1,1.95-3.42l18.57-10.81a4.11,4.11,0,0,1,3.91,0l18.56,10.81a4,4,0,0,1,2,3.42v21.59a4,4,0,0,1-2,3.41L315.25,248A5.31,5.31,0,0,1,313.29,248.38Z" transform="translate(30.05 7.77)"/></g><g class="cls-4"><path class="cls-5" d="M319.06,233.54c-8.14,0-9.82-3.75-9.82-6.93a.57.57,0,0,1,.56-.56h2.42a.47.47,0,0,1,.51.46c.37,2.49,1.45,3.7,6.38,3.7,3.91,0,5.58-.89,5.58-3,0-1.22-.46-2.11-6.56-2.72-5.07-.51-8.24-1.64-8.24-5.71,0-3.79,3.17-6,8.47-6,6,0,8.89,2.06,9.26,6.55a.76.76,0,0,1-.14.43.57.57,0,0,1-.37.18h-2.47a.54.54,0,0,1-.51-.42c-.56-2.57-2-3.42-5.81-3.42-4.28,0-4.8,1.5-4.8,2.63,0,1.35.61,1.77,6.38,2.52s8.42,1.83,8.42,5.86S324.92,233.54,319.06,233.54Z" transform="translate(30.05 7.77)"/></g><g class="cls-4"><path class="cls-5" d="M345.87,210.88a3.59,3.59,0,1,1-3.59-3.61A3.63,3.63,0,0,1,345.87,210.88Zm-6.61,0a3,3,0,0,0,3,3,3.06,3.06,0,0,0,3-3,3,3,0,1,0-6,0Zm1.67-2h1.4c.47,0,1.4,0,1.4,1.08a.9.9,0,0,1-.75,1c.56.05.61.42.65.94a6.26,6.26,0,0,0,.19,1.08H343c0-.19-.14-1.22-.14-1.27,0-.23-.14-.33-.42-.33h-.69V213h-.8Zm.75,1.78h.6a.54.54,0,0,0,.61-.56c0-.56-.37-.56-.61-.56h-.65v1.12Z" transform="translate(30.05 7.77)"/></g><g class="cls-4"><path class="cls-6" d="M119.86,211.17a2.4,2.4,0,0,0-1.21-2.06L99,197.64a2.79,2.79,0,0,0-1.07-.33h-.18a2.13,2.13,0,0,0-1.07.33L76.91,209.06a2.41,2.41,0,0,0-1.21,2.11l0,30.72a1.18,1.18,0,0,0,.61,1,1.06,1.06,0,0,0,1.16,0l11.73-6.75a2.38,2.38,0,0,0,1.21-2.06V219.74a2.37,2.37,0,0,1,1.21-2.06l5-2.9a2.19,2.19,0,0,1,1.21-.33,2,2,0,0,1,1.16.33l5,2.9a2.4,2.4,0,0,1,1.21,2.06v14.37a2.36,2.36,0,0,0,1.21,2.06L118,242.92a1.15,1.15,0,0,0,1.21,0,1.18,1.18,0,0,0,.61-1Z" transform="translate(30.05 7.77)"/></g><g class="cls-4"><path class="cls-6" d="M214.69,168.89a1.25,1.25,0,0,0-1.16,0,1.22,1.22,0,0,0-.61,1v30.44a.88.88,0,0,1-.42.74.82.82,0,0,1-.83,0l-4.94-2.85a2.39,2.39,0,0,0-2.37,0l-19.73,11.47a2.4,2.4,0,0,0-1.21,2.06v22.9a2.41,2.41,0,0,0,1.21,2.06l19.73,11.47a2.39,2.39,0,0,0,2.37,0l19.73-11.47a2.39,2.39,0,0,0,1.21-2.06V177.6a2.4,2.4,0,0,0-1.21-2.11Zm-1.82,58.25a.54.54,0,0,1-.27.51l-6.75,3.94a.72.72,0,0,1-.61,0l-6.74-3.94a.57.57,0,0,1-.28-.51v-7.87a.53.53,0,0,1,.28-.51l6.74-3.94a.72.72,0,0,1,.61,0l6.75,3.94a.58.58,0,0,1,.27.51Z" transform="translate(30.05 7.77)"/></g><g class="cls-4"><path class="cls-6" d="M280.35,219.08a2.34,2.34,0,0,0,1.16-2.06v-5.57a2.46,2.46,0,0,0-1.16-2.06L260.76,198a2.41,2.41,0,0,0-2.38,0l-19.73,11.47a2.4,2.4,0,0,0-1.21,2.06v22.9a2.41,2.41,0,0,0,1.21,2.06l19.59,11.23a2.31,2.31,0,0,0,2.33,0L272.43,241a1.14,1.14,0,0,0,.61-1,1.16,1.16,0,0,0-.61-1l-19.82-11.47a1.22,1.22,0,0,1-.6-1v-7.16a1.17,1.17,0,0,1,.6-1l6.19-3.56a1.15,1.15,0,0,1,1.21,0l6.19,3.56a1.22,1.22,0,0,1,.6,1v5.62a1.18,1.18,0,0,0,.61,1,1.15,1.15,0,0,0,1.21,0Z" transform="translate(30.05 7.77)"/></g><g class="cls-4"><path class="cls-7" d="M259.27,218a.39.39,0,0,1,.46,0l3.77,2.2a.48.48,0,0,1,.23.42V225a.48.48,0,0,1-.23.42l-3.77,2.2a.39.39,0,0,1-.46,0l-3.77-2.2a.49.49,0,0,1-.24-.42v-4.4a.49.49,0,0,1,.24-.42Z" transform="translate(30.05 7.77)"/></g><g class="cls-4"><path class="cls-8" d="M152.85,198.06a2.41,2.41,0,0,0-2.38,0l-19.59,11.38a2.35,2.35,0,0,0-1.16,2.06v22.8a2.44,2.44,0,0,0,1.16,2.06l19.59,11.38a2.41,2.41,0,0,0,2.38,0l19.59-11.38a2.35,2.35,0,0,0,1.16-2.06V211.5a2.46,2.46,0,0,0-1.16-2.06Z" transform="translate(30.05 7.77)"/></g><g class="cls-4"><path class="cls-9" d="M172.48,209.44,152.8,198.06a3.2,3.2,0,0,0-.6-.23l-22.06,38a2.45,2.45,0,0,0,.65.56l19.68,11.38a2.25,2.25,0,0,0,1.82.23L173,209.86A1.38,1.38,0,0,0,172.48,209.44Z" transform="translate(30.05 7.77)"/></g><g class="cls-4"><path class="cls-10" d="M172.48,236.36a2.69,2.69,0,0,0,1.17-1.5L152.1,197.78a2.34,2.34,0,0,0-1.67.28l-19.55,11.33L152,248.07a3.39,3.39,0,0,0,.89-.28Z" transform="translate(30.05 7.77)"/></g></svg>