<svg id="NPM" xmlns="http://www.w3.org/2000/svg" viewBox="0 0 401.47 156.13"><defs><style>.cls-1{fill:#cc3937;}.cls-2{fill:#fff;}</style></defs><path class="cls-1" d="M9.26,131.94H410.74V265.76H210v22.3H120.78v-22.3H9.26ZM31.57,243.46H76.18V176.54h22.3v66.92h22.3V154.24H31.57Zm111.52-89.22V265.76H187.7v-22.3h44.6V154.24Zm44.61,22.3H210v44.61H187.7Zm66.91-22.3v89.22h44.61V176.54h22.3v66.92h22.3V176.54h22.31v66.92h22.3V154.24Z" transform="translate(-9.26 -131.94)"/><polygon class="cls-2" points="22.3 111.52 66.91 111.52 66.91 44.61 89.22 44.61 89.22 111.52 111.52 111.52 111.52 22.3 22.3 22.3 22.3 111.52"/><path class="cls-2" d="M143.09,154.24V265.76H187.7v-22.3h44.6V154.24ZM210,221.15H187.7V176.54H210Z" transform="translate(-9.26 -131.94)"/><polygon class="cls-2" points="245.34 22.3 245.34 111.52 289.95 111.52 289.95 44.61 312.25 44.61 312.25 111.52 334.56 111.52 334.56 44.61 356.86 44.61 356.86 111.52 379.17 111.52 379.17 22.3 245.34 22.3"/></svg>