<svg id="RestAPI" xmlns="http://www.w3.org/2000/svg" viewBox="0 0 339.27 339.27"><defs><style>.cls-1{fill:#010101;fill-opacity:0;}.cls-2{fill:#fff;}</style></defs><rect class="cls-1" width="339.27" height="339.27"/><path class="cls-2" d="M176.35,72.88A13.69,13.69,0,0,0,162.9,84l-4.58,23.51a108.79,108.79,0,0,0-30.77,17.68L105,117.39a13.7,13.7,0,0,0-16.33,6.13L68,159.36a13.75,13.75,0,0,0,2.87,17.22L88.91,192.3A108.66,108.66,0,0,0,87.35,210a111,111,0,0,0,1.56,17.73L70.83,243.45A13.75,13.75,0,0,0,68,260.67L88.67,296.5A13.7,13.7,0,0,0,105,302.61l22.55-7.77a109,109,0,0,0,30.77,17.71s.66,7.17,4.07,20.89,14.31,13.71,14.31,13.71h5.89l23.06-76.49a27.4,27.4,0,0,1,26.24-19.52h99.74l.16-.3-26.6-23.14a101.36,101.36,0,0,0,0-35.43l18.08-15.72a13.75,13.75,0,0,0,2.87-17.22L305.43,123.5a13.7,13.7,0,0,0-16.33-6.11l-22.55,7.77a109,109,0,0,0-30.77-17.71L231.2,84a13.68,13.68,0,0,0-13.45-11.09Zm20.7,96A41.14,41.14,0,1,1,155.91,210,41.14,41.14,0,0,1,197.05,168.86Zm32.16,109.7-18.45,68.56H225.2l3.53-13.71h18.75L251,347.12h14.57l-18.56-68.56Zm50.11,0v68.56H293V319.7h6.86a20.57,20.57,0,0,0,0-41.14Zm54.85,0v68.56h13.71V278.56ZM293,292.27h6.86a6.86,6.86,0,1,1,0,13.71H293Zm-54.95,4.85,5.86,22.58H232.27Z" transform="translate(-37.43 -40.37)"/></svg>