<svg xmlns="http://www.w3.org/2000/svg" xmlns:xlink="http://www.w3.org/1999/xlink" viewBox="0 0 420 420" xmlns:v="https://vecta.io/nano"><defs><path id="A" d="M39.03 243.09h350.59v92.8H39.03z"/></defs><clipPath id="B"><use xlink:href="#A"/></clipPath><g clip-path="url(#B)"><defs><path id="C" d="M39.03 243.09h350.59v92.8H39.03z"/></defs><clipPath id="D"><use xlink:href="#C"/></clipPath><g clip-path="url(#D)"><path d="M383.33 324.08c-7.14 2.89-19.85 2.58-38.13-.93-38.15-7.29-52.62-8.49-43.41-3.61 2.97 1.59 3.71 3.36 2.27 5.36s-4.85 3.82-10 5.47c-12.37 3.97-28.7 5.42-48.98 4.33-19.52-1.03-44.37-6.12-74.55-15.26-13.4-4.12-23.41-6.81-30.01-8.04a91.31 91.31 0 0 0-28.56-1.48c-12.53 1.5-30.57 5.97-54.14 13.4a74.85 74.85 0 0 1-15.05 3.61c-3.3.12-4.39-1.44-3.3-4.74 2.25-7.11 14.11-16.89 35.57-29.35 16.54-9.56 33.62-18.17 51.15-25.78 13.84-6.18 28.06-11.45 42.59-15.78a161.35 161.35 0 0 1 45.99-6.81c3.38.06 6.54 3.32 9.57 9.75s6.19 10.31 9.18 10.72c33.2 4.66 60.01 9.82 80.43 15.47 25.01 6.96 45.84 15.89 62.49 26.81 12.29 8.04 14.63 13.61 7.01 16.7l-.12.16z" fill-rule="evenodd" fill="#717874"/></g></g><defs><path id="E" d="M57.07 255.98h317.08v74.76H57.07z"/></defs><clipPath id="F"><use xlink:href="#E"/></clipPath><g clip-path="url(#F)"><defs><path id="G" d="M57.07 255.98h317.08v74.76H57.07z"/></defs><clipPath id="H"><use xlink:href="#G"/></clipPath><g clip-path="url(#H)"><path d="M323.73 314.03c-6.82-1.31-13.7-2.28-20.62-2.89-8.99-.82-13.2-.56-12.58.82 2.35 4.59 2.87 7.82 1.55 9.69-3.63 5.5-13.87 8.15-30.73 7.94-11.38-.23-22.72-1.33-33.92-3.3a269.72 269.72 0 0 1-31.22-7.53L165.28 310l-28.03-6.7c-9.47-1.89-19.2-2.17-28.77-.82-4.47.74-11.9 2.32-22.29 4.74l-22.36 4.95c-12.51 2.53-4.09-4.14 25.26-20 6.31-2.89 13.83-6.05 22.56-9.49l22.89-8.66c31.07-11.82 58.29-17.55 81.65-17.18 3.24 0 7.73 1.55 13.53 4.43 4.12 2.35 8.56 4.09 13.18 5.16 49.03 5.9 89.69 18.89 121.99 38.98 6.48 3.98 9.22 7.49 8.25 10.52s-4.35 3.94-10.13 3.61c-13.17-1.02-26.26-2.88-39.18-5.57l-.1.06z" fill-rule="evenodd" fill="#41464e"/></g></g><linearGradient id="I" gradientUnits="userSpaceOnUse" x1="77.695" y1="207.41" x2="348.032" y2="207.41"><stop offset="0" stop-color="#3f286b"/><stop offset=".38" stop-color="#793d97"/><stop offset="1" stop-color="#3f286b"/></linearGradient><path d="M264.66 160.89c3.46 14.91 1.32 4 4.45 20.25 6.87 37.12 14.64 61.66 23.3 73.62a229.31 229.31 0 0 0 25.9 30.11L341 306.52c7.4 7.77 8.97 12.52 4.62 14.23-3.78 1.57-11.51.64-23.2-2.78-10.99-3.3-12.23-4.33-23.45-5.07s-21.8 1.92-16.93 5.01c5.3 3.28.76 4.29-8.39 8s-21.24 5.38-35.66 4.62c-18.18-.91-40.07-5.41-65.68-13.51-24.62-7.84-40.95-11.76-48.98-11.76-8.39 0-20.07 2.2-35.06 6.6-2.98 1.11-6.11 1.81-9.28 2.06-1.71-.27-1.75-1.86 0-4.74 2.07-3.43 4.56-6.58 7.42-9.38l10.21-10.31c9.16-9.9 18.25-19.92 23.96-30.38 6.19-17.14 6.97-19.86 13.8-49.5l8.08-35.97c1.92-12.5 8.37-49.6 22.54-68.06 15.54-20.21 33.41-26.16 53.62-17.86 22.7 9.3 39.24 34.25 46.04 73.17z" fill="url(#I)"/><path d="M212.9 160.2c0-2.74 1.13-4.33 3.4-4.74 1.38-.27 4.48 1.09 8.62 1.36 2.83-.14 5.63-.53 8.39-1.15a4.13 4.13 0 0 1 3.61 4.54c-.09 3.11-1.38 6.07-3.61 8.25-4.72 4.54-12.19 4.54-16.91 0-2.27-2.14-3.55-5.13-3.5-8.26zm-40.73 1.35c0-2.74.54-5.67 2.72-6.19 1.38-.27 4.7 1.07 8.83 1.34 3.12-.18 6.18-.88 9.07-2.06 2.47.47 3.36 4.12 3.3 6.74-.01 3.11-1.28 6.08-3.51 8.25-4.72 4.54-12.19 4.54-16.91 0-2.23-2.09-3.5-5.02-3.5-8.08z" fill-rule="evenodd" fill="#fdd700"/></svg>