<svg xmlns="http://www.w3.org/2000/svg" xmlns:xlink="http://www.w3.org/1999/xlink" viewBox="0 0 420 420" xmlns:v="https://vecta.io/nano"><defs><path id="A" d="M44.29 110.58H375.7v198.85H44.29z"/></defs><clipPath id="B"><use xlink:href="#A"/></clipPath><g clip-path="url(#B)"><path d="M210 110.58c-44.19 0-71.81 22.09-82.85 66.28 16.57-22.09 35.9-30.38 58-24.86 12.61 3.15 21.62 12.3 31.59 22.42 16.25 16.49 35.05 35.58 76.12 35.58 44.19 0 71.81-22.09 82.85-66.28-16.57 22.09-35.9 30.38-58 24.86-12.61-3.15-21.62-12.3-31.59-22.42-16.24-16.5-35.05-35.58-76.12-35.58zM127.15 210c-44.19 0-71.81 22.09-82.85 66.28 16.57-22.09 35.9-30.38 58-24.86 12.61 3.15 21.62 12.3 31.59 22.42 16.25 16.49 35.05 35.58 76.12 35.58 44.19 0 71.81-22.09 82.85-66.28-16.57 22.09-35.9 30.38-58 24.86-12.61-3.15-21.62-12.3-31.59-22.42-16.25-16.49-35.05-35.58-76.12-35.58z" fill-rule="evenodd" fill="#4cbbeb"/></g></svg>