<svg id="Typescript" xmlns="http://www.w3.org/2000/svg" viewBox="0 0 348.88 348.88"><defs><style>.cls-1{fill:#3978bd;}.cls-2{fill:#fff;fill-rule:evenodd;}</style></defs><rect class="cls-1" width="348.88" height="348.88" rx="34.07"/><rect class="cls-1" width="348.88" height="348.88" rx="34.07"/><path class="cls-2" d="M251.52,313.18v34.11a72.1,72.1,0,0,0,19.68,6.4,129.7,129.7,0,0,0,23.94,2.13,112.11,112.11,0,0,0,23.3-2.34,57.28,57.28,0,0,0,19.36-7.73A39.41,39.41,0,0,0,351,331.68q4.84-8.69,4.85-21.48a43.85,43.85,0,0,0-2.77-16.26,38,38,0,0,0-8-12.42,58.66,58.66,0,0,0-12.53-9.75A133.91,133.91,0,0,0,316,263.61q-6.71-2.76-12.05-5.38a61.48,61.48,0,0,1-9.06-5.33,23.1,23.1,0,0,1-5.76-5.76,12.09,12.09,0,0,1-2-6.87,11.46,11.46,0,0,1,1.82-6.34,15.66,15.66,0,0,1,5.12-4.86,27.39,27.39,0,0,1,8.1-3.14,46.76,46.76,0,0,1,10.66-1.12,67.11,67.11,0,0,1,9,.64,71.57,71.57,0,0,1,9.54,2,66.48,66.48,0,0,1,9.33,3.36,51.24,51.24,0,0,1,8.37,4.69V203.6a83.31,83.31,0,0,0-17-4.43,138.42,138.42,0,0,0-21.16-1.44,98.45,98.45,0,0,0-23,2.62,58.68,58.68,0,0,0-19.14,8.15,40.75,40.75,0,0,0-13.07,14.13q-4.8,8.58-4.8,20.52,0,15.24,8.8,26t26.72,18.23q7,2.87,13.11,5.64A72.85,72.85,0,0,1,310,298.79a27.5,27.5,0,0,1,7,6.5,13.24,13.24,0,0,1,2.56,8,12.22,12.22,0,0,1-1.6,6.13,14.08,14.08,0,0,1-4.85,4.9,26.5,26.5,0,0,1-8.1,3.25,48.3,48.3,0,0,1-11.36,1.18,64.65,64.65,0,0,1-22-3.9,65.54,65.54,0,0,1-20.16-11.67Zm-57.34-84h43.76v-28H116v28h43.54V353.78h34.67Z" transform="translate(-35.56 -35.56)"/></svg>