<svg id="Vitest" xmlns="http://www.w3.org/2000/svg" xmlns:xlink="http://www.w3.org/1999/xlink" viewBox="0 0 509.7 509.7"><defs><style>.cls-1{fill:none;}.cls-2{fill:#1f1e20;}.cls-3{clip-path:url(#clip-path);}.cls-4{fill:#fdc82c;}.cls-5,.cls-6{fill:#719c3f;}.cls-6{fill-opacity:0.5;}</style><clipPath id="clip-path" transform="translate(44.85 44.85)"><rect class="cls-1" x="65" y="65" width="290" height="290"/></clipPath></defs><rect class="cls-2" width="509.7" height="509.7" rx="7.03"/><g class="cls-3"><path class="cls-4" d="M277.37,165.63l-63.52,91.83a5.38,5.38,0,0,1-2.77,2.08,5.44,5.44,0,0,1-6.23-2.09,5.39,5.39,0,0,1-.94-3.32l2.55-50.71-41-8.7a5.41,5.41,0,0,1-2.38-1.16,5.32,5.32,0,0,1-1.55-2.14,5.42,5.42,0,0,1,.58-5.09L225.59,94.5a5.43,5.43,0,0,1,2.77-2.08,5.48,5.48,0,0,1,6.23,2.09,5.41,5.41,0,0,1,.94,3.33L233,148.54l41,8.7a5.52,5.52,0,0,1,2.38,1.16,5.41,5.41,0,0,1,1,7.23Z" transform="translate(44.85 44.85)"/><path class="cls-5" d="M210.86,334.51a12.78,12.78,0,0,1-9.1-3.76l-60-60a12.86,12.86,0,0,1,18.18-18.18l50.93,50.91L321.79,192.53A12.86,12.86,0,0,1,340,210.72l-120,120a12.78,12.78,0,0,1-9.09,3.76Z" transform="translate(44.85 44.85)"/><path class="cls-6" d="M210.8,334.51a12.78,12.78,0,0,0,9.1-3.76l60-60a12.86,12.86,0,0,0-18.18-18.18L210.8,303.46,99.87,192.53a12.86,12.86,0,0,0-18.19,18.19l120,120a12.78,12.78,0,0,0,9.09,3.76Z" transform="translate(44.85 44.85)"/></g></svg>