<svg id="Yarn" xmlns="http://www.w3.org/2000/svg" viewBox="0 0 343.53 343.53"><defs><style>.cls-1{fill:#2c8fbc;}.cls-2{fill:#fff;}</style></defs><path class="cls-1" d="M210,38.23A171.77,171.77,0,1,1,38.23,210,171.8,171.8,0,0,1,210,38.23Z" transform="translate(-38.23 -38.23)"/><path class="cls-2" d="M326.85,262.06c-1.19-9.42-9.15-15.92-19.36-15.78-15.25.2-28.05,8.09-36.54,13.33a81.81,81.81,0,0,1-8.62,4.71,70.41,70.41,0,0,0-3.92-28.85c-4.84-13.27-11.34-21.42-16-26.13,5.37-7.83,12.73-19.24,16.18-36.88,3-15.05,2.06-38.46-4.77-51.59a10.54,10.54,0,0,0-6.64-5.37c-1.19-.34-3.44-1-7.89.26-6.7-13.86-9-15.32-10.81-16.51a13.53,13.53,0,0,0-12.2-1.4c-5.5,2-10.21,7.3-14.66,16.72-.66,1.39-1.26,2.72-1.79,4A48.91,48.91,0,0,0,167,134.4c-1.39,1.52-4.11,2.65-7,3.71h.06c-5.83,2.06-8.49,6.83-11.74,15.45-4.51,12.07.14,23.94,4.71,31.64-6.23,5.57-14.52,14.45-18.9,24.87a79,79,0,0,0-5.83,32.29c-4.65,4.91-11.81,14.13-12.61,24.48-1.06,14.45,4.18,24.27,6.5,27.85a19.18,19.18,0,0,0,2.19,2.78,16.64,16.64,0,0,0,.07,5.71A15.38,15.38,0,0,0,132.67,314c8.76,4.64,21,6.63,30.38,1.92,3.38,3.58,9.55,7,20.75,7h.67c2.85,0,39.06-1.92,49.6-4.51a24.14,24.14,0,0,0,10.08-4.91c6.77-2.12,25.47-8.48,43.11-19.89,12.47-8.09,16.78-9.82,26.06-12.07a17.6,17.6,0,0,0,13.53-19.5Zm-15.78,9.75c-10.61,2.52-16,4.84-29.11,13.4-20.5,13.26-42.91,19.43-42.91,19.43s-1.86,2.78-7.23,4c-9.29,2.26-44.24,4.18-47.42,4.25-8.55.06-13.79-2.19-15.25-5.71-4.45-10.61,6.36-15.25,6.36-15.25a28,28,0,0,1-3.78-2.79c-1.26-1.26-2.58-3.78-3-2.85-1.66,4.05-2.52,13.93-7,18.37-6.11,6.17-17.64,4.12-24.48.53-7.49-4,.54-13.33.54-13.33s-4,2.39-7.3-2.52c-2.92-4.51-5.64-12.2-4.91-21.68.8-10.81,12.87-21.29,12.87-21.29a68.67,68.67,0,0,1,4.84-32.36c6.3-14.93,23.28-26.93,23.28-26.93s-14.26-15.78-9-30c3.45-9.28,4.85-9.21,6-9.61,4-1.53,7.83-3.19,10.68-6.3a38.71,38.71,0,0,1,32.43-12.47s8.62-26.2,16.58-21.09c2.45,1.59,11.27,21.22,11.27,21.22s9.42-5.5,10.48-3.45c5.71,11.08,6.37,32.23,3.85,45.1-4.25,21.22-14.86,32.63-19.1,39.79-1,1.66,11.41,6.9,19.23,28.59,7.23,19.82.8,36.47,1.93,38.33l.26.46s8.29.66,24.94-9.61c8.88-5.51,19.43-11.68,31.43-11.81,11.61-.2,12.2,13.4,3.45,15.52Z" transform="translate(-38.23 -38.23)"/></svg>