<?xml version="1.0" standalone="no"?>
<!DOCTYPE svg PUBLIC "-//W3C//DTD SVG 20010904//EN"
 "http://www.w3.org/TR/2001/REC-SVG-20010904/DTD/svg10.dtd">
<svg version="1.0" xmlns="http://www.w3.org/2000/svg"
 width="612.000000pt" height="612.000000pt" viewBox="0 0 612.000000 612.000000"
 preserveAspectRatio="xMidYMid meet">

<g transform="translate(0.000000,612.000000) scale(0.100000,-0.100000)"
fill="#000000" stroke="none">
<path d="M3501 5640 c-86 -46 -122 -78 -198 -178 -63 -84 -102 -164 -133 -277
-15 -55 -31 -90 -51 -111 -36 -37 -49 -80 -49 -159 0 -51 5 -68 37 -119 l36
-59 -1 -159 c-1 -88 -4 -163 -7 -168 -3 -5 -7 -44 -10 -87 -5 -78 -21 -117
-56 -133 -24 -13 -211 -68 -269 -80 -30 -6 -82 -20 -115 -29 -33 -10 -82 -23
-109 -30 -95 -23 -141 -49 -203 -120 -85 -94 -167 -233 -236 -396 -14 -33 -46
-109 -72 -170 -99 -233 -166 -417 -182 -506 -6 -34 12 -48 116 -86 l86 -31 -1
-59 c0 -32 -15 -121 -32 -198 -45 -203 -70 -384 -77 -550 -2 -60 -9 -126 -15
-145 -6 -19 -8 -48 -4 -65 8 -40 43 -144 60 -175 7 -14 20 -50 28 -80 8 -30
21 -80 29 -110 9 -30 23 -114 31 -187 10 -90 24 -158 45 -217 17 -47 38 -113
46 -147 9 -33 26 -84 39 -112 44 -100 68 -193 63 -244 -7 -64 -51 -258 -82
-359 -14 -44 -25 -83 -25 -87 0 -4 531 -7 1180 -7 1151 0 1180 0 1180 19 0 12
-16 27 -46 42 -60 31 -69 56 -90 263 l-15 159 30 62 c20 40 43 71 64 84 58 37
202 164 241 213 21 27 46 74 56 106 33 101 77 226 100 277 12 28 30 77 41 110
11 33 36 101 55 150 31 83 72 249 95 385 15 89 19 379 7 430 -6 25 -27 81 -46
125 -52 123 -85 227 -122 395 -28 125 -26 160 10 195 17 16 30 36 30 44 0 8
-20 45 -45 83 -54 80 -87 153 -105 228 -21 94 -93 268 -183 448 -27 54 -140
169 -183 187 -22 9 -35 24 -43 48 -8 23 -21 39 -39 46 -35 14 -230 41 -248 34
-13 -5 -151 22 -189 37 -70 28 -117 55 -126 72 -13 25 -2 180 16 225 11 26 90
111 167 180 9 8 33 46 53 84 l36 69 -7 93 c-6 84 -4 97 15 136 19 37 22 61 24
179 2 122 0 143 -21 194 -13 31 -40 74 -60 95 -82 83 -300 183 -400 183 -35 0
-66 -10 -121 -40z"/>
</g>
</svg>
