<?xml version="1.0" standalone="no"?>
<!DOCTYPE svg PUBLIC "-//W3C//DTD SVG 20010904//EN" "http://www.w3.org/TR/2001/REC-SVG-20010904/DTD/svg10.dtd">
<svg version="1.0" xmlns="http://www.w3.org/2000/svg" width="612.000000pt" height="612.000000pt"
    viewBox="0 0 612.000000 612.000000" preserveAspectRatio="xMidYMid meet">

    <g transform="translate(0.000000,612.000000) scale(0.100000,-0.100000)" fill="#000000" stroke="none">
        <path d="M0 3060 l0 -3060 1093 0 1093 0 27 88 c33 108 77 301 84 365 5 51
-19 144 -63 244 -13 28 -30 79 -39 112 -8 34 -29 100 -46 147 -21 59 -35 127
-45 217 -8 73 -22 157 -31 187 -8 30 -21 80 -29 110 -8 30 -21 66 -28 80 -17
31 -52 135 -60 175 -4 17 -2 46 4 65 6 19 13 85 15 145 7 166 32 347 77 550
17 77 32 166 32 198 l1 59 -86 31 c-104 38 -122 52 -116 86 16 89 83 273 182
506 26 61 58 137 72 170 69 163 151 302 236 396 62 71 108 97 203 120 27 7 76
20 109 30 33 9 85 23 115 29 58 12 245 67 269 80 35 16 51 55 56 133 3 43 7
82 10 87 3 5 6 80 7 168 l1 159 -36 59 c-32 51 -37 68 -37 119 0 79 13 122 49
159 20 21 36 56 51 111 12 44 35 108 50 142 33 72 122 194 180 247 60 54 170
106 225 106 98 0 317 -101 397 -183 20 -21 47 -64 60 -95 21 -51 23 -72 21
-194 -2 -118 -5 -142 -24 -179 -19 -39 -21 -52 -15 -136 l7 -93 -36 -69 c-20
-38 -44 -76 -53 -84 -77 -69 -156 -154 -167 -180 -18 -45 -29 -200 -16 -225 9
-17 56 -44 126 -72 38 -15 176 -42 189 -37 18 7 213 -20 248 -34 18 -7 31 -23
39 -46 8 -24 21 -39 43 -48 43 -18 156 -133 183 -187 90 -180 162 -354 183
-448 18 -75 51 -148 105 -228 25 -38 45 -75 45 -83 0 -8 -13 -28 -30 -44 -36
-35 -38 -70 -10 -195 37 -168 70 -272 122 -395 19 -44 40 -100 46 -125 12 -51
8 -341 -7 -430 -23 -136 -64 -302 -95 -385 -19 -49 -44 -117 -55 -150 -11 -33
-29 -82 -41 -110 -23 -51 -67 -176 -100 -277 -10 -32 -35 -79 -56 -106 -39
-49 -183 -176 -241 -213 -21 -13 -44 -44 -64 -84 l-30 -62 15 -159 c21 -207
30 -232 90 -263 30 -15 46 -30 46 -42 0 -18 21 -19 785 -19 l785 0 0 3060 0
3060 -3060 0 -3060 0 0 -3060z" />
    </g>
</svg>
