<?xml version="1.0" encoding="UTF-8" standalone="no" ?>
<!DOCTYPE svg PUBLIC "-//W3C//DTD SVG 1.1//EN" "http://www.w3.org/Graphics/SVG/1.1/DTD/svg11.dtd">
<svg xmlns="http://www.w3.org/2000/svg" xmlns:xlink="http://www.w3.org/1999/xlink" version="1.1" width="1080" height="1080" viewBox="0 0 1080 1080" xml:space="preserve">
<desc>Created with Fabric.js 5.2.4</desc>
<defs>
</defs>
<rect x="0" y="0" width="100%" height="100%" fill="transparent"></rect>
<g transform="matrix(1 0 0 1 540 540)" id="a68175a6-d88f-4884-841a-89093c15dcb7"  >
</g>
<g transform="matrix(1 0 0 1 540 540)" id="3a1045de-e71f-401a-ace0-bda45f525103"  >
<rect style="stroke: none; stroke-width: 1; stroke-dasharray: none; stroke-linecap: butt; stroke-dashoffset: 0; stroke-linejoin: miter; stroke-miterlimit: 4; fill: rgb(255,255,255); fill-rule: nonzero; opacity: 1; visibility: hidden;" vector-effect="non-scaling-stroke"  x="-540" y="-540" rx="0" ry="0" width="1080" height="1080" />
</g>
<g transform="matrix(1.06 0 0 1.11 539.47 538.6)"  >
<rect style="stroke: none; stroke-width: 1; stroke-dasharray: none; stroke-linecap: butt; stroke-dashoffset: 0; stroke-linejoin: miter; stroke-miterlimit: 4; fill: rgb(15,23,42); fill-rule: nonzero; opacity: 1;" vector-effect="non-scaling-stroke"  x="-150.5" y="-39.5" rx="4" ry="4" width="301" height="79" />
</g>
<g transform="matrix(1 0 0 1 421.21 565.67)"  >
<path style="stroke: none; stroke-width: 1; stroke-dasharray: none; stroke-linecap: butt; stroke-dashoffset: 0; stroke-linejoin: miter; stroke-miterlimit: 4; fill: rgb(255,255,255); fill-rule: nonzero; opacity: 1;" vector-effect="non-scaling-stroke"  transform=" translate(-31.71, -65.17)" d="M 20.7866 66.8455 C 17.2323 63.6045 16.1947 56.7948 17.6755 51.8613 C 20.2432 54.9718 23.8009 55.9571 27.486 56.5133 C 33.1749 57.3716 38.762 57.0506 44.0468 54.4568 C 44.6513 54.1598 45.21 53.765 45.8706 53.3651 C 46.3665 54.8001 46.4956 56.2489 46.3224 57.7235 C 45.9012 61.3146 44.1096 64.0886 41.26 66.1914 C 40.1206 67.0326 38.9148 67.7844 37.738 68.5775 C 34.1225 71.0151 33.1444 73.8732 34.5029 78.0308 C 34.5352 78.132 34.5641 78.2333 34.6371 78.4805 C 32.7912 77.6565 31.4428 76.4567 30.4154 74.8791 C 29.3302 73.214 28.814 71.3721 28.7868 69.3791 C 28.7732 68.4093 28.7732 67.4308 28.6425 66.4747 C 28.3232 64.1435 27.2262 63.0999 25.1595 63.0398 C 23.0384 62.978 21.3606 64.286 20.9157 66.3459 C 20.8817 66.5038 20.8325 66.6601 20.7832 66.8437 L 20.7866 66.8455 Z" stroke-linecap="round" />
</g>
<g transform="matrix(1 0 0 1 421.19 526.02)"  >
<path style="stroke: none; stroke-width: 1; stroke-dasharray: none; stroke-linecap: butt; stroke-dashoffset: 0; stroke-linejoin: miter; stroke-miterlimit: 4; fill: rgb(255,255,255); fill-rule: nonzero; opacity: 1;" vector-effect="non-scaling-stroke"  transform=" translate(-31.69, -25.52)" d="M 0.5 51.0393 C 0.5 51.0393 11.0249 45.9249 21.5793 45.9249 L 29.5369 21.3588 C 29.8348 20.1708 30.7047 19.3634 31.6867 19.3634 C 32.6688 19.3634 33.5386 20.1708 33.8366 21.3588 L 41.7942 45.9249 C 54.2942 45.9249 62.8734 51.0393 62.8734 51.0393 C 62.8734 51.0393 44.996 2.45882 44.961 2.36135 C 44.4479 0.925045 43.5817 0 42.4139 0 L 20.9613 0 C 19.7935 0 18.9623 0.925045 18.4142 2.36135 C 18.3756 2.45698 0.5 51.0393 0.5 51.0393 Z" stroke-linecap="round" />
</g>
<g transform="matrix(1 0 0 1 491.94 541)"  >
<path style="stroke: none; stroke-width: 1; stroke-dasharray: none; stroke-linecap: butt; stroke-dashoffset: 0; stroke-linejoin: miter; stroke-miterlimit: 4; fill: rgb(255,255,255); fill-rule: nonzero; opacity: 1;" vector-effect="non-scaling-stroke"  transform=" translate(-102.44, -40.5)" d="M 111.467 43.9652 C 111.467 48.27 106.099 50.841 98.6667 50.841 C 93.8296 50.841 92.1189 49.6452 92.1189 47.134 C 92.1189 44.5033 94.2425 43.2477 99.0796 43.2477 C 103.445 43.2477 107.161 43.3075 111.467 43.8456 L 111.467 43.9652 Z M 111.526 38.6439 C 108.872 38.046 104.861 37.6873 100.082 37.6873 C 86.1611 37.6873 79.6133 40.9757 79.6133 48.6288 C 79.6133 56.5808 84.0964 59.63 94.4785 59.63 C 103.268 59.63 109.226 57.4178 111.408 51.977 L 111.762 51.977 C 111.703 53.2923 111.644 54.6077 111.644 55.6241 C 111.644 58.4342 112.116 58.6734 114.417 58.6734 L 125.271 58.6734 C 124.681 56.9993 124.327 52.2759 124.327 48.2102 C 124.327 43.8456 124.504 40.5572 124.504 36.1328 C 124.504 27.1045 119.077 21.3648 102.088 21.3648 C 94.7734 21.3648 86.633 22.6203 80.4391 24.4738 C 81.029 26.9252 81.8549 31.8877 82.2678 35.1163 C 87.6358 32.6052 95.2454 31.529 101.144 31.529 C 109.285 31.529 111.526 33.3824 111.526 37.1492 L 111.526 38.6439 Z" stroke-linecap="round" />
</g>
<g transform="matrix(1 0 0 1 541.46 541.09)"  >
<path style="stroke: none; stroke-width: 1; stroke-dasharray: none; stroke-linecap: butt; stroke-dashoffset: 0; stroke-linejoin: miter; stroke-miterlimit: 4; fill: rgb(255,255,255); fill-rule: nonzero; opacity: 1;" vector-effect="non-scaling-stroke"  transform=" translate(-151.96, -40.59)" d="M 141.308 46.4763 C 139.833 46.6557 137.828 46.6557 135.763 46.6557 C 133.58 46.6557 131.575 46.5959 130.218 46.4165 C 130.218 46.8949 130.159 47.433 130.159 47.9113 C 130.159 55.385 135.055 59.7496 152.28 59.7496 C 168.502 59.7496 173.752 55.4448 173.752 47.8515 C 173.752 40.6768 170.272 37.1492 154.875 36.3719 C 142.901 35.8338 141.839 34.5184 141.839 33.0237 C 141.839 31.2898 143.373 30.393 151.395 30.393 C 159.713 30.393 161.954 31.529 161.954 33.9205 L 161.954 34.4586 C 163.134 34.3989 165.258 34.3391 167.44 34.3391 C 169.505 34.3391 171.746 34.3989 173.044 34.5184 C 173.044 33.9803 173.103 33.502 173.103 33.0835 C 173.103 24.2944 165.788 21.4245 151.631 21.4245 C 135.704 21.4245 130.336 25.3109 130.336 32.9041 C 130.336 39.7201 134.642 43.9652 149.92 44.6229 C 161.187 44.9816 162.426 46.2372 162.426 47.9711 C 162.426 49.8245 160.597 50.6616 152.693 50.6616 C 143.609 50.6616 141.308 49.406 141.308 46.8351 L 141.308 46.4763 Z" stroke-linecap="round" />
</g>
<g transform="matrix(1 0 0 1 583.78 537.65)"  >
<path style="stroke: none; stroke-width: 1; stroke-dasharray: none; stroke-linecap: butt; stroke-dashoffset: 0; stroke-linejoin: miter; stroke-miterlimit: 4; fill: rgb(255,255,255); fill-rule: nonzero; opacity: 1;" vector-effect="non-scaling-stroke"  transform=" translate(-194.28, -37.15)" d="M 193.222 14.9673 C 188.916 18.9732 181.188 22.9791 176.882 24.0553 C 176.941 26.2675 176.941 30.3332 176.941 32.5454 L 180.893 32.6052 C 180.834 36.8502 180.775 41.9921 180.775 45.4001 C 180.775 53.3521 184.963 59.3311 198 59.3311 C 203.486 59.3311 207.143 58.7332 211.685 57.7765 C 211.213 54.8469 210.683 50.3626 210.506 46.9546 C 207.792 47.8515 204.371 48.3298 200.595 48.3298 C 195.345 48.3298 193.222 46.8949 193.222 42.7694 C 193.222 39.182 193.222 35.8338 193.281 32.7248 C 200.006 32.7845 206.73 32.9041 210.683 33.0237 C 210.624 29.9147 210.742 25.4304 210.919 22.441 C 205.197 22.5605 198.767 22.6203 193.458 22.6203 C 193.517 19.9896 193.576 17.4784 193.635 14.9673 L 193.222 14.9673 Z" stroke-linecap="round" />
</g>
<g transform="matrix(1 0 0 1 622.88 540.82)"  >
<path style="stroke: none; stroke-width: 1; stroke-dasharray: none; stroke-linecap: butt; stroke-dashoffset: 0; stroke-linejoin: miter; stroke-miterlimit: 4; fill: rgb(255,255,255); fill-rule: nonzero; opacity: 1;" vector-effect="non-scaling-stroke"  transform=" translate(-233.38, -40.32)" d="M 228.454 30.7517 C 228.513 27.6426 228.572 25.0119 228.631 22.441 L 216.774 22.441 C 216.951 27.5829 216.951 32.8443 216.951 40.5572 C 216.951 48.27 216.892 53.5913 216.774 58.6734 L 230.341 58.6734 C 230.105 55.086 230.046 49.0473 230.046 43.9054 C 230.046 35.774 233.35 33.4422 240.841 33.4422 C 244.322 33.4422 246.799 33.8608 248.982 34.638 C 249.041 31.5888 249.631 25.6696 249.985 23.0389 C 247.743 22.3812 245.265 21.9627 242.257 21.9627 C 235.827 21.9029 231.108 24.5336 228.925 30.8115 L 228.454 30.7517 Z" stroke-linecap="round" />
</g>
<g transform="matrix(1 0 0 1 665.01 541.06)"  >
<path style="stroke: none; stroke-width: 1; stroke-dasharray: none; stroke-linecap: butt; stroke-dashoffset: 0; stroke-linejoin: miter; stroke-miterlimit: 4; fill: rgb(255,255,255); fill-rule: nonzero; opacity: 1;" vector-effect="non-scaling-stroke"  transform=" translate(-275.51, -40.56)" d="M 287.518 40.318 C 287.518 46.8351 282.799 49.8843 275.366 49.8843 C 267.992 49.8843 263.273 47.0144 263.273 40.318 C 263.273 33.6216 268.051 31.1104 275.366 31.1104 C 282.74 31.1104 287.518 33.801 287.518 40.318 Z M 299.846 40.0191 C 299.846 27.0448 289.7 21.2452 275.366 21.2452 C 260.973 21.2452 251.18 27.0448 251.18 40.0191 C 251.18 52.9336 260.324 59.8692 275.307 59.8692 C 290.408 59.8692 299.846 52.9336 299.846 40.0191 Z" stroke-linecap="round" />
</g>
</svg>