<?xml version="1.0" encoding="UTF-8" standalone="no" ?>
<!DOCTYPE svg PUBLIC "-//W3C//DTD SVG 1.1//EN" "http://www.w3.org/Graphics/SVG/1.1/DTD/svg11.dtd">
<svg xmlns="http://www.w3.org/2000/svg" xmlns:xlink="http://www.w3.org/1999/xlink" version="1.1" width="1080" height="1080" viewBox="0 0 1080 1080" xml:space="preserve">
<desc>Created with Fabric.js 5.2.4</desc>
<defs>
</defs>
<rect x="0" y="0" width="100%" height="100%" fill="transparent"></rect>
<g transform="matrix(1 0 0 1 540 540)" id="f7d75fc9-90cc-4fff-a565-03d50322ea9d"  >
<rect style="stroke: none; stroke-width: 1; stroke-dasharray: none; stroke-linecap: butt; stroke-dashoffset: 0; stroke-linejoin: miter; stroke-miterlimit: 4; fill: rgb(255,255,255); fill-rule: nonzero; opacity: 1; visibility: hidden;" vector-effect="non-scaling-stroke"  x="-540" y="-540" rx="0" ry="0" width="1080" height="1080" />
</g>
<g transform="matrix(1 0 0 1 540 540)" id="015ac30e-f75c-4e70-bc3c-e8c47eeec8df"  >
</g>
<g transform="matrix(0.86 0 0 0.86 1002.16 252.02)"  >
<path style="stroke: none; stroke-width: 1; stroke-dasharray: none; stroke-linecap: butt; stroke-dashoffset: 0; stroke-linejoin: miter; stroke-miterlimit: 4; fill: rgb(0,30,43); fill-rule: nonzero; opacity: 1;" vector-effect="non-scaling-stroke"  transform=" translate(-1089, -213.5)" d="M 1082.35 224.327 C 1080.37 223.244 1078.88 221.669 1077.69 219.799 C 1076.6 217.831 1076 215.764 1076 213.5 C 1076 211.236 1076.6 209.071 1077.69 207.201 C 1078.78 205.232 1080.37 203.756 1082.35 202.673 C 1084.34 201.591 1086.52 201 1089 201 C 1091.48 201 1093.66 201.591 1095.65 202.673 C 1097.63 203.756 1099.12 205.331 1100.31 207.201 C 1101.4 209.169 1102 211.236 1102 213.5 C 1102 215.764 1101.4 217.929 1100.31 219.799 C 1099.22 221.768 1097.63 223.244 1095.65 224.327 C 1093.66 225.409 1091.48 226 1089 226 C 1086.62 226 1084.34 225.508 1082.35 224.327 Z M 1094.56 222.949 C 1096.24 222.063 1097.44 220.685 1098.43 219.11 C 1099.32 217.437 1099.82 215.567 1099.82 213.5 C 1099.82 211.433 1099.32 209.563 1098.43 207.89 C 1097.53 206.217 1096.24 204.937 1094.56 204.051 C 1092.87 203.165 1091.08 202.673 1089 202.673 C 1086.92 202.673 1085.13 203.165 1083.44 204.051 C 1081.76 204.937 1080.56 206.315 1079.57 207.89 C 1078.68 209.563 1078.18 211.433 1078.18 213.5 C 1078.18 215.567 1078.68 217.437 1079.57 219.11 C 1080.47 220.783 1081.76 222.063 1083.44 222.949 C 1085.13 223.835 1086.92 224.327 1089 224.327 C 1091.08 224.327 1092.97 223.835 1094.56 222.949 Z M 1083.64 219.504 L 1083.64 218.618 L 1083.84 218.52 L 1084.44 218.52 C 1084.63 218.52 1084.83 218.421 1084.93 218.323 C 1085.13 218.126 1085.13 218.028 1085.13 217.831 L 1085.13 208.677 C 1085.13 208.48 1085.03 208.284 1084.93 208.185 C 1084.73 207.988 1084.63 207.988 1084.44 207.988 L 1083.84 207.988 L 1083.64 207.89 L 1083.64 207.004 L 1083.84 206.906 L 1089 206.906 C 1090.49 206.906 1091.58 207.201 1092.47 207.89 C 1093.37 208.579 1093.76 209.465 1093.76 210.646 C 1093.76 211.532 1093.47 212.417 1092.77 213.008 C 1092.08 213.697 1091.28 214.091 1090.29 214.189 L 1091.48 214.583 L 1093.76 218.224 C 1093.96 218.52 1094.16 218.618 1094.46 218.618 L 1095.05 218.618 L 1095.15 218.717 L 1095.15 219.602 L 1095.05 219.701 L 1091.98 219.701 L 1091.78 219.602 L 1088.6 214.287 L 1087.81 214.287 L 1087.81 217.831 C 1087.81 218.028 1087.91 218.224 1088.01 218.323 C 1088.21 218.52 1088.31 218.52 1088.5 218.52 L 1089.1 218.52 L 1089.3 218.618 L 1089.3 219.504 L 1089.1 219.602 L 1083.84 219.602 L 1083.64 219.504 Z M 1088.7 213.008 C 1089.5 213.008 1090.19 212.811 1090.59 212.319 C 1090.98 211.925 1091.28 211.236 1091.28 210.449 C 1091.28 209.661 1091.08 209.071 1090.69 208.579 C 1090.29 208.087 1089.69 207.89 1089 207.89 L 1088.6 207.89 C 1088.4 207.89 1088.21 207.988 1088.11 208.087 C 1087.91 208.283 1087.91 208.382 1087.91 208.579 L 1087.91 213.008 L 1088.7 213.008 Z" stroke-linecap="round" />
</g>
<g transform="matrix(1.14 0 0 1.29 533.69 187.93)"  >
<rect style="stroke: none; stroke-width: 1; stroke-dasharray: none; stroke-linecap: butt; stroke-dashoffset: 0; stroke-linejoin: miter; stroke-miterlimit: 4; fill: rgb(15,23,42); fill-rule: nonzero; opacity: 1;" vector-effect="non-scaling-stroke"  x="-551" y="-139" rx="4" ry="4" width="1102" height="278" />
</g>
<g transform="matrix(0.86 0 0 0.86 118.22 179.01)"  >
<path style="stroke: none; stroke-width: 1; stroke-dasharray: none; stroke-linecap: butt; stroke-dashoffset: 0; stroke-linejoin: miter; stroke-miterlimit: 4; fill: rgb(0,237,100); fill-rule: nonzero; opacity: 1;" vector-effect="non-scaling-stroke"  transform=" translate(-60, -128.5)" d="M 82.3229 28.6444 C 71.5367 15.8469 62.2485 2.84945 60.351 0.149971 C 60.1512 -0.0499903 59.8515 -0.0499903 59.6518 0.149971 C 57.7542 2.84945 48.4661 15.8469 37.6798 28.6444 C -54.9019 146.721 52.2613 226.406 52.2613 226.406 L 53.1601 227.006 C 53.959 239.303 55.9565 257 55.9565 257 L 59.9514 257 L 63.9463 257 C 63.9463 257 65.9438 239.403 66.7428 227.006 L 67.6416 226.306 C 67.7414 226.406 174.905 146.721 82.3229 28.6444 Z M 59.9514 224.706 C 59.9514 224.706 55.1576 220.607 53.8592 218.507 L 53.8592 218.308 L 59.6518 89.7325 C 59.6518 89.3326 60.2511 89.3326 60.2511 89.7325 L 66.0436 218.308 L 66.0436 218.507 C 64.7453 220.607 59.9514 224.706 59.9514 224.706 Z" stroke-linecap="round" />
</g>
<g transform="matrix(0.86 0 0 0.86 289.59 204.78)"  >
<path style="stroke: none; stroke-width: 1; stroke-dasharray: none; stroke-linecap: butt; stroke-dashoffset: 0; stroke-linejoin: miter; stroke-miterlimit: 4; fill: rgb(0,237,100); fill-rule: nonzero; opacity: 1;" vector-effect="non-scaling-stroke"  transform=" translate(-259.5, -158.5)" d="M 260.501 197.588 L 215.845 89.2991 L 215.745 89 L 181.001 89 L 181.001 96.279 L 186.608 96.279 C 188.31 96.279 189.912 96.9771 191.114 98.1736 C 192.315 99.3702 192.916 100.966 192.916 102.661 L 191.915 211.647 C 191.915 215.037 189.112 217.829 185.707 217.929 L 180 218.029 L 180 225.208 L 213.843 225.208 L 213.843 218.029 L 210.338 217.929 C 206.934 217.829 204.13 215.037 204.13 211.647 L 204.13 108.943 L 252.792 225.208 C 253.492 226.903 255.094 228 256.897 228 C 258.699 228 260.301 226.903 261.002 225.208 L 308.562 111.535 L 309.263 211.647 C 309.263 215.137 306.459 217.929 302.955 218.029 L 299.35 218.029 L 299.35 225.208 L 339 225.208 L 339 218.029 L 333.593 218.029 C 330.189 218.029 327.385 215.137 327.285 211.747 L 326.985 102.76 C 326.985 99.2704 329.788 96.4785 333.193 96.3788 L 339 96.279 L 339 89 L 305.157 89 L 260.501 197.588 Z" stroke-linecap="round" />
</g>
<g transform="matrix(0.86 0 0 0.86 520.24 219.38)"  >
<path style="stroke: none; stroke-width: 1; stroke-dasharray: none; stroke-linecap: butt; stroke-dashoffset: 0; stroke-linejoin: miter; stroke-miterlimit: 4; fill: rgb(0,237,100); fill-rule: nonzero; opacity: 1;" vector-effect="non-scaling-stroke"  transform=" translate(-528, -175.5)" d="M 571.869 216.136 C 570.764 215.04 570.162 213.546 570.162 211.754 L 570.162 158.369 C 570.162 148.21 567.151 140.242 561.127 134.565 C 555.205 128.888 546.973 126 536.734 126 C 522.378 126 511.035 131.777 503.104 143.131 C 503.004 143.33 502.703 143.43 502.402 143.43 C 502.1 143.43 501.9 143.23 501.9 142.932 L 498.185 128.689 L 491.961 128.689 L 476 137.753 L 476 142.732 L 480.116 142.732 C 482.023 142.732 483.629 143.23 484.734 144.226 C 485.838 145.222 486.44 146.716 486.44 148.808 L 486.44 211.654 C 486.44 213.447 485.838 214.941 484.734 216.036 C 483.629 217.132 482.124 217.729 480.317 217.729 L 476.301 217.729 L 476.301 225 L 513.042 225 L 513.042 217.729 L 509.027 217.729 C 507.22 217.729 505.714 217.132 504.61 216.036 C 503.506 214.941 502.903 213.447 502.903 211.654 L 502.903 170.022 C 502.903 164.743 504.108 159.465 506.317 154.286 C 508.625 149.206 512.038 144.924 516.556 141.637 C 521.073 138.35 526.494 136.757 532.718 136.757 C 539.745 136.757 545.066 138.948 548.378 143.33 C 551.691 147.712 553.398 153.389 553.398 160.162 L 553.398 211.554 C 553.398 213.347 552.795 214.841 551.691 215.937 C 550.587 217.032 549.081 217.63 547.274 217.63 L 543.259 217.63 L 543.259 224.9 L 580 224.9 L 580 217.63 L 575.985 217.63 C 574.479 217.829 573.073 217.231 571.869 216.136 Z" stroke-linecap="round" />
</g>
<g transform="matrix(0.86 0 0 0.86 825.63 203.92)"  >
<path style="stroke: none; stroke-width: 1; stroke-dasharray: none; stroke-linecap: butt; stroke-dashoffset: 0; stroke-linejoin: miter; stroke-miterlimit: 4; fill: rgb(0,237,100); fill-rule: nonzero; opacity: 1;" vector-effect="non-scaling-stroke"  transform=" translate(-883.5, -157.5)" d="M 907.546 97.212 C 897.39 91.8041 886.039 89 873.792 89 L 826 89 L 826 96.3107 L 830.68 96.3107 C 832.472 96.3107 834.065 97.0117 835.658 98.6141 C 837.152 100.116 837.948 101.819 837.948 103.621 L 837.948 211.379 C 837.948 213.181 837.152 214.884 835.658 216.386 C 834.165 217.888 832.472 218.689 830.68 218.689 L 826 218.689 L 826 226 L 873.792 226 C 886.039 226 897.39 223.196 907.546 217.788 C 917.701 212.38 925.966 204.368 931.94 194.154 C 937.914 183.939 941 171.621 941 157.6 C 941 143.58 937.914 131.362 931.94 121.047 C 925.866 110.632 917.701 102.62 907.546 97.212 Z M 921.784 157.4 C 921.784 170.219 919.494 181.034 915.013 189.747 C 910.533 198.46 904.558 204.969 897.19 209.175 C 889.823 213.382 881.658 215.485 872.896 215.485 L 863.238 215.485 C 861.446 215.485 859.853 214.784 858.26 213.181 C 856.766 211.679 855.97 209.977 855.97 208.174 L 855.97 106.526 C 855.97 104.723 856.667 103.121 858.26 101.518 C 859.753 100.016 861.446 99.2149 863.238 99.2149 L 872.896 99.2149 C 881.658 99.2149 889.823 101.318 897.19 105.524 C 904.558 109.73 910.533 116.24 915.013 124.953 C 919.494 133.665 921.784 144.581 921.784 157.4 Z" stroke-linecap="round" />
</g>
<g transform="matrix(0.86 0 0 0.86 932.58 203.92)"  >
<path style="stroke: none; stroke-width: 1; stroke-dasharray: none; stroke-linecap: butt; stroke-dashoffset: 0; stroke-linejoin: miter; stroke-miterlimit: 4; fill: rgb(0,237,100); fill-rule: nonzero; opacity: 1;" vector-effect="non-scaling-stroke"  transform=" translate(-1008, -157.5)" d="M 1053.97 164.711 C 1049.55 159.603 1041.02 155.297 1030.99 152.993 C 1044.84 146.083 1051.96 136.369 1051.96 123.851 C 1051.96 117.041 1050.16 110.932 1046.54 105.724 C 1042.93 100.517 1037.81 96.3106 1031.29 93.4064 C 1024.76 90.5022 1017.13 89 1008.5 89 L 954.402 89 L 954.402 96.3107 L 958.718 96.3107 C 960.524 96.3107 962.13 97.0117 963.736 98.614 C 965.242 100.116 966.045 101.819 966.045 103.621 L 966.045 211.379 C 966.045 213.181 965.242 214.884 963.736 216.386 C 962.231 217.888 960.524 218.689 958.718 218.689 L 954 218.689 L 954 226 L 1012.72 226 C 1021.65 226 1029.98 224.498 1037.51 221.493 C 1045.04 218.489 1051.06 214.083 1055.38 208.274 C 1059.79 202.466 1062 195.355 1062 187.143 C 1061.9 178.33 1059.29 170.819 1053.97 164.711 Z M 986.621 213.281 C 985.115 211.779 984.312 210.077 984.312 208.274 L 984.312 159.904 L 1012.22 159.904 C 1022.05 159.904 1029.58 162.407 1034.8 167.414 C 1040.02 172.422 1042.63 178.931 1042.63 186.943 C 1042.63 191.75 1041.42 196.457 1039.22 200.763 C 1036.91 205.17 1033.49 208.675 1028.88 211.379 C 1024.36 214.083 1018.74 215.485 1012.22 215.485 L 991.639 215.485 C 989.833 215.585 988.227 214.784 986.621 213.281 Z M 984.413 149.588 L 984.413 106.626 C 984.413 104.823 985.115 103.221 986.721 101.618 C 988.227 100.116 989.933 99.315 991.74 99.315 L 1004.99 99.315 C 1014.52 99.315 1021.55 101.719 1025.97 106.325 C 1030.38 111.032 1032.59 117.041 1032.59 124.452 C 1032.59 132.063 1030.48 138.172 1026.37 142.779 C 1022.25 147.285 1016.03 149.588 1007.8 149.588 L 984.413 149.588 Z" stroke-linecap="round" />
</g>
<g transform="matrix(0.86 0 0 0.86 415.87 220.67)"  >
<path style="stroke: none; stroke-width: 1; stroke-dasharray: none; stroke-linecap: butt; stroke-dashoffset: 0; stroke-linejoin: miter; stroke-miterlimit: 4; fill: rgb(0,237,100); fill-rule: nonzero; opacity: 1;" vector-effect="non-scaling-stroke"  transform=" translate(-406.5, -177)" d="M 431.999 132.387 C 424.329 128.196 415.763 126 406.5 126 C 397.237 126 388.571 128.096 381.001 132.387 C 373.331 136.579 367.255 142.667 362.773 150.352 C 358.291 158.037 356 167.02 356 177 C 356 186.98 358.291 195.963 362.773 203.648 C 367.255 211.333 373.331 217.421 381.001 221.613 C 388.671 225.804 397.237 228 406.5 228 C 415.763 228 424.429 225.904 431.999 221.613 C 439.669 217.421 445.745 211.333 450.227 203.648 C 454.709 195.963 457 186.98 457 177 C 457 167.02 454.709 158.037 450.227 150.352 C 445.745 142.667 439.669 136.679 431.999 132.387 Z M 439.37 177 C 439.37 189.276 436.382 199.256 430.405 206.442 C 424.529 213.628 416.461 217.321 406.5 217.321 C 396.54 217.321 388.471 213.628 382.595 206.442 C 376.618 199.256 373.63 189.276 373.63 177 C 373.63 164.724 376.618 154.744 382.595 147.558 C 388.471 140.372 396.54 136.679 406.5 136.679 C 416.461 136.679 424.529 140.372 430.405 147.558 C 436.382 154.843 439.37 164.724 439.37 177 Z" stroke-linecap="round" />
</g>
<g transform="matrix(0.86 0 0 0.86 719.11 220.67)"  >
<path style="stroke: none; stroke-width: 1; stroke-dasharray: none; stroke-linecap: butt; stroke-dashoffset: 0; stroke-linejoin: miter; stroke-miterlimit: 4; fill: rgb(0,237,100); fill-rule: nonzero; opacity: 1;" vector-effect="non-scaling-stroke"  transform=" translate(-759.5, -177)" d="M 784.999 132.387 C 777.329 128.196 768.763 126 759.5 126 C 750.237 126 741.571 128.096 734.001 132.387 C 726.331 136.579 720.255 142.667 715.773 150.352 C 711.291 158.037 709 167.02 709 177 C 709 186.98 711.291 195.963 715.773 203.648 C 720.255 211.333 726.331 217.421 734.001 221.613 C 741.671 225.804 750.237 228 759.5 228 C 768.763 228 777.429 225.904 784.999 221.613 C 792.669 217.421 798.745 211.333 803.227 203.648 C 807.709 195.963 810 186.98 810 177 C 810 167.02 807.709 158.037 803.227 150.352 C 798.745 142.667 792.569 136.679 784.999 132.387 Z M 792.37 177 C 792.37 189.276 789.381 199.256 783.405 206.442 C 777.528 213.628 769.46 217.321 759.5 217.321 C 749.539 217.321 741.471 213.628 735.595 206.442 C 729.618 199.256 726.63 189.276 726.63 177 C 726.63 164.624 729.618 154.744 735.595 147.558 C 741.471 140.372 749.539 136.679 759.5 136.679 C 769.46 136.679 777.528 140.372 783.405 147.558 C 789.282 154.843 792.37 164.724 792.37 177 Z" stroke-linecap="round" />
</g>
<g transform="matrix(0.86 0 0 0.86 621.61 242.15)"  >
<path style="stroke: none; stroke-width: 1; stroke-dasharray: none; stroke-linecap: butt; stroke-dashoffset: 0; stroke-linejoin: miter; stroke-miterlimit: 4; fill: rgb(0,237,100); fill-rule: nonzero; opacity: 1;" vector-effect="non-scaling-stroke"  transform=" translate(-646, -202)" d="M 642.64 126 C 634.614 126 627.292 127.704 620.671 131.113 C 614.05 134.522 608.834 139.135 605.122 145.05 C 601.411 150.865 599.505 157.383 599.505 164.301 C 599.505 170.517 600.909 176.232 603.818 181.346 C 606.627 186.259 610.439 190.369 615.254 193.778 L 600.909 213.23 C 599.103 215.636 598.903 218.844 600.207 221.451 C 601.611 224.158 604.219 225.763 607.229 225.763 L 611.342 225.763 C 607.329 228.47 604.119 231.678 601.912 235.488 C 599.304 239.8 598 244.311 598 248.923 C 598 257.546 601.812 264.665 609.335 269.979 C 616.759 275.293 627.191 278 640.332 278 C 649.461 278 658.188 276.496 666.113 273.588 C 674.138 270.681 680.658 266.369 685.473 260.755 C 690.389 255.14 692.897 248.322 692.897 240.501 C 692.897 232.28 689.887 226.464 682.865 220.85 C 676.847 216.137 667.417 213.631 655.68 213.631 L 615.555 213.631 C 615.455 213.631 615.354 213.53 615.354 213.53 C 615.354 213.53 615.254 213.33 615.354 213.23 L 625.787 199.193 C 628.596 200.496 631.204 201.298 633.511 201.799 C 635.918 202.301 638.627 202.501 641.636 202.501 C 650.063 202.501 657.687 200.797 664.307 197.388 C 670.928 193.979 676.245 189.367 680.057 183.451 C 683.868 177.636 685.774 171.119 685.774 164.201 C 685.774 156.781 682.163 143.245 672.332 136.327 C 672.332 136.227 672.433 136.227 672.433 136.227 L 694 138.633 L 694 128.707 L 659.492 128.707 C 654.075 126.902 648.458 126 642.64 126 Z M 654.677 188.665 C 650.865 190.67 646.752 191.773 642.64 191.773 C 635.919 191.773 630 189.367 624.984 184.654 C 619.969 179.942 617.461 173.024 617.461 164.201 C 617.461 155.377 619.969 148.459 624.984 143.747 C 630 139.034 635.919 136.628 642.64 136.628 C 646.853 136.628 650.865 137.631 654.677 139.736 C 658.489 141.741 661.599 144.85 664.107 148.96 C 666.514 153.071 667.818 158.185 667.818 164.201 C 667.818 170.317 666.614 175.43 664.107 179.441 C 661.699 183.551 658.489 186.66 654.677 188.665 Z M 627.492 225.662 L 654.677 225.662 C 662.201 225.662 667.016 227.166 670.226 230.375 C 673.436 233.583 675.041 237.894 675.041 242.908 C 675.041 250.227 672.132 256.243 666.314 260.755 C 660.495 265.267 652.671 267.573 643.041 267.573 C 634.614 267.573 627.592 265.668 622.476 262.058 C 617.36 258.449 614.752 252.934 614.752 245.916 C 614.752 241.504 615.956 237.393 618.364 233.784 C 620.771 230.174 623.68 227.567 627.492 225.662 Z" stroke-linecap="round" />
</g>
<g transform="matrix(0.86 0 0 0.86 1002.16 252.02)"  >
<path style="stroke: none; stroke-width: 1; stroke-dasharray: none; stroke-linecap: butt; stroke-dashoffset: 0; stroke-linejoin: miter; stroke-miterlimit: 4; fill: rgb(0,237,100); fill-rule: nonzero; opacity: 1;" vector-effect="non-scaling-stroke"  transform=" translate(-1089, -213.5)" d="M 1082.35 224.327 C 1080.37 223.244 1078.88 221.669 1077.69 219.799 C 1076.6 217.831 1076 215.764 1076 213.5 C 1076 211.236 1076.6 209.071 1077.69 207.201 C 1078.78 205.232 1080.37 203.756 1082.35 202.673 C 1084.34 201.591 1086.52 201 1089 201 C 1091.48 201 1093.66 201.591 1095.65 202.673 C 1097.63 203.756 1099.12 205.331 1100.31 207.201 C 1101.4 209.169 1102 211.236 1102 213.5 C 1102 215.764 1101.4 217.929 1100.31 219.799 C 1099.22 221.768 1097.63 223.244 1095.65 224.327 C 1093.66 225.409 1091.48 226 1089 226 C 1086.62 226 1084.34 225.409 1082.35 224.327 Z M 1094.56 222.85 C 1096.24 221.965 1097.44 220.587 1098.43 219.012 C 1099.32 217.339 1099.82 215.468 1099.82 213.402 C 1099.82 211.335 1099.32 209.465 1098.43 207.791 C 1097.53 206.118 1096.24 204.839 1094.56 203.953 C 1092.87 203.067 1091.08 202.575 1089 202.575 C 1086.92 202.575 1085.13 203.067 1083.44 203.953 C 1081.76 204.839 1080.56 206.217 1079.57 207.791 C 1078.68 209.465 1078.18 211.335 1078.18 213.402 C 1078.18 215.468 1078.68 217.339 1079.57 219.012 C 1080.47 220.685 1081.76 221.965 1083.44 222.85 C 1085.13 223.736 1086.92 224.228 1089 224.228 C 1091.08 224.228 1092.97 223.736 1094.56 222.85 Z M 1083.64 219.406 L 1083.64 218.52 L 1083.84 218.421 L 1084.44 218.421 C 1084.63 218.421 1084.83 218.323 1084.93 218.224 C 1085.13 218.028 1085.13 217.929 1085.13 217.732 L 1085.13 208.579 C 1085.13 208.382 1085.03 208.185 1084.93 208.087 C 1084.73 207.89 1084.63 207.89 1084.44 207.89 L 1083.84 207.89 L 1083.64 207.791 L 1083.64 206.906 L 1083.84 206.807 L 1089 206.807 C 1090.49 206.807 1091.58 207.102 1092.47 207.791 C 1093.37 208.48 1093.76 209.366 1093.76 210.547 C 1093.76 211.433 1093.47 212.319 1092.77 212.909 C 1092.08 213.598 1091.28 213.992 1090.29 214.091 L 1091.48 214.484 L 1093.76 218.126 C 1093.96 218.421 1094.16 218.52 1094.46 218.52 L 1095.05 218.52 L 1095.15 218.618 L 1095.15 219.504 L 1095.05 219.602 L 1091.98 219.602 L 1091.78 219.504 L 1088.6 214.189 L 1087.81 214.189 L 1087.81 217.732 C 1087.81 217.929 1087.91 218.126 1088.01 218.224 C 1088.21 218.421 1088.31 218.421 1088.5 218.421 L 1089.1 218.421 L 1089.3 218.52 L 1089.3 219.406 L 1089.1 219.504 L 1083.84 219.504 L 1083.64 219.406 Z M 1088.7 213.008 C 1089.5 213.008 1090.19 212.811 1090.59 212.319 C 1090.98 211.925 1091.28 211.236 1091.28 210.449 C 1091.28 209.661 1091.08 209.071 1090.69 208.579 C 1090.29 208.087 1089.69 207.89 1089 207.89 L 1088.6 207.89 C 1088.4 207.89 1088.21 207.988 1088.11 208.087 C 1087.91 208.283 1087.91 208.382 1087.91 208.579 L 1087.91 213.008 L 1088.7 213.008 Z" stroke-linecap="round" />
</g>
</svg>