<?xml version="1.0" encoding="UTF-8" standalone="no" ?>
<!DOCTYPE svg PUBLIC "-//W3C//DTD SVG 1.1//EN" "http://www.w3.org/Graphics/SVG/1.1/DTD/svg11.dtd">
<svg xmlns="http://www.w3.org/2000/svg" xmlns:xlink="http://www.w3.org/1999/xlink" version="1.1" width="1080" height="1080" viewBox="0 0 1080 1080" xml:space="preserve">
<desc>Created with Fabric.js 5.2.4</desc>
<defs>
</defs>
<g transform="matrix(1 0 0 1 540 540)" id="f7d75fc9-90cc-4fff-a565-03d50322ea9d"  >
<rect style="stroke: none; stroke-width: 1; stroke-dasharray: none; stroke-linecap: butt; stroke-dashoffset: 0; stroke-linejoin: miter; stroke-miterlimit: 4; fill: rgb(255,255,255); fill-rule: nonzero; opacity: 1; visibility: hidden;" vector-effect="non-scaling-stroke"  x="-540" y="-540" rx="0" ry="0" width="1080" height="1080" />
</g>
<g transform="matrix(1 0 0 1 540 540)" id="015ac30e-f75c-4e70-bc3c-e8c47eeec8df"  >
</g>
<g transform="matrix(1.05 0 0 1.16 539.68 540.46)" clip-path="url(#CLIPPATH_10)"  >
<clipPath id="CLIPPATH_10" >
	<rect transform="matrix(1 0 0 1 0 0)" id="clip0_8323_10753" x="-55.5" y="-16.5" rx="0" ry="0" width="111" height="33" />
</clipPath>
<rect style="stroke: none; stroke-width: 1; stroke-dasharray: none; stroke-linecap: butt; stroke-dashoffset: 0; stroke-linejoin: miter; stroke-miterlimit: 4; fill: rgb(15,23,42); fill-rule: nonzero; opacity: 1;" vector-effect="non-scaling-stroke"  x="-55.5" y="-16.5" rx="4" ry="4" width="111" height="33" />
</g>
<g transform="matrix(1 0 0 1 582.15 545.76)" clip-path="url(#CLIPPATH_11)"  >
<clipPath id="CLIPPATH_11" >
	<rect transform="matrix(1 0 0 1 -42.19 -5.76)" id="clip0_8323_10753" x="-55.5" y="-16.5" rx="0" ry="0" width="111" height="33" />
</clipPath>
<path style="stroke: none; stroke-width: 1; stroke-dasharray: none; stroke-linecap: butt; stroke-dashoffset: 0; stroke-linejoin: miter; stroke-miterlimit: 4; fill: rgb(95,160,78); fill-rule: nonzero; opacity: 1;" vector-effect="non-scaling-stroke"  transform=" translate(-97.69, -22.26)" d="M 97.6894 32.7407 C 97.4024 32.7407 97.1345 32.6637 96.8858 32.5289 L 94.3412 31.0081 C 93.9586 30.7963 94.1499 30.7193 94.2647 30.6808 C 94.7813 30.5075 94.8769 30.469 95.4126 30.161 C 95.47 30.1225 95.5466 30.1418 95.604 30.1803 L 97.5555 31.3546 C 97.632 31.3931 97.7276 31.3931 97.785 31.3546 L 105.419 26.9075 C 105.495 26.869 105.534 26.792 105.534 26.6958 L 105.534 17.8209 C 105.534 17.7247 105.495 17.6477 105.419 17.6092 L 97.785 13.1814 C 97.7085 13.1429 97.6128 13.1429 97.5555 13.1814 L 89.9217 17.6092 C 89.8451 17.6477 89.8069 17.7439 89.8069 17.8209 L 89.8069 26.6958 C 89.8069 26.7728 89.8451 26.869 89.9217 26.9075 L 92.0071 28.1204 C 93.1359 28.6979 93.8438 28.0241 93.8438 27.3503 L 93.8438 18.591 C 93.8438 18.4755 93.9394 18.36 94.0734 18.36 L 95.0491 18.36 C 95.1639 18.36 95.2787 18.4562 95.2787 18.591 L 95.2787 27.3503 C 95.2787 28.8712 94.456 29.7567 93.0211 29.7567 C 92.5811 29.7567 92.2367 29.7567 91.2609 29.2755 L 89.252 28.1204 C 88.7546 27.8316 88.4485 27.2926 88.4485 26.715 L 88.4485 17.8402 C 88.4485 17.2626 88.7546 16.7236 89.252 16.4348 L 96.8858 11.9878 C 97.3641 11.7183 98.0146 11.7183 98.4929 11.9878 L 106.127 16.4348 C 106.624 16.7236 106.93 17.2626 106.93 17.8402 L 106.93 26.715 C 106.93 27.2926 106.624 27.8316 106.127 28.1204 L 98.4929 32.5674 C 98.2633 32.6637 97.9764 32.7407 97.6894 32.7407 Z" stroke-linecap="round" />
</g>
<g transform="matrix(1 0 0 1 584.41 545.86)" clip-path="url(#CLIPPATH_12)"  >
<clipPath id="CLIPPATH_12" >
	<rect transform="matrix(1 0 0 1 -44.45 -5.86)" id="clip0_8323_10753" x="-55.5" y="-16.5" rx="0" ry="0" width="111" height="33" />
</clipPath>
<path style="stroke: none; stroke-width: 1; stroke-dasharray: none; stroke-linecap: butt; stroke-dashoffset: 0; stroke-linejoin: miter; stroke-miterlimit: 4; fill: rgb(95,160,78); fill-rule: nonzero; opacity: 1;" vector-effect="non-scaling-stroke"  transform=" translate(-99.95, -22.36)" d="M 100.062 26.6379 C 96.7134 26.6379 96.0247 25.0978 96.0247 23.7887 C 96.0247 23.6732 96.1203 23.5577 96.2542 23.5577 L 97.2491 23.5577 C 97.3639 23.5577 97.4596 23.6347 97.4596 23.7502 C 97.6126 24.7705 98.0527 25.2711 100.081 25.2711 C 101.688 25.2711 102.377 24.9053 102.377 24.039 C 102.377 23.5385 102.185 23.1727 99.6789 22.9224 C 97.5935 22.7106 96.2925 22.2486 96.2925 20.5737 C 96.2925 19.0144 97.5935 18.0903 99.7746 18.0903 C 102.224 18.0903 103.429 18.9374 103.582 20.7855 C 103.582 20.8433 103.563 20.901 103.525 20.9588 C 103.486 20.9973 103.429 21.0358 103.371 21.0358 L 102.357 21.0358 C 102.262 21.0358 102.166 20.9588 102.147 20.8625 C 101.917 19.8037 101.324 19.4572 99.7555 19.4572 C 97.9953 19.4572 97.7848 20.0732 97.7848 20.5352 C 97.7848 21.0935 98.0335 21.2668 100.406 21.5748 C 102.759 21.8828 103.869 22.3256 103.869 23.9812 C 103.869 25.6753 102.472 26.6379 100.062 26.6379 Z" stroke-linecap="round" />
</g>
<g transform="matrix(1 0 0 1 594.07 540.82)" clip-path="url(#CLIPPATH_13)"  >
<clipPath id="CLIPPATH_13" >
	<rect transform="matrix(1 0 0 1 -54.11 -0.82)" id="clip0_8323_10753" x="-55.5" y="-16.5" rx="0" ry="0" width="111" height="33" />
</clipPath>
<path style="stroke: none; stroke-width: 1; stroke-dasharray: none; stroke-linecap: butt; stroke-dashoffset: 0; stroke-linejoin: miter; stroke-miterlimit: 4; fill: rgb(95,160,78); fill-rule: nonzero; opacity: 1;" vector-effect="non-scaling-stroke"  transform=" translate(-109.61, -17.32)" d="M 111.083 17.3202 C 111.083 18.1288 110.413 18.8026 109.609 18.8026 C 108.806 18.8026 108.136 18.148 108.136 17.3202 C 108.136 16.4732 108.825 15.8379 109.609 15.8379 C 110.394 15.8379 111.083 16.4924 111.083 17.3202 Z M 108.366 17.3202 C 108.366 18.0133 108.921 18.5716 109.59 18.5716 C 110.279 18.5716 110.834 17.994 110.834 17.3202 C 110.834 16.6272 110.279 16.0882 109.59 16.0882 C 108.94 16.0882 108.366 16.6272 108.366 17.3202 Z M 109.055 16.4924 L 109.629 16.4924 C 109.82 16.4924 110.203 16.4924 110.203 16.9352 C 110.203 17.2432 110.011 17.301 109.896 17.3395 C 110.126 17.3587 110.145 17.5128 110.164 17.7245 C 110.183 17.8593 110.203 18.0903 110.241 18.1673 L 109.896 18.1673 C 109.896 18.0903 109.839 17.6668 109.839 17.6475 C 109.82 17.5513 109.782 17.5128 109.667 17.5128 L 109.38 17.5128 L 109.38 18.1865 L 109.055 18.1865 L 109.055 16.4924 Z M 109.361 17.224 L 109.609 17.224 C 109.82 17.224 109.858 17.07 109.858 16.993 C 109.858 16.762 109.705 16.762 109.609 16.762 L 109.342 16.762 L 109.342 17.224 L 109.361 17.224 Z" stroke-linecap="round" />
</g>
<g transform="matrix(1 0 0 1 493.54 544.65)" clip-path="url(#CLIPPATH_14)"  >
<clipPath id="CLIPPATH_14" >
	<rect transform="matrix(1 0 0 1 46.42 -4.65)" id="clip0_8323_10753" x="-55.5" y="-16.5" rx="0" ry="0" width="111" height="33" />
</clipPath>
<path style="stroke: none; stroke-width: 1; stroke-dasharray: none; stroke-linecap: butt; stroke-dashoffset: 0; stroke-linejoin: miter; stroke-miterlimit: 4; fill: rgb(255,255,255); fill-rule: evenodd; opacity: 1;" vector-effect="non-scaling-stroke"  transform=" translate(-9.08, -21.15)" d="M 18.1565 17.4415 C 18.1565 17.095 17.9652 16.7678 17.6591 16.5945 L 9.56614 11.8779 C 9.43221 11.8009 9.27915 11.7624 9.12609 11.7432 C 9.10696 11.7432 9.04956 11.7432 9.04956 11.7432 C 8.89651 11.7432 8.74345 11.8009 8.60952 11.8779 L 0.497439 16.5752 C 0.191323 16.7485 0 17.0758 0 17.4415 L 0.0191323 30.0704 C 0.0191323 30.2437 0.114794 30.4169 0.267852 30.4939 C 0.42091 30.5902 0.612233 30.5902 0.746159 30.4939 L 5.56749 27.7217 C 5.87361 27.5485 6.06493 27.2212 6.06493 26.8747 L 6.06493 20.9645 C 6.06493 20.618 6.25625 20.2907 6.56237 20.1175 L 8.60952 18.9239 C 8.76258 18.8276 8.93477 18.7891 9.10696 18.7891 C 9.27915 18.7891 9.45134 18.8276 9.58527 18.9239 L 11.6324 20.1175 C 11.9385 20.2907 12.1299 20.618 12.1299 20.9645 L 12.1299 26.8747 C 12.1299 27.2212 12.3212 27.5485 12.6273 27.7217 L 17.4104 30.4939 C 17.5634 30.5902 17.7547 30.5902 17.9078 30.4939 C 18.0609 30.4169 18.1565 30.2437 18.1565 30.0704 L 18.1565 17.4415 Z" stroke-linecap="round" />
</g>
<g transform="matrix(1 0 0 1 537.85 539.9)" clip-path="url(#CLIPPATH_15)"  >
<clipPath id="CLIPPATH_15" >
	<rect transform="matrix(1 0 0 1 2.11 0.1)" id="clip0_8323_10753" x="-55.5" y="-16.5" rx="0" ry="0" width="111" height="33" />
</clipPath>
<path style="stroke: none; stroke-width: 1; stroke-dasharray: none; stroke-linecap: butt; stroke-dashoffset: 0; stroke-linejoin: miter; stroke-miterlimit: 4; fill: rgb(255,255,255); fill-rule: evenodd; opacity: 1;" vector-effect="non-scaling-stroke"  transform=" translate(-53.39, -16.4)" d="M 57.1482 0.0577539 C 56.9951 -0.0192513 56.8038 -0.0192513 56.6698 0.0577539 C 56.5168 0.15401 56.4211 0.308021 56.4211 0.481283 L 56.4211 12.9946 C 56.4211 13.1101 56.3637 13.2256 56.2489 13.3027 C 56.1341 13.3604 56.0194 13.3604 55.9046 13.3027 L 53.8765 12.1283 C 53.5704 11.9551 53.2069 11.9551 52.9008 12.1283 L 44.7887 16.8449 C 44.4826 17.0182 44.2913 17.3454 44.2913 17.6919 L 44.2913 27.1058 C 44.2913 27.4524 44.4826 27.7796 44.7887 27.9529 L 52.9008 32.6695 C 53.2069 32.8427 53.5704 32.8427 53.8765 32.6695 L 61.9886 27.9529 C 62.2947 27.7796 62.4861 27.4524 62.4861 27.1058 L 62.4861 3.6385 C 62.4861 3.27272 62.2947 2.94545 61.9886 2.77219 L 57.1482 0.0577539 Z M 56.402 24.0064 C 56.402 24.1026 56.3637 24.1796 56.2872 24.2181 L 53.513 25.8353 C 53.4365 25.8738 53.3408 25.8738 53.2643 25.8353 L 50.4901 24.2181 C 50.4136 24.1796 50.3753 24.0834 50.3753 24.0064 L 50.3753 20.7722 C 50.3753 20.6759 50.4136 20.5989 50.4901 20.5604 L 53.2643 18.9433 C 53.3408 18.9048 53.4365 18.9048 53.513 18.9433 L 56.2872 20.5604 C 56.3637 20.5989 56.402 20.6952 56.402 20.7722 L 56.402 24.0064 Z" stroke-linecap="round" />
</g>
<g transform="matrix(1 0 0 1 560.02 545.74)" clip-path="url(#CLIPPATH_16)"  >
<clipPath id="CLIPPATH_16" >
	<rect transform="matrix(1 0 0 1 -20.06 -5.74)" id="clip0_8323_10753" x="-55.5" y="-16.5" rx="0" ry="0" width="111" height="33" />
</clipPath>
<path style="stroke: none; stroke-width: 1; stroke-dasharray: none; stroke-linecap: butt; stroke-dashoffset: 0; stroke-linejoin: miter; stroke-miterlimit: 4; fill: rgb(255,255,255); fill-rule: evenodd; opacity: 1;" vector-effect="non-scaling-stroke"  transform=" translate(-75.56, -22.24)" d="M 84.1431 20.6951 C 84.4493 20.5218 84.6214 20.1946 84.6214 19.848 L 84.6214 17.5571 C 84.6214 17.2106 84.4301 16.8833 84.1431 16.7101 L 76.0884 12.0128 C 75.7823 11.8395 75.4188 11.8395 75.1127 12.0128 L 67.0006 16.7293 C 66.6945 16.9026 66.5032 17.2299 66.5032 17.5764 L 66.5032 26.9903 C 66.5032 27.3368 66.6945 27.6641 67.0006 27.8373 L 75.0553 32.4576 C 75.3614 32.6309 75.7249 32.6309 76.0119 32.4576 L 80.8906 29.724 C 81.0437 29.647 81.1394 29.4737 81.1394 29.3004 C 81.1394 29.1272 81.0437 28.9539 80.8906 28.8769 L 72.7403 24.1603 C 72.5872 24.0641 72.4916 23.9101 72.4916 23.7368 L 72.4916 20.7914 C 72.4916 20.6181 72.5872 20.4448 72.7403 20.3678 L 75.2849 18.9047 C 75.438 18.8085 75.6293 18.8085 75.7823 18.9047 L 78.3269 20.3678 C 78.48 20.4641 78.5756 20.6181 78.5756 20.7914 L 78.5756 23.1015 C 78.5756 23.2748 78.6713 23.448 78.8244 23.525 C 78.9774 23.6213 79.1687 23.6213 79.3218 23.525 L 84.1431 20.6951 Z" stroke-linecap="round" />
</g>
<g transform="matrix(1 0 0 1 560.03 545.74)" clip-path="url(#CLIPPATH_17)"  >
<clipPath id="CLIPPATH_17" >
	<rect transform="matrix(1 0 0 1 -20.07 -5.74)" id="clip0_8323_10753" x="-55.5" y="-16.5" rx="0" ry="0" width="111" height="33" />
</clipPath>
<path style="stroke: none; stroke-width: 1; stroke-dasharray: none; stroke-linecap: butt; stroke-dashoffset: 0; stroke-linejoin: miter; stroke-miterlimit: 4; fill: rgb(95,160,78); fill-rule: evenodd; opacity: 1;" vector-effect="non-scaling-stroke"  transform=" translate(-75.57, -22.24)" d="M 75.4764 20.2525 C 75.5338 20.214 75.6104 20.214 75.6678 20.2525 L 77.2175 21.1573 C 77.2749 21.1958 77.3131 21.2536 77.3131 21.3306 L 77.3131 23.1402 C 77.3131 23.2172 77.2749 23.275 77.2175 23.3135 L 75.6678 24.2183 C 75.6104 24.2568 75.5338 24.2568 75.4764 24.2183 L 73.9267 23.3135 C 73.8693 23.275 73.8311 23.2172 73.8311 23.1402 L 73.8311 21.3306 C 73.8311 21.2536 73.8693 21.1958 73.9267 21.1573 L 75.4764 20.2525 Z" stroke-linecap="round" />
</g>
<g transform="matrix(1 0 0 1 515.69 545.76)" clip-path="url(#CLIPPATH_18)"  >
<linearGradient id="SVGID_paint0_linear_8323_10753_7" gradientUnits="userSpaceOnUse" gradientTransform="matrix(1 0 0 1 0 0)"  x1="34.5132" y1="15.5354" x2="27.1574" y2="30.4484">
<stop offset="0%" style="stop-color:rgb(63,135,63);stop-opacity: 1"/>
<stop offset="32.96%" style="stop-color:rgb(63,139,61);stop-opacity: 1"/>
<stop offset="63.67%" style="stop-color:rgb(62,150,56);stop-opacity: 1"/>
<stop offset="93.41000000000001%" style="stop-color:rgb(61,169,46);stop-opacity: 1"/>
<stop offset="100%" style="stop-color:rgb(61,174,43);stop-opacity: 1"/>
</linearGradient>
<clipPath id="CLIPPATH_18" >
	<rect transform="matrix(1 0 0 1 24.27 -5.76)" id="clip0_8323_10753" x="-55.5" y="-16.5" rx="0" ry="0" width="111" height="33" />
</clipPath>
<path style="stroke: none; stroke-width: 1; stroke-dasharray: none; stroke-linecap: butt; stroke-dashoffset: 0; stroke-linejoin: miter; stroke-miterlimit: 4; fill: url(#SVGID_paint0_linear_8323_10753_7); fill-rule: nonzero; opacity: 1;" vector-effect="non-scaling-stroke"  transform=" translate(-31.23, -22.26)" d="M 31.7207 12.0513 C 31.4145 11.8781 31.051 11.8781 30.7449 12.0513 L 22.6902 16.7294 C 22.3841 16.9027 22.2119 17.2299 22.2119 17.5765 L 22.2119 26.9518 C 22.2119 27.2984 22.4032 27.6256 22.6902 27.7989 L 30.7449 32.477 C 31.051 32.6502 31.4145 32.6502 31.7207 32.477 L 39.7753 27.7989 C 40.0815 27.6256 40.2536 27.2984 40.2536 26.9518 L 40.2536 17.5765 C 40.2536 17.2299 40.0623 16.9027 39.7753 16.7294 L 31.7207 12.0513 Z" stroke-linecap="round" />
</g>
<g transform="matrix(1 0 0 1 515.65 545.78)" clip-path="url(#CLIPPATH_19)"  >
<linearGradient id="SVGID_paint1_linear_8323_10753_8" gradientUnits="userSpaceOnUse" gradientTransform="matrix(1 0 0 1 0 0)"  x1="30.0088" y1="23.3589" x2="50.5328" y2="8.28841">
<stop offset="13.76%" style="stop-color:rgb(63,135,63);stop-opacity: 1"/>
<stop offset="40.160000000000004%" style="stop-color:rgb(82,160,68);stop-opacity: 1"/>
<stop offset="71.28999999999999%" style="stop-color:rgb(100,183,73);stop-opacity: 1"/>
<stop offset="90.81%" style="stop-color:rgb(106,191,75);stop-opacity: 1"/>
</linearGradient>
<clipPath id="CLIPPATH_19" >
	<rect transform="matrix(1 0 0 1 24.31 -5.78)" id="clip0_8323_10753" x="-55.5" y="-16.5" rx="0" ry="0" width="111" height="33" />
</clipPath>
<path style="stroke: none; stroke-width: 1; stroke-dasharray: none; stroke-linecap: butt; stroke-dashoffset: 0; stroke-linejoin: miter; stroke-miterlimit: 4; fill: url(#SVGID_paint1_linear_8323_10753_8); fill-rule: nonzero; opacity: 1;" vector-effect="non-scaling-stroke"  transform=" translate(-31.19, -22.28)" d="M 39.7946 16.7294 L 31.7017 12.0513 C 31.6252 12.0128 31.5295 11.9743 31.453 11.9551 L 22.3843 27.5679 C 22.4608 27.6641 22.5565 27.7411 22.6521 27.7989 L 30.7451 32.477 C 30.9747 32.6117 31.2425 32.6502 31.4912 32.5732 L 40.0051 16.9027 C 39.9477 16.8257 39.8712 16.7679 39.7946 16.7294 Z" stroke-linecap="round" />
</g>
<g transform="matrix(1 0 0 1 515.94 545.76)" clip-path="url(#CLIPPATH_20)"  >
<linearGradient id="SVGID_paint2_linear_8323_10753_9" gradientUnits="userSpaceOnUse" gradientTransform="matrix(1 0 0 1 0 0)"  x1="21.9168" y1="22.2608" x2="40.5549" y2="22.2608">
<stop offset="9.19165%" style="stop-color:rgb(106,191,75);stop-opacity: 1"/>
<stop offset="28.71%" style="stop-color:rgb(100,183,73);stop-opacity: 1"/>
<stop offset="59.84%" style="stop-color:rgb(82,160,68);stop-opacity: 1"/>
<stop offset="86.24000000000001%" style="stop-color:rgb(63,135,63);stop-opacity: 1"/>
</linearGradient>
<clipPath id="CLIPPATH_20" >
	<rect transform="matrix(1 0 0 1 24.02 -5.76)" id="clip0_8323_10753" x="-55.5" y="-16.5" rx="0" ry="0" width="111" height="33" />
</clipPath>
<path style="stroke: none; stroke-width: 1; stroke-dasharray: none; stroke-linecap: butt; stroke-dashoffset: 0; stroke-linejoin: miter; stroke-miterlimit: 4; fill: url(#SVGID_paint2_linear_8323_10753_9); fill-rule: nonzero; opacity: 1;" vector-effect="non-scaling-stroke"  transform=" translate(-31.48, -22.26)" d="M 39.7947 27.7986 C 40.0243 27.6638 40.1965 27.4328 40.273 27.1825 L 31.4147 11.9355 C 31.1852 11.897 30.9364 11.9162 30.726 12.051 L 22.6904 16.7098 L 31.3573 32.6114 C 31.4721 32.5921 31.6061 32.5536 31.7209 32.4959 L 39.7947 27.7986 Z" stroke-linecap="round" />
</g>
</svg>