<?xml version="1.0" encoding="UTF-8" standalone="no" ?>
<!DOCTYPE svg PUBLIC "-//W3C//DTD SVG 1.1//EN" "http://www.w3.org/Graphics/SVG/1.1/DTD/svg11.dtd">
<svg xmlns="http://www.w3.org/2000/svg" xmlns:xlink="http://www.w3.org/1999/xlink" version="1.1" width="540" height="540" viewBox="0 0 540 540" xml:space="preserve">
<desc>Created with Fabric.js 5.2.4</desc>
<defs>
</defs>
<rect x="0" y="0" width="100%" height="100%" fill="transparent"></rect>
<g transform="matrix(1 0 0 1 540 540)" id="a68175a6-d88f-4884-841a-89093c15dcb7"  >
</g>
<g transform="matrix(1 0 0 1 540 540)" id="3a1045de-e71f-401a-ace0-bda45f525103"  >
<rect style="stroke: none; stroke-width: 1; stroke-dasharray: none; stroke-linecap: butt; stroke-dashoffset: 0; stroke-linejoin: miter; stroke-miterlimit: 4; fill: rgb(255,255,255); fill-rule: nonzero; opacity: 1; visibility: hidden;" vector-effect="non-scaling-stroke"  x="-540" y="-540" rx="0" ry="0" width="1080" height="1080" />
</g>
<g transform="matrix(1 0 0 1 540 540)"  >
<rect style="stroke: none; stroke-width: 1; stroke-dasharray: none; stroke-linecap: butt; stroke-dashoffset: 0; stroke-linejoin: miter; stroke-miterlimit: 4; fill: rgb(255,255,255); fill-rule: nonzero; opacity: 1;" vector-effect="non-scaling-stroke"  x="-62" y="-53" rx="4" ry="4" width="124" height="106" />
</g>
<g transform="matrix(0.89 0 0 0.89 540 540)"  >
<path style="stroke: none; stroke-width: 1; stroke-dasharray: none; stroke-linecap: butt; stroke-dashoffset: 0; stroke-linejoin: miter; stroke-miterlimit: 4; fill: rgb(0,0,0); fill-rule: evenodd; opacity: 1;" vector-effect="non-scaling-stroke"  transform=" translate(-61.44, -50.17)" d="M 102.79 7.11 L 105.38000000000001 10.52 C 106.06000000000002 11.42 105.89000000000001 12.709999999999999 104.99000000000001 13.39 L 102.24000000000001 15.48 C 102.74000000000001 16.810000000000002 103.06 18.23 103.19000000000001 19.68 L 106.32000000000001 20.11 C 107.44000000000001 20.259999999999998 108.22000000000001 21.3 108.07000000000001 22.419999999999998 L 107.49000000000001 26.669999999999998 C 107.41705891484753 27.20900063682366 107.1322973927137 27.69670099835606 106.69874807123094 28.02514745402482 C 106.26519874974817 28.353593909693583 105.71862060342463 28.49569632729555 105.18 28.419999999999998 L 101.76 27.95 C 101.15 29.28 100.37 30.5 99.45 31.59 L 101.37 34.11 C 102.05000000000001 35.01 101.87 36.3 100.97 36.98 L 97.56 39.56999999999999 C 96.66 40.24999999999999 95.37 40.06999999999999 94.69 39.17999999999999 L 92.6 36.42999999999999 C 91.25999999999999 36.92999999999999 89.85 37.24999999999999 88.39 37.379999999999995 L 87.96 40.51 C 87.80444329271135 41.630600791476134 86.77086908875002 42.41361155205289 85.64999999999999 42.26 L 81.39999999999999 41.68 C 80.27939920852386 41.524443292711354 79.4963884479471 40.49086908875003 79.64999999999999 39.37 L 80.11999999999999 35.949999999999996 C 78.8 35.339999999999996 77.57 34.559999999999995 76.47999999999999 33.65 L 73.96 35.559999999999995 C 73.05999999999999 36.239999999999995 71.77 36.06999999999999 71.08999999999999 35.169999999999995 L 68.49999999999999 31.759999999999994 C 67.81999999999998 30.859999999999996 67.98999999999998 29.569999999999993 68.88999999999999 28.889999999999993 L 71.63999999999999 26.799999999999994 C 71.13999999999999 25.459999999999994 70.82 24.049999999999994 70.68999999999998 22.599999999999994 L 67.55999999999999 22.169999999999995 C 67.02099936317633 22.09705891484751 66.53329900164393 21.812297392713685 66.20485254597517 21.37874807123092 C 65.8764060903064 20.945198749748158 65.73430367270444 20.398620603424614 65.80999999999999 19.859999999999996 L 66.38999999999999 15.609999999999996 C 66.54999999999998 14.489999999999995 67.57999999999998 13.709999999999996 68.69999999999999 13.859999999999996 L 72.11999999999999 14.329999999999997 C 72.72999999999999 13.009999999999996 73.50999999999999 11.779999999999998 74.41999999999999 10.689999999999996 L 72.50999999999999 8.169999999999996 C 71.82999999999998 7.279999999999997 71.99999999999999 5.989999999999997 72.89999999999999 5.309999999999997 L 76.30999999999999 2.719999999999997 C 77.21 2.039999999999997 78.49999999999999 2.2099999999999973 79.17999999999999 3.109999999999997 L 81.27 5.859999999999998 C 82.6 5.359999999999998 84.02 5.039999999999997 85.47 4.9099999999999975 L 85.9 1.7799999999999976 C 86.05470673865078 0.6577489868999193 87.08693912847396 -0.1287137862986909 88.21 0.019999999999999796 L 92.46 0.6 C 93.58 0.75 94.36999999999999 1.79 94.21 2.91 L 93.74 6.33 C 95.07 6.94 96.28999999999999 7.72 97.39 8.64 L 99.91 6.73 C 100.81 6.040000000000001 102.1 6.210000000000001 102.78999999999999 7.11 z M 29.67 67.12 L 29.67 50.620000000000005 L 38.17 50.620000000000005 C 39.75 50.620000000000005 40.95 50.75000000000001 41.78 51.03 C 42.61 51.300000000000004 43.29 51.800000000000004 43.79 52.53 C 44.3 53.27 44.56 54.160000000000004 44.56 55.21 C 44.56 56.12 44.36 56.92 43.97 57.58 C 43.58 58.25 43.04 58.79 42.36 59.199999999999996 C 41.93 59.459999999999994 41.33 59.67999999999999 40.57 59.849999999999994 C 41.18 60.059999999999995 41.62 60.24999999999999 41.89 60.459999999999994 C 42.08 60.599999999999994 42.35 60.88999999999999 42.7 61.32999999999999 C 43.050000000000004 61.76999999999999 43.290000000000006 62.11999999999999 43.410000000000004 62.35999999999999 L 45.89 67.13 L 40.13 67.13 L 37.410000000000004 62.099999999999994 C 37.06 61.449999999999996 36.760000000000005 61.019999999999996 36.49 60.82999999999999 C 36.120000000000005 60.57999999999999 35.7 60.44999999999999 35.24 60.44999999999999 L 34.79 60.44999999999999 L 34.79 67.13 L 29.669999999999998 67.13 L 29.669999999999998 67.11999999999999 z M 47.650000000000006 95.85000000000001 L 38.13000000000001 95.85000000000001 L 36.76000000000001 100.33000000000001 L 28.180000000000014 100.33000000000001 L 38.41000000000001 73.14000000000001 L 47.610000000000014 73.14000000000001 L 57.80000000000001 100.33000000000001 L 49 100.33000000000001 L 47.65 95.85000000000001 z M 45.870000000000005 89.96000000000001 L 42.900000000000006 80.18 L 39.92000000000001 89.96000000000001 L 45.87000000000001 89.96000000000001 z M 59.78 73.14000000000001 L 73.76 73.14000000000001 C 76.81 73.14000000000001 79.09 73.86000000000001 80.60000000000001 75.31000000000002 C 82.11000000000001 76.76000000000002 82.87 78.83000000000001 82.87 81.50000000000001 C 82.87 84.25000000000001 82.04 86.40000000000002 80.39 87.95000000000002 C 78.74 89.50000000000001 76.21000000000001 90.27000000000001 72.82 90.27000000000001 L 68.21 90.27000000000001 L 68.21 100.33000000000001 L 59.779999999999994 100.33000000000001 L 59.779999999999994 73.14 z M 68.21000000000001 84.76000000000002 L 70.28 84.76000000000002 C 71.91 84.76000000000002 73.06 84.48000000000002 73.72 83.91000000000003 C 74.38 83.35000000000002 74.71 82.62000000000002 74.71 81.75000000000003 C 74.71 80.90000000000003 74.41999999999999 80.17000000000003 73.85 79.58000000000003 C 73.28 78.99000000000002 72.19999999999999 78.69000000000003 70.61999999999999 78.69000000000003 L 68.21 78.69000000000003 L 68.21 84.76000000000002 z M 86.27000000000001 73.14000000000001 L 94.70000000000002 73.14000000000001 L 94.70000000000002 100.33000000000001 L 86.27000000000001 100.33000000000001 L 86.27000000000001 73.14 z M 34.79 57.32 L 36.94 57.32 C 37.169999999999995 57.32 37.62 57.24 38.29 57.09 C 38.63 57.02 38.91 56.85 39.12 56.57 C 39.339999999999996 56.29 39.44 55.97 39.44 55.61 C 39.44 55.08 39.269999999999996 54.66 38.93 54.38 C 38.589999999999996 54.09 37.96 53.95 37.03 53.95 L 34.79 53.95 L 34.79 57.32 z M 46.87 50.62 L 60.519999999999996 50.62 L 60.519999999999996 54.14 L 51.989999999999995 54.14 L 51.989999999999995 56.77 L 59.89999999999999 56.77 L 59.89999999999999 60.13 L 51.989999999999995 60.13 L 51.989999999999995 63.38 L 60.769999999999996 63.38 L 60.769999999999996 67.11 L 46.87 67.11 L 46.87 50.62 z M 61.98 61.66 L 66.82 61.36 C 66.91999999999999 62.15 67.13999999999999 62.74 67.46 63.15 C 67.99 63.809999999999995 68.74 64.15 69.71 64.15 C 70.42999999999999 64.15 71 63.980000000000004 71.39 63.64000000000001 C 71.78 63.300000000000004 71.98 62.900000000000006 71.98 62.45000000000001 C 71.98 62.02000000000001 71.79 61.64000000000001 71.42 61.30000000000001 C 71.05 60.96000000000001 70.18 60.65000000000001 68.81 60.34000000000001 C 66.58 59.84000000000001 64.99000000000001 59.17000000000001 64.03 58.34000000000001 C 63.07 57.51000000000001 62.59 56.45000000000001 62.59 55.16000000000001 C 62.59 54.31000000000001 62.84 53.51000000000001 63.330000000000005 52.76000000000001 C 63.82000000000001 52.01000000000001 64.56 51.41000000000001 65.55000000000001 50.98000000000001 C 66.54 50.55000000000001 67.89000000000001 50.34000000000001 69.61000000000001 50.34000000000001 C 71.72000000000001 50.34000000000001 73.32000000000001 50.73000000000001 74.43 51.52000000000001 C 75.53 52.31000000000001 76.19000000000001 53.55000000000001 76.4 55.27000000000001 L 71.61 55.56000000000001 C 71.48 54.81000000000001 71.21 54.26000000000001 70.81 53.93000000000001 C 70.4 53.59 69.83 53.42000000000001 69.12 53.42000000000001 C 68.53 53.42000000000001 68.08 53.55000000000001 67.78 53.80000000000001 C 67.48 54.05000000000001 67.33 54.360000000000014 67.33 54.72000000000001 C 67.33 54.98000000000001 67.46 55.210000000000015 67.7 55.430000000000014 C 67.94 55.640000000000015 68.5 55.850000000000016 69.4 56.04000000000001 C 71.63000000000001 56.52000000000001 73.23 57.01000000000001 74.19000000000001 57.500000000000014 C 75.15000000000002 57.990000000000016 75.86000000000001 58.600000000000016 76.29 59.33000000000001 C 76.73 60.05000000000001 76.95 60.87000000000001 76.95 61.77000000000001 C 76.95 62.83000000000001 76.66 63.80000000000001 76.07000000000001 64.69000000000001 C 75.49000000000001 65.58000000000001 74.67 66.26 73.62 66.72000000000001 C 72.57000000000001 67.18 71.25 67.41000000000001 69.65 67.41000000000001 C 66.85000000000001 67.41000000000001 64.9 66.87 63.82000000000001 65.79 C 62.74000000000001 64.69000000000001 62.13000000000001 63.32000000000001 61.980000000000004 61.660000000000004 z M 77.69 50.62 L 93.2 50.62 L 93.2 54.699999999999996 L 88 54.699999999999996 L 88 67.11999999999999 L 82.9 67.11999999999999 L 82.9 54.7 L 77.69000000000001 54.7 L 77.69000000000001 50.620000000000005 z M 60.53 11.46 C 58.695075120554534 11.319977354861253 56.85144063898406 11.340053229433716 55.01999999999999 11.52000000000001 C 49.39 12.060000000000002 43.92 14.110000000000001 39.400000000000006 17.62 C 34.17 21.67 30.200000000000006 27.73 28.670000000000005 35.760000000000005 L 28.190000000000005 38.27 L 25.690000000000005 38.71 C 23.240000000000006 39.14 21.050000000000004 39.730000000000004 19.130000000000006 40.480000000000004 C 17.270000000000007 41.2 15.610000000000007 42.09 14.160000000000007 43.14 C 13.000000000000007 43.980000000000004 12.000000000000007 44.92 11.150000000000007 45.94 C 8.520000000000007 49.089999999999996 7.300000000000008 53.04 7.330000000000007 57.04 C 7.3731196065938365 61.18237073367076 8.697003856001082 65.20991305442683 11.12000000000001 68.57 C 12.030000000000008 69.82 13.080000000000009 70.97 14.280000000000008 71.97 C 15.522355134104496 73.00214158595006 16.91508416618994 73.83845345025318 18.410000000000004 74.45 C 19.28000000000001 74.81 20.210000000000008 75.11 21.180000000000007 75.35000000000001 L 21.180000000000007 82.84 C 19.180000000000007 82.48 17.340000000000007 81.94 15.620000000000008 81.23 C 13.350000000000009 80.29 11.340000000000007 79.08 9.570000000000007 77.60000000000001 C 7.890000000000008 76.2 6.420000000000007 74.61000000000001 5.170000000000007 72.88000000000001 C 1.84 68.28 0.04 62.66 0 57.06 C -0.04 51.400000000000006 1.72 45.77 5.52 41.21 C 6.75 39.730000000000004 8.2 38.370000000000005 9.86 37.17 C 11.79 35.77 14 34.59 16.5 33.620000000000005 C 18.22 32.95 20.06 32.39000000000001 22 31.940000000000005 C 24.2 23.200000000000003 28.89 16.470000000000006 34.92 11.800000000000004 C 40.56 7.430000000000004 47.35 4.880000000000004 54.34 4.210000000000004 C 58.010000000000005 3.8600000000000043 61.730000000000004 4.020000000000004 65.37 4.700000000000005 C 65.29 5.030000000000005 65.22 5.360000000000005 65.18 5.700000000000005 L 65.17 5.760000000000004 C 65.10000000000001 6.3300000000000045 65.07000000000001 6.900000000000004 65.10000000000001 7.480000000000004 C 64.33000000000001 7.780000000000004 63.61000000000001 8.190000000000005 62.96000000000001 8.690000000000005 L 62.93000000000001 8.710000000000004 C 61.96000000000001 9.440000000000005 61.14000000000001 10.380000000000004 60.53000000000001 11.460000000000004 z M 113.44 30.66 C 114 31.17 114.53999999999999 31.7 115.07 32.27 C 116.13999999999999 33.42 117.14999999999999 34.720000000000006 118.1 36.17 C 121.3 41.09 122.94 47.660000000000004 122.86999999999999 54.09 C 122.8 60.400000000000006 121.1 66.68 117.61999999999999 71.30000000000001 C 115.35 74.31000000000002 112.44 76.77000000000001 108.94999999999999 78.72000000000001 C 106.55999999999999 80.06000000000002 103.86999999999999 81.17000000000002 100.93999999999998 82.07000000000001 L 100.93999999999998 74.32000000000001 C 102.51999999999998 73.73 103.98999999999998 73.07000000000001 105.33999999999999 72.32000000000001 C 107.96999999999998 70.85000000000001 110.11999999999999 69.06 111.72999999999999 66.91000000000001 C 114.22999999999999 63.58000000000001 115.46 58.87000000000001 115.50999999999999 54.04000000000001 C 115.57 48.97000000000001 114.32999999999998 43.88000000000001 111.91999999999999 40.180000000000014 C 111.22999999999999 39.110000000000014 110.46999999999998 38.15000000000001 109.66999999999999 37.29000000000001 C 109.35999999999999 36.960000000000015 109.04999999999998 36.65000000000001 108.72999999999999 36.350000000000016 C 108.77999999999999 35.850000000000016 108.79999999999998 35.34000000000002 108.77 34.83000000000001 C 109.53999999999999 34.530000000000015 110.25999999999999 34.12000000000001 110.91 33.62000000000001 L 110.94 33.60000000000001 C 111.97441722126344 32.81050665216035 112.82701380778141 31.807853066415223 113.44 30.660000000000007 z M 88.08 12.8 C 92.69 13.430000000000001 95.91 17.68 95.28 22.29 C 94.65 26.9 90.4 30.13 85.79 29.5 C 81.18 28.87 77.95 24.62 78.59 20.009999999999998 C 79.23 15.399999999999999 83.47 12.169999999999998 88.08 12.799999999999997 z" stroke-linecap="round" />
</g>
</svg>