<?xml version="1.0" encoding="UTF-8" standalone="no" ?>
<!DOCTYPE svg PUBLIC "-//W3C//DTD SVG 1.1//EN" "http://www.w3.org/Graphics/SVG/1.1/DTD/svg11.dtd">
<svg xmlns="http://www.w3.org/2000/svg" xmlns:xlink="http://www.w3.org/1999/xlink" version="1.1" width="1080" height="1080" viewBox="0 0 1080 1080" xml:space="preserve">
<desc>Created with Fabric.js 5.2.4</desc>
<defs>
</defs>
<rect x="0" y="0" width="100%" height="100%" fill="transparent"></rect>
<g transform="matrix(1 0 0 1 540 540)" id="3a1045de-e71f-401a-ace0-bda45f525103"  >
<rect style="stroke: none; stroke-width: 1; stroke-dasharray: none; stroke-linecap: butt; stroke-dashoffset: 0; stroke-linejoin: miter; stroke-miterlimit: 4; fill: rgb(255,255,255); fill-rule: nonzero; opacity: 1; visibility: hidden;" vector-effect="non-scaling-stroke"  x="-540" y="-540" rx="0" ry="0" width="1080" height="1080" />
</g>
<g transform="matrix(1 0 0 1 540 540)" id="a68175a6-d88f-4884-841a-89093c15dcb7"  >
</g>
<g transform="matrix(3.06 0 0 3.06 522.68 591.13)"  >
<circle style="stroke: none; stroke-width: 1; stroke-dasharray: none; stroke-linecap: butt; stroke-dashoffset: 0; stroke-linejoin: miter; stroke-miterlimit: 4; fill: rgb(255,255,255); fill-rule: nonzero; opacity: 1;" vector-effect="non-scaling-stroke"  cx="0" cy="0" r="100" />
</g>
<g transform="matrix(1 0 0 1 531.32 565.08)"  >
<path style="stroke: none; stroke-width: 1; stroke-dasharray: none; stroke-linecap: butt; stroke-dashoffset: 0; stroke-linejoin: miter; stroke-miterlimit: 4; fill: rgb(205,103,153); fill-rule: nonzero; opacity: 1;" vector-effect="non-scaling-stroke"  transform=" translate(-273.72, -205.26)" d="M 471.4 236 C 452.29999999999995 236.1 435.7 240.7 421.79999999999995 247.5 C 416.69999999999993 237.4 411.59999999999997 228.4 410.69999999999993 221.8 C 409.69999999999993 214.10000000000002 408.49999999999994 209.4 409.69999999999993 200.20000000000002 C 410.8999999999999 191.00000000000003 416.29999999999995 177.9 416.19999999999993 176.9 C 416.0999999999999 175.9 414.99999999999994 171.20000000000002 403.99999999999994 171.1 C 392.99999999999994 171 383.49999999999994 173.2 382.3999999999999 176.1 C 381.2999999999999 179 379.19999999999993 185.6 377.7999999999999 192.4 C 375.8999999999999 202.4 355.7999999999999 238.10000000000002 344.2999999999999 256.8 C 340.5999999999999 249.5 337.3999999999999 243.10000000000002 336.6999999999999 238 C 335.6999999999999 230.3 334.4999999999999 225.6 335.6999999999999 216.4 C 336.89999999999986 207.20000000000002 342.2999999999999 194.1 342.1999999999999 193.1 C 342.09999999999985 192.1 340.9999999999999 187.4 329.9999999999999 187.29999999999998 C 318.9999999999999 187.2 309.4999999999999 189.39999999999998 308.39999999999986 192.29999999999998 C 307.29999999999984 195.2 306.09999999999985 201.99999999999997 303.79999999999984 208.6 C 301.49999999999983 215.2 274.79999999999984 274.8 267.79999999999984 290.2 C 264.1999999999998 298.09999999999997 261.09999999999985 304.4 258.89999999999986 308.7 C 258.89999999999986 308.7 258.89999999999986 308.7 258.89999999999986 308.7 C 258.89999999999986 308.7 258.79999999999984 309 258.4999999999999 309.5 C 256.5999999999999 313.2 255.4999999999999 315.2 255.4999999999999 315.2 C 255.4999999999999 315.2 255.4999999999999 315.2 255.4999999999999 315.3 C 253.9999999999999 318 252.3999999999999 320.5 251.59999999999988 320.5 C 250.9999999999999 320.5 249.8999999999999 313.3 251.79999999999987 303.5 C 255.79999999999987 282.8 265.29999999999984 250.6 265.1999999999999 249.5 C 265.1999999999999 248.9 266.9999999999999 243.3 258.9999999999999 240.4 C 251.19999999999987 237.5 248.3999999999999 242.3 247.69999999999987 242.3 C 246.9999999999999 242.3 246.4999999999999 244 246.4999999999999 244 C 246.4999999999999 244 255.19999999999987 207.8 229.8999999999999 207.8 C 214.09999999999988 207.8 192.2999999999999 225.10000000000002 181.4999999999999 240.70000000000002 C 174.69999999999987 244.4 160.19999999999987 252.3 144.69999999999987 260.8 C 138.79999999999987 264.1 132.69999999999987 267.40000000000003 126.99999999999987 270.5 C 126.59999999999987 270.1 126.19999999999987 269.6 125.79999999999987 269.2 C 95.19999999999987 236.5 38.599999999999866 213.39999999999998 40.99999999999987 169.5 C 41.89999999999987 153.5 47.39999999999987 111.5 149.69999999999987 60.5 C 233.9 19 300.9 30.5 312.5 56 C 329.1 92.4 276.6 160 189.6 169.8 C 156.39999999999998 173.5 139 160.70000000000002 134.6 155.9 C 130 150.9 129.29999999999998 150.6 127.6 151.6 C 124.8 153.1 126.6 157.6 127.6 160.2 C 130.2 167 140.9 179 159 184.89999999999998 C 175 190.09999999999997 213.9 192.99999999999997 261 174.79999999999998 C 313.7 154.39999999999998 354.9 97.69999999999999 342.8 50.19999999999999 C 330.7 2 250.7 -13.9 175 13 C 130 29 81.2 54.2 46.1 87 C 4.399999999999999 126 -2.1999999999999957 159.9 0.5 174.1 C 10.2 224.5 79.7 257.3 107.5 281.6 C 106.1 282.40000000000003 104.8 283.1 103.7 283.70000000000005 C 89.8 290.6 36.8 318.30000000000007 23.60000000000001 347.6 C 8.600000000000009 380.8 26.000000000000007 404.6 37.50000000000001 407.8 C 73.20000000000002 417.7 109.9 399.90000000000003 129.6 370.5 C 149.29999999999998 341.1 146.9 302.9 137.79999999999998 285.4 C 137.7 285.2 137.6 285 137.39999999999998 284.79999999999995 C 140.99999999999997 282.69999999999993 144.7 280.49999999999994 148.29999999999998 278.4 C 155.39999999999998 274.2 162.39999999999998 270.29999999999995 168.39999999999998 267.09999999999997 C 164.99999999999997 276.4 162.49999999999997 287.49999999999994 161.29999999999998 303.49999999999994 C 159.79999999999998 322.29999999999995 167.49999999999997 346.69999999999993 177.6 356.29999999999995 C 182.1 360.49999999999994 187.4 360.59999999999997 190.79999999999998 360.59999999999997 C 202.6 360.59999999999997 207.89999999999998 350.79999999999995 213.79999999999998 339.2 C 220.99999999999997 325 227.49999999999997 308.5 227.49999999999997 308.5 C 227.49999999999997 308.5 219.39999999999998 353.1 241.39999999999998 353.1 C 249.39999999999998 353.1 257.5 342.70000000000005 261.09999999999997 337.40000000000003 C 261.09999999999997 337.50000000000006 261.09999999999997 337.50000000000006 261.09999999999997 337.50000000000006 C 261.09999999999997 337.50000000000006 261.29999999999995 337.20000000000005 261.7 336.50000000000006 C 262.5 335.20000000000005 263 334.40000000000003 263 334.40000000000003 C 263 334.40000000000003 263 334.3 263 334.20000000000005 C 266.2 328.6 273.4 315.90000000000003 284.1 294.80000000000007 C 297.90000000000003 267.6000000000001 311.20000000000005 233.60000000000008 311.20000000000005 233.60000000000008 C 311.20000000000005 233.60000000000008 312.40000000000003 241.9000000000001 316.50000000000006 255.70000000000007 C 318.90000000000003 263.80000000000007 323.90000000000003 272.70000000000005 327.90000000000003 281.30000000000007 C 324.70000000000005 285.80000000000007 322.70000000000005 288.30000000000007 322.70000000000005 288.30000000000007 C 322.70000000000005 288.30000000000007 322.70000000000005 288.30000000000007 322.80000000000007 288.4000000000001 C 320.20000000000005 291.80000000000007 317.4000000000001 295.5000000000001 314.30000000000007 299.1000000000001 C 303.4000000000001 312.1000000000001 290.4000000000001 327.00000000000006 288.6000000000001 331.30000000000007 C 286.50000000000006 336.4000000000001 287.00000000000006 340.1000000000001 291.00000000000006 343.1000000000001 C 293.90000000000003 345.30000000000007 299.1000000000001 345.6000000000001 304.40000000000003 345.30000000000007 C 314.20000000000005 344.6000000000001 321.1 342.20000000000005 324.50000000000006 340.70000000000005 C 329.80000000000007 338.80000000000007 336.00000000000006 335.90000000000003 341.80000000000007 331.6 C 352.50000000000006 323.70000000000005 359.00000000000006 312.40000000000003 358.4000000000001 297.5 C 358.1000000000001 289.3 355.4000000000001 281.1 352.1000000000001 273.4 C 353.1000000000001 272 354.00000000000006 270.59999999999997 355.00000000000006 269.2 C 371.90000000000003 244.5 385.00000000000006 217.39999999999998 385.00000000000006 217.39999999999998 C 385.00000000000006 217.39999999999998 386.20000000000005 225.7 390.30000000000007 239.49999999999997 C 392.30000000000007 246.49999999999997 396.4000000000001 254.09999999999997 400.00000000000006 261.5 C 384.1000000000001 274.4 374.30000000000007 289.4 370.80000000000007 299.2 C 364.50000000000006 317.4 369.4000000000001 325.59999999999997 378.70000000000005 327.5 C 382.90000000000003 328.4 388.90000000000003 326.4 393.30000000000007 324.5 C 398.9000000000001 322.7 405.50000000000006 319.6 411.80000000000007 315 C 422.50000000000006 307.1 432.80000000000007 296.1 432.20000000000005 281.2 C 431.90000000000003 274.4 430.1 267.7 427.6 261.2 C 441.1 255.6 458.5 252.5 480.70000000000005 255.1 C 528.3000000000001 260.7 537.7 290.4 535.9000000000001 302.9 C 534.1000000000001 315.4 524.1000000000001 322.2 520.8000000000001 324.29999999999995 C 517.5000000000001 326.4 516.4000000000001 327.09999999999997 516.7 328.59999999999997 C 517.1 330.79999999999995 518.7 330.7 521.5 330.29999999999995 C 525.4 329.59999999999997 546.5 320.19999999999993 547.4 297.19999999999993 C 548.9 267.8 520.9 235.7 471.4 236 z M 104.2 359.8 C 88.4 377 66.4 383.5 56.9 378 C 46.7 372.1 50.699999999999996 346.7 70.1 328.5 C 81.89999999999999 317.4 97.1 307.1 107.19999999999999 300.8 C 109.49999999999999 299.40000000000003 112.89999999999999 297.40000000000003 116.99999999999999 294.90000000000003 C 117.69999999999999 294.50000000000006 118.09999999999998 294.3 118.09999999999998 294.3 L 118.09999999999998 294.3 C 118.89999999999998 293.8 119.69999999999997 293.3 120.49999999999999 292.8 C 127.6 318.8 120.8 341.7 104.2 359.8 z M 219.2 281.6 C 213.7 295 202.2 329.3 195.2 327.40000000000003 C 189.2 325.8 185.5 299.8 194 274.1 C 198.3 261.20000000000005 207.4 245.8 212.7 239.8 C 221.29999999999998 230.20000000000002 230.79999999999998 227 233.1 230.9 C 236 236 222.6 273.2 219.2 281.6 z M 314.1 327 C 311.8 328.2 309.6 329 308.6 328.4 C 307.90000000000003 328 309.6 326.4 309.6 326.4 C 309.6 326.4 321.5 313.59999999999997 326.20000000000005 307.79999999999995 C 328.90000000000003 304.4 332.1 300.4 335.50000000000006 295.9 C 335.50000000000006 296.29999999999995 335.50000000000006 296.79999999999995 335.50000000000006 297.2 C 335.5 312.5 320.7 322.8 314.1 327 z M 387.3 310.3 C 385.6 309.1 385.90000000000003 305.1 391.6 292.6 C 393.8 287.70000000000005 399 279.5 407.90000000000003 271.6 C 408.90000000000003 274.8 409.6 277.90000000000003 409.50000000000006 280.8 C 409.4 300.1 395.6 307.3 387.3 310.3 z" stroke-linecap="round" />
</g>
</svg>