<svg id="svg2" xmlns="http://www.w3.org/2000/svg" xmlns:xlink="http://www.w3.org/1999/xlink" viewBox="0 0 169.07 121.75"><defs><style>.cls-1{clip-path:url(#clip-path);}.cls-2{fill:none;}.cls-3{fill-opacity:0.25;}.cls-4{clip-path:url(#clip-path-2);}.cls-5{fill-opacity:0.23;}.cls-6{clip-path:url(#clip-path-3);}.cls-7{fill-opacity:0.47;}.cls-8{clip-path:url(#clip-path-4);}.cls-9{mask:url(#mask);}.cls-10{clip-path:url(#clip-path-5);}.cls-11{fill:#717773;}.cls-11,.cls-14,.cls-19,.cls-20{fill-rule:evenodd;}.cls-12{mask:url(#mask-2);}.cls-13{clip-path:url(#clip-path-7);}.cls-14{fill:#40454d;}.cls-15{fill:url(#linear-gradient);}.cls-16{mask:url(#mask-3);}.cls-17{clip-path:url(#clip-path-9);}.cls-18{clip-path:url(#clip-path-10);}.cls-19{fill:#c3a331;}.cls-20{fill:gold;}.cls-21{mask:url(#mask-4);}.cls-22{clip-path:url(#clip-path-11);}.cls-23{clip-path:url(#clip-path-12);}</style><clipPath id="clip-path"><rect class="cls-2" x="-16.85" y="-34.48" width="136" height="36"/></clipPath><clipPath id="clip-path-2"><rect class="cls-2" x="-9.85" y="-32.48" width="123" height="29"/></clipPath><clipPath id="clip-path-3"><rect class="cls-2" x="49.81" y="84.21" width="12" height="10"/></clipPath><clipPath id="clip-path-4"><rect class="cls-2" x="34.81" y="84.21" width="12" height="10"/></clipPath><mask id="mask" x="0" y="-36.92" width="170" height="159.08" maskUnits="userSpaceOnUse"><g transform="translate(16.84 -2.44)"><g id="mask22"><g id="g24"><g class="cls-1"><g id="g26"><path id="path28" class="cls-3" d="M-16.85-34.48h136v36h-136Z"/></g></g></g></g></g></mask><clipPath id="clip-path-5" transform="translate(16.84 -2.44)"><rect class="cls-2" x="-16.85" y="79.6" width="170" height="45"/></clipPath><mask id="mask-2" x="7" y="-34.92" width="155.5" height="154.58" maskUnits="userSpaceOnUse"><g transform="translate(16.84 -2.44)"><g id="mask66"><g id="g68"><g class="cls-4"><g id="g70"><path id="path72" class="cls-5" d="M-9.85-32.48h123v29h-123Z"/></g></g></g></g></g></mask><clipPath id="clip-path-7" transform="translate(16.84 -2.44)"><rect class="cls-2" x="-8.1" y="85.85" width="153.75" height="36.25"/></clipPath><linearGradient id="linear-gradient" x1="1.89" y1="62.27" x2="133.04" y2="62.27" gradientUnits="userSpaceOnUse"><stop offset="0" stop-color="#3d1f6b"/><stop offset="0.38" stop-color="#783b96"/><stop offset="1" stop-color="#3d1f6b"/></linearGradient><mask id="mask-3" x="66.65" y="32.6" width="31.25" height="59.17" maskUnits="userSpaceOnUse"><g transform="translate(16.84 -2.44)"><g id="mask394"><g id="g396"><g class="cls-6"><g id="g398"><path id="path400" class="cls-7" d="M49.81,84.21h12v10h-12Z"/></g></g></g></g></g></mask><clipPath id="clip-path-9" transform="translate(16.84 -2.44)"><rect class="cls-2" x="66.06" y="35.04" width="15" height="12.5"/></clipPath><clipPath id="clip-path-10" transform="translate(16.84 -2.44)"><rect class="cls-2" x="66.06" y="35.04" width="15" height="12.5"/></clipPath><mask id="mask-4" x="51.65" y="32.6" width="27.5" height="59.17" maskUnits="userSpaceOnUse"><g transform="translate(16.84 -2.44)"><g id="mask478"><g id="g480"><g class="cls-8"><g id="g482"><path id="path484" class="cls-7" d="M34.81,84.21h12v10h-12Z"/></g></g></g></g></g></mask><clipPath id="clip-path-11" transform="translate(16.84 -2.44)"><rect class="cls-2" x="47.31" y="35.04" width="15" height="12.5"/></clipPath><clipPath id="clip-path-12" transform="translate(16.84 -2.44)"><rect class="cls-2" x="47.31" y="35.04" width="15" height="12.5"/></clipPath></defs><g class="cls-9"><g id="g30"><g id="g42"><g class="cls-10"><g id="g44"><g id="g46"><g id="g50"><g class="cls-10"><g id="g52"><g id="g54"><path id="path56" class="cls-11" d="M150.1,118.87q-5.19,2.1-18.49-.45-27.75-5.3-21.05-1.75c1.44.77,1.8,1.63,1.1,2.6s-2.35,1.85-4.85,2.65q-9,2.89-23.75,2.1-14.2-.75-36.15-7.4-9.75-3-14.55-3.9A44.42,44.42,0,0,0,18.51,112q-9.11,1.09-26.25,6.5a36.17,36.17,0,0,1-7.3,1.75c-1.6.06-2.13-.7-1.6-2.3Q-15,112.78.61,103.72a243.7,243.7,0,0,1,24.8-12.5,169.38,169.38,0,0,1,20.65-7.65,78.19,78.19,0,0,1,22.3-3.3C70,80.3,71.53,81.88,73,85s3,5,4.45,5.2q24.15,3.39,39,7.5,18.19,5.06,30.3,13,8.94,5.85,3.4,8.1Z" transform="translate(16.84 -2.44)"/></g></g></g></g></g></g></g></g></g></g><g class="cls-12"><g id="g74"><g id="g86"><g class="cls-13"><g id="g88"><g id="g90"><g id="g94"><g class="cls-13"><g id="g96"><g id="g98"><path id="path100" class="cls-14" d="M121.2,114a99.23,99.23,0,0,0-10-1.4c-4.36-.4-6.4-.27-6.1.4q1.71,3.34.75,4.7-2.64,4-14.9,3.85a107.93,107.93,0,0,1-16.45-1.6,131.71,131.71,0,0,1-15.14-3.65q-13.15-3.81-15-4.25-10.65-2.7-13.59-3.25a41.61,41.61,0,0,0-13.95-.4q-3.25.54-10.81,2.3-8.79,2-10.84,2.4-9.1,1.84,12.25-9.7,4.59-2.1,10.94-4.6c.34-.13,4-1.54,11.1-4.2Q52.06,86,69.05,86.27c1.57,0,3.75.75,6.56,2.15A23.67,23.67,0,0,0,82,90.92q35.66,4.29,59.15,18.9c3.14,1.93,4.47,3.63,4,5.1s-2.11,1.91-4.91,1.75a149.56,149.56,0,0,1-19-2.7Z" transform="translate(16.84 -2.44)"/></g></g></g></g></g></g></g></g></g></g><g id="g104"><g id="g110"><path id="path122" class="cls-15" d="M92.56,39.74c1.68,7.23.64,1.94,2.16,9.82q5,27,11.3,35.7a111,111,0,0,0,12.56,14.6q3.75,3.6,11,10.5c3.59,3.77,4.35,6.07,2.24,6.9q-2.75,1.14-11.25-1.35c-5.33-1.6-5.93-2.1-11.37-2.46s-10.57.93-8.21,2.43c2.57,1.59.37,2.08-4.07,3.88S86.62,122.37,79.63,122q-13.22-.66-31.85-6.55-17.91-5.7-23.75-5.7-6.1,0-17,3.2a16.75,16.75,0,0,1-4.5,1c-.83-.13-.85-.9,0-2.3a23.07,23.07,0,0,1,3.6-4.55c2.13-2.1,3.79-3.79,4.95-5,4.44-4.8,8.85-9.66,11.62-14.73,3-8.31,3.38-9.63,6.69-24,3.4-15.08,1.53-7.27,3.92-17.44.93-6.06,4.06-24.05,10.93-33q11.3-14.7,26-8.66C81.24,8.77,89.26,20.87,92.56,39.74Z" transform="translate(16.84 -2.44)"/></g></g><g class="cls-16"><g id="g402"><g id="g414"><g class="cls-17"><g id="g416"><g id="g418"><g id="g422"><g class="cls-18"><g id="g424"><g id="g426"><path id="path428" class="cls-19" d="M66.61,42.88c0-1.73.62-2.78,1.85-3.15a23.3,23.3,0,0,1,4.65-.2c3.4.11,5.23.19,5.5.26.9.29,1.35,1.33,1.35,3.09A7.19,7.19,0,0,1,78,47.94a6.22,6.22,0,0,1-4.7,2.1,6.36,6.36,0,0,1-4.75-2.1A7.19,7.19,0,0,1,66.61,42.88Z" transform="translate(16.84 -2.44)"/></g></g></g></g></g></g></g></g></g></g><g id="g432"><g id="g438"><path id="path446" class="cls-20" d="M67.46,39.41c0-1.33.55-2.1,1.65-2.3.67-.13,2.17.53,4.18.66a23.49,23.49,0,0,0,4.07-.56,2,2,0,0,1,1.75,2.2,5.83,5.83,0,0,1-1.75,4,5.92,5.92,0,0,1-8.2,0A5.37,5.37,0,0,1,67.46,39.41Z" transform="translate(16.84 -2.44)"/></g></g><g class="cls-21"><g id="g486"><g id="g498"><g class="cls-22"><g id="g500"><g id="g502"><g id="g506"><g class="cls-23"><g id="g508"><g id="g510"><path id="path512" class="cls-19" d="M47.86,39.16c0-1.73.62-2.8,1.85-3.2a21.06,21.06,0,0,1,4.6-.15,45.49,45.49,0,0,1,5.5.25c.93.3,1.4,1.33,1.4,3.1a7.15,7.15,0,0,1-2,5.05,6.37,6.37,0,0,1-9.45,0A7.15,7.15,0,0,1,47.86,39.16Z" transform="translate(16.84 -2.44)"/></g></g></g></g></g></g></g></g></g></g><g id="g516"><g id="g522"><path id="path530" class="cls-20" d="M47.71,40.06c0-1.33.26-2.75,1.32-3,.67-.13,2.28.52,4.28.65a13.8,13.8,0,0,0,4.4-1c1.2.23,1.63,2,1.6,3.27a5.61,5.61,0,0,1-1.7,4,5.92,5.92,0,0,1-8.2,0A5.37,5.37,0,0,1,47.71,40.06Z" transform="translate(16.84 -2.44)"/></g></g></svg>