<?xml version="1.0" encoding="UTF-8" standalone="no" ?>
<!DOCTYPE svg PUBLIC "-//W3C//DTD SVG 1.1//EN" "http://www.w3.org/Graphics/SVG/1.1/DTD/svg11.dtd">
<svg xmlns="http://www.w3.org/2000/svg" xmlns:xlink="http://www.w3.org/1999/xlink" version="1.1" width="1080" height="1080" viewBox="0 0 1080 1080" xml:space="preserve">
<desc>Created with Fabric.js 5.2.4</desc>
<defs>
</defs>
<g transform="matrix(1 0 0 1 540 540)" id="3a1045de-e71f-401a-ace0-bda45f525103"  >
<rect style="stroke: none; stroke-width: 1; stroke-dasharray: none; stroke-linecap: butt; stroke-dashoffset: 0; stroke-linejoin: miter; stroke-miterlimit: 4; fill: rgb(255,255,255); fill-rule: nonzero; opacity: 1; visibility: hidden;" vector-effect="non-scaling-stroke"  x="-540" y="-540" rx="0" ry="0" width="1080" height="1080" />
</g>
<g transform="matrix(1 0 0 1 540 540)" id="a68175a6-d88f-4884-841a-89093c15dcb7"  >
</g>
<g transform="matrix(0.9 0 0 1 526.82 540)"  >
<rect style="stroke: none; stroke-width: 1; stroke-dasharray: none; stroke-linecap: butt; stroke-dashoffset: 0; stroke-linejoin: miter; stroke-miterlimit: 4; fill: rgb(15,23,42); fill-rule: nonzero; opacity: 1;" vector-effect="non-scaling-stroke"  x="-131" y="-16.5" rx="4" ry="4" width="262" height="33" />
</g>
<g transform="matrix(0.87 0 0 0.87 436.59 539.85)"  >
<path style="stroke: none; stroke-width: 1; stroke-dasharray: none; stroke-linecap: butt; stroke-dashoffset: 0; stroke-linejoin: miter; stroke-miterlimit: 4; fill: rgb(56,189,248); fill-rule: evenodd; opacity: 1;" vector-effect="non-scaling-stroke"  transform=" translate(-27, -16.2)" d="M 27 0 C 19.8 0 15.3 3.6 13.5 10.8 C 16.2 7.2 19.35 5.85 22.95 6.75 C 25.004 7.263 26.472 8.754 28.097 10.403 C 30.744 13.09 33.808 16.2 40.5 16.2 C 47.7 16.2 52.2 12.6 54 5.4 C 51.3 9 48.15 10.35 44.55 9.45 C 42.496 8.937 41.028 7.446 39.403 5.797 C 36.756 3.11 33.692 0 27 0 Z M 13.5 16.2 C 6.3 16.2 1.8 19.8 0 27 C 2.7 23.4 5.85 22.05 9.45 22.95 C 11.504 23.464 12.972 24.954 14.597 26.603 C 17.244 29.29 20.308 32.4 27 32.4 C 34.2 32.4 38.7 28.8 40.5 21.6 C 37.8 25.2 34.65 26.55 31.05 25.65 C 28.996 25.137 27.528 23.646 25.903 21.997 C 23.256 19.31 20.192 16.2 13.5 16.2 Z" stroke-linecap="round" />
</g>
<g transform="matrix(0.91 0 0 0.91 551.17 538.87)"  >
<path style="stroke: none; stroke-width: 1; stroke-dasharray: none; stroke-linecap: butt; stroke-dashoffset: 0; stroke-linejoin: miter; stroke-miterlimit: 4; fill: rgb(255,255,255); fill-rule: evenodd; opacity: 1;" vector-effect="non-scaling-stroke"  transform=" translate(-165.01, -15.08)" d="M 80.996 13.652 L 76.284 13.652 L 76.284 22.772 C 76.284 25.204 77.88 25.166 80.996 25.014 L 80.996 28.7 C 74.688 29.46 72.18 27.712 72.18 22.772 L 72.18 13.652 L 68.684 13.652 L 68.684 9.69996 L 72.18 9.69996 L 72.18 4.59596 L 76.284 3.37996 L 76.284 9.69996 L 80.996 9.69996 L 80.996 13.652 Z M 98.958 9.69996 L 103.062 9.69996 L 103.062 28.7 L 98.958 28.7 L 98.958 25.964 C 97.514 27.978 95.272 29.194 92.308 29.194 C 87.14 29.194 82.846 24.824 82.846 19.2 C 82.846 13.538 87.14 9.20596 92.308 9.20596 C 95.272 9.20596 97.514 10.422 98.958 12.398 L 98.958 9.69996 Z M 92.954 25.28 C 96.374 25.28 98.958 22.734 98.958 19.2 C 98.958 15.666 96.374 13.12 92.954 13.12 C 89.534 13.12 86.95 15.666 86.95 19.2 C 86.95 22.734 89.534 25.28 92.954 25.28 Z M 109.902 6.84996 C 108.458 6.84996 107.28 5.63396 107.28 4.22796 C 107.281 3.53297 107.558 2.86682 108.049 2.37539 C 108.541 1.88395 109.207 1.60728 109.902 1.60596 C 110.597 1.60728 111.263 1.88395 111.755 2.37539 C 112.246 2.86682 112.523 3.53297 112.524 4.22796 C 112.524 5.63396 111.346 6.84996 109.902 6.84996 Z M 107.85 28.7 L 107.85 9.69996 L 111.954 9.69996 L 111.954 28.7 L 107.85 28.7 Z M 116.704 28.7 L 116.704 0.959961 L 120.808 0.959961 L 120.808 28.7 L 116.704 28.7 Z M 147.446 9.69996 L 151.778 9.69996 L 145.812 28.7 L 141.784 28.7 L 137.832 15.894 L 133.842 28.7 L 129.814 28.7 L 123.848 9.69996 L 128.18 9.69996 L 131.866 22.81 L 135.856 9.69996 L 139.77 9.69996 L 143.722 22.81 L 147.446 9.69996 Z M 156.87 6.84996 C 155.426 6.84996 154.248 5.63396 154.248 4.22796 C 154.249 3.53297 154.526 2.86682 155.017 2.37539 C 155.509 1.88395 156.175 1.60728 156.87 1.60596 C 157.565 1.60728 158.231 1.88395 158.723 2.37539 C 159.214 2.86682 159.491 3.53297 159.492 4.22796 C 159.492 5.63396 158.314 6.84996 156.87 6.84996 Z M 154.818 28.7 L 154.818 9.69996 L 158.922 9.69996 L 158.922 28.7 L 154.818 28.7 Z M 173.666 9.20596 C 177.922 9.20596 180.962 12.094 180.962 17.034 L 180.962 28.7 L 176.858 28.7 L 176.858 17.452 C 176.858 14.564 175.186 13.044 172.602 13.044 C 169.904 13.044 167.776 14.64 167.776 18.516 L 167.776 28.7 L 163.672 28.7 L 163.672 9.69996 L 167.776 9.69996 L 167.776 12.132 C 169.03 10.156 171.082 9.20596 173.666 9.20596 Z M 200.418 2.09996 L 204.522 2.09996 L 204.522 28.7 L 200.418 28.7 L 200.418 25.964 C 198.974 27.978 196.732 29.194 193.768 29.194 C 188.6 29.194 184.306 24.824 184.306 19.2 C 184.306 13.538 188.6 9.20596 193.768 9.20596 C 196.732 9.20596 198.974 10.422 200.418 12.398 L 200.418 2.09996 Z M 194.414 25.28 C 197.834 25.28 200.418 22.734 200.418 19.2 C 200.418 15.666 197.834 13.12 194.414 13.12 C 190.994 13.12 188.41 15.666 188.41 19.2 C 188.41 22.734 190.994 25.28 194.414 25.28 Z M 218.278 29.194 C 212.54 29.194 208.246 24.824 208.246 19.2 C 208.246 13.538 212.54 9.20596 218.278 9.20596 C 222.002 9.20596 225.232 11.144 226.752 14.108 L 223.218 16.16 C 222.382 14.374 220.52 13.234 218.24 13.234 C 214.896 13.234 212.35 15.78 212.35 19.2 C 212.35 22.62 214.896 25.166 218.24 25.166 C 220.52 25.166 222.382 23.988 223.294 22.24 L 226.828 24.254 C 225.232 27.256 222.002 29.194 218.278 29.194 Z M 233.592 14.944 C 233.592 18.402 243.814 16.312 243.814 23.342 C 243.814 27.142 240.508 29.194 236.404 29.194 C 232.604 29.194 229.868 27.484 228.652 24.748 L 232.186 22.696 C 232.794 24.406 234.314 25.432 236.404 25.432 C 238.228 25.432 239.634 24.824 239.634 23.304 C 239.634 19.922 229.412 21.822 229.412 15.02 C 229.412 11.448 232.49 9.20596 236.366 9.20596 C 239.482 9.20596 242.066 10.65 243.396 13.158 L 239.938 15.096 C 239.254 13.614 237.924 12.93 236.366 12.93 C 234.884 12.93 233.592 13.576 233.592 14.944 Z M 251.11 14.944 C 251.11 18.402 261.332 16.312 261.332 23.342 C 261.332 27.142 258.026 29.194 253.922 29.194 C 250.122 29.194 247.386 27.484 246.17 24.748 L 249.704 22.696 C 250.312 24.406 251.832 25.432 253.922 25.432 C 255.746 25.432 257.152 24.824 257.152 23.304 C 257.152 19.922 246.93 21.822 246.93 15.02 C 246.93 11.448 250.008 9.20596 253.884 9.20596 C 257 9.20596 259.584 10.65 260.914 13.158 L 257.456 15.096 C 256.772 13.614 255.442 12.93 253.884 12.93 C 252.402 12.93 251.11 13.576 251.11 14.944 Z" stroke-linecap="round" />
</g>
</svg>