<svg width="145" height="31" viewBox="0 0 145 31" fill="none" xmlns="http://www.w3.org/2000/svg" class="w-full h-full">
    <g clip-path="url(#clip0_1307_2182)">
        <path
            d="M83.801 26.4094H84.0328C81.7726 26.4094 79.8602 24.5479 79.8602 22.2211C79.8602 19.9525 81.7147 18.0328 84.0328 18.0328H83.801C86.0612 18.0328 87.9737 19.8943 87.9737 22.2211C87.9157 24.5479 86.0612 26.4094 83.801 26.4094ZM83.9169 14.4263C79.6283 14.4263 76.1511 17.9165 76.1511 22.2211C76.1511 26.5257 79.6283 30.0159 83.9169 30.0159C88.2055 30.0159 91.6827 26.5257 91.6827 22.2211C91.6827 17.9165 88.2055 14.4263 83.9169 14.4263Z"
            fill="#363636"></path>
        <path
            d="M60.2717 26.4094H60.5035C58.2433 26.4094 56.3309 24.5479 56.3309 22.2211C56.3309 19.9525 58.1854 18.0328 60.5035 18.0328H60.2717C62.5319 18.0328 64.4444 19.8943 64.4444 22.2211C64.3864 24.5479 62.5319 26.4094 60.2717 26.4094ZM60.3876 14.4263C56.099 14.4263 52.6218 17.9165 52.6218 22.2211C52.6218 26.5257 56.099 30.0159 60.3876 30.0159C64.6762 30.0159 68.1534 26.5257 68.1534 22.2211C68.1534 17.9165 64.6762 14.4263 60.3876 14.4263Z"
            fill="#363636"></path>
        <path
            d="M6.72262 23.4427H12.9816L10.6055 18.091H9.15667L6.72262 23.4427ZM12.8657 14.4263L19.8201 30.0741H15.8793L14.2566 26.4094H5.38969L3.76699 30.0741H0L6.89648 14.4263H12.8657Z"
            fill="#363636"></path>
        <path
            d="M131.903 23.4427H138.162L135.785 18.091H134.337L131.903 23.4427ZM138.046 14.4263L145 30.0741H141.059L139.437 26.4094H130.57L128.947 30.0741H125.18L132.076 14.4263H138.046Z"
            fill="#363636"></path>
        <path
            d="M31.7585 14.4263V20.7087H40.6254V14.4263H44.5662V30.0741H40.6254V23.4427H31.7585V30.0741H27.8176V14.4263H31.7585Z"
            fill="#363636"></path>
        <path
            d="M112.836 23.4428C113.183 23.9082 113.241 24.4899 112.952 24.9552C112.372 25.886 110.981 26.3513 108.779 26.3513H107.91H107.562C105.244 26.3513 103.389 24.4899 103.389 22.1631C103.389 19.8362 105.244 17.9748 107.562 17.9748H109.416C111.155 17.9748 112.662 19.08 113.299 20.5925H117.182C116.487 16.9859 113.357 14.3101 109.532 14.3101H107.62C103.389 14.3101 99.7961 17.6258 99.6802 21.814C99.5064 26.235 103.042 29.8997 107.446 29.8997H107.794H108.141C110.228 29.8997 112.024 29.2598 113.241 28.0383H113.995V29.7252H117.182V23.3265H112.836V23.4428Z"
            fill="#363636"></path>
        <path
            d="M80.3237 8.26019L72.1523 0L63.9229 8.26019L66.7046 11.0524L72.1523 5.58435L77.542 11.0524L80.3237 8.26019Z"
            fill="#363636"></path>
    </g>
    <defs>
        <clipPath id="clip0_1307_2182">
            <rect fill="white" height="30.0741" width="145"></rect>
        </clipPath>
    </defs>
</svg>
